<svg version="1.1" viewBox="0 0 666.67 666.67" xmlns="http://www.w3.org/2000/svg">
 <defs>
  <clipPath id="clipPath24">
   <path d="m0 500h500v-500h-500z"/>
  </clipPath>
 </defs>
 <g transform="matrix(1.3333 0 0 -1.3333 0 666.67)">
  <g clip-path="url(#clipPath24)">
   <g transform="translate(231.77 30.732)">
    <path d="M 0,0 C 0.01,0.01 0.02,0.021 0.02,0.03 0,-0.02 -0.01,-0.03 0,0" fill="#1c1c1b"/>
   </g>
   <g transform="translate(197.5 27.213)">
    <path d="m0 0c0.32-0.07 0.25-0.061 0 0" fill="#1c1c1b"/>
   </g>
   <g transform="translate(486.42 274.42)">
    <path d="m0 0c-5.844 11.132-12.536 21.897-18.861 32.777-6.148 10.6-11.993 21.479-18.647 31.789-0.05 0.38-0.291 0.709-0.619 0.911-0.519 0.607-1.392 0.304-1.594-0.329-0.025-0.038-0.063-0.05-0.076-0.088-11.866-21.48-24.845-42.732-35.408-64.883-0.024-0.05-0.024-0.088-0.037-0.126-0.646-0.456-0.456-1.72 0.555-1.797 24.112-1.783 48.616-1.973 72.764-0.733 0.557 0.038 0.911 0.379 1.063 0.797 0.696 0.101 1.302 0.848 0.86 1.682" fill="#f7be2a"/>
   </g>
   <g transform="translate(456.8 262.77)">
    <path d="m0 0c-11.187 19.247-21.723 39.127-33.831 57.809 0.842 1.547 1.682 3.097 2.529 4.638 5.448-10.418 11.673-20.49 17.533-30.673 6.076-10.557 11.891-21.347 18.361-31.67-1.532-0.041-3.062-0.07-4.592-0.104m-6.177-0.1c-9.411 17.29-19.79 34.706-31.701 50.425 1.146 2.13 2.293 4.257 3.444 6.378 9.731-19.418 21.71-37.97 32.635-56.744-1.461-0.03-2.918-0.035-4.378-0.059m-6.308-0.065c-3e-3 5e-3 -2e-3 9e-3 -5e-3 0.014-9.086 14.576-18.552 29.687-29.372 43.063 1.16 2.16 2.319 4.32 3.479 6.478 9.862-16.633 20.348-32.912 30.272-49.516-1.459-0.022-2.916-0.022-4.374-0.039m-9.247-0.05c-7.45 12.156-15.55 24.295-24.14 35.686 1.185 2.193 2.369 4.387 3.548 6.582 8.391-14.494 18.376-28.443 27.876-42.236-2.429-0.023-4.857-0.023-7.284-0.032m-9.725 6e-3c-5.859 9.581-12.03 19.085-18.442 28.304 1.182 2.155 2.366 4.31 3.537 6.472 6.894-11.882 14.607-23.605 22.577-34.791-2.558-5e-3 -5.114 5e-3 -7.672 0.015m-7.522 0.069c-4.584 7.192-9.124 15.031-14.676 21.471 1.079 1.923 2.154 3.849 3.218 5.782 5.207-9.309 10.892-18.478 16.869-27.318-1.803 0.01-3.608 0.048-5.411 0.065m-6.909 0.1c-3.209 5.425-7.069 10.749-10.978 15.709 0.948 1.65 1.888 3.305 2.822 4.964 3.271-7.241 8.288-14.232 12.95-20.747-1.597 0.018-3.196 0.052-4.794 0.074m-7.016 0.125c-2.568 3.187-5.037 6.409-7.371 9.775 0.965 1.631 1.934 3.259 2.882 4.902 2.866-5.031 6.05-10.118 9.503-14.77-1.671 0.026-3.342 0.062-5.014 0.093m-7.183 0.17c-1.173 1.548-2.141 3.198-2.981 4.989 0.717 1.184 1.454 2.354 2.163 3.545 1.79-3.005 3.779-5.932 5.974-8.666-1.717 0.035-3.437 0.09-5.156 0.132m-5.934 0.152c0.79 1.254 1.545 2.532 2.318 3.798 0.5-1.362 1.155-2.679 1.946-3.907-1.422 0.038-2.841 0.062-4.264 0.109m73.223-0.174c-5.853 11.135-12.542 21.895-18.859 32.775-6.156 10.601-12.002 21.485-18.65 31.788-0.057 0.386-0.288 0.719-0.616 0.915-0.524 0.607-1.403 0.304-1.603-0.329-0.024-0.035-0.056-0.051-0.078-0.09-11.866-21.476-24.839-42.736-35.409-64.882-0.02-0.043-0.02-0.083-0.034-0.126-0.647-0.451-0.457-1.721 0.56-1.796 2.479-0.184 4.964-0.345 7.451-0.491 0.274-0.318 0.557-0.627 0.849-0.924 0.574-0.583 1.414 0.2 1.042 0.824 1.779-0.098 3.557-0.197 5.337-0.281 0.27-0.237 0.576-0.211 0.811-0.04 19.068-0.873 38.282-0.792 57.269 0.185 0.562 0.029 0.916 0.371 1.061 0.785 0.702 0.109 1.308 0.851 0.869 1.687" fill="#1c1c1b"/>
   </g>
   <g transform="translate(375.62 61.581)">
    <path d="m0 0c-0.393 0.911-0.671 1.86-0.86 2.821 1.037 16.104 0.531 32.638 0.265 48.729-0.012 1.024-1.024 1.366-1.733 1.062-0.848 1.454-1.947 1.303-3.833 1.442-5.275 0.38-10.752 0-16.053-0.013-10.348-0.024-20.771 0.216-31.119-0.392-0.62 0.443-1.733 0.177-1.746-0.835-0.341-17.988-0.898-36.445 0.278-54.395 0.038-0.468 0.355-0.708 0.709-0.746 0.038-0.14 0.113-0.266 0.291-0.291 8.058-1.443 16.964-0.177 25.123 0.051 9.158 0.265 18.33 0.531 27.489 0.796 0.721 0.013 1.075 0.57 1.087 1.126 0.14 0.165 0.203 0.392 0.102 0.645" fill="#f7be2a"/>
   </g>
   <g transform="translate(383.04 48.604)">
    <path d="m0 0c1.562 1.354 3.229 2.71 4.774 4.151 0.076-1.337 0.155-2.672 0.254-4.002-1.675-0.049-3.352-0.099-5.028-0.149m4.504 9.887c0.045-1.221 0.102-2.439 0.162-3.656-1.95-1.838-3.733-3.983-5.516-5.921-0.1-0.11-0.122-0.229-0.1-0.338-1.705-0.05-3.411-0.101-5.117-0.152 3.434 3.449 7.13 6.642 10.571 10.067m-19.617-10.335c6.733 5.761 13.339 11.826 19.418 18.28 0.028-1.982 0.076-3.962 0.134-5.939-4.474-3.471-8.412-7.95-12.191-12.122zm-1.714-0.051c-1.406-0.041-2.812-0.083-4.218-0.125-1.582-0.047-3.202-0.055-4.834-0.057 10.78 8.104 20.84 17.258 30.131 27.023-7e-3 -2.091-1e-3 -4.182 0.018-6.272-0.041-0.028-0.084-0.042-0.124-0.081-6.908-6.821-13.724-13.681-20.834-20.296-0.066-0.061-0.11-0.126-0.139-0.192m-10.781-0.184c-2.501 3e-3 -5.03 7e-3 -7.543-0.076 14.236 11.49 27.387 24.568 39.518 38.261-0.051-3.138-0.092-6.281-0.111-9.426-0.33 0.205-0.76 0.231-1.114-0.135-9.709-10.001-19.931-19.287-30.576-28.277-0.116-0.098-0.164-0.221-0.174-0.347m-9.477-0.083c-0.027-0.024-0.036-0.052-0.058-0.078-2.884-0.159-5.73-0.46-8.457-1.068 1e-3 9e-3 6e-3 0.016 6e-3 0.025 9e-3 0.124 0.014 0.248 0.023 0.372 0.09 0.02 0.179 0.055 0.263 0.129 17.303 15.137 33.843 31.317 49.832 47.845-0.037-2.039-0.075-4.083-0.111-6.131-13.189-14.42-27.158-27.829-41.498-41.094m-8.069 7.521c15.248 13.667 31.059 27.881 44.409 43.414 0.525 0.611 0.055 1.381-0.555 1.429 2.412-0.045 4.429-0.281 4.83-0.948 0.278-0.461 0.679-0.607 1.059-0.562-4e-3 -0.264-0.01-0.529-0.014-0.794-16.56-16.56-33.396-32.825-50.057-49.28 0.131 2.241 0.244 4.487 0.328 6.741m3.511 44.76c-1.322-1.093-2.534-2.324-3.535-3.715-0.025 1.287-0.051 2.575-0.074 3.857 1.202-0.066 2.405-0.099 3.609-0.142m1.705-0.068c1.209-0.033 2.418-0.053 3.627-0.071-2.985-3.474-5.859-7.039-8.734-10.604-0.034 1.846-0.068 3.689-0.104 5.529 1.606 1.85 3.248 3.605 5.191 5.121 0.01 8e-3 0.013 0.017 0.02 0.025m11.154-0.125c-5.954-5.154-11.423-11.016-15.939-17.46-0.313-0.447 0.412-1.015 0.763-0.589 5.377 6.548 11.069 12.553 17.526 18.045 1.484-2e-3 2.968-2e-3 4.45-6e-3 0.562-2e-3 1.126-2e-3 1.688-4e-3 -9.164-7.44-17.388-16.443-24.57-25.785-0.016 4.892-0.082 9.786-0.168 14.661 0.132-0.133 0.342-0.173 0.507 0.013 3.263 3.685 6.543 7.356 9.671 11.157 2.024-0.022 4.048-0.028 6.072-0.032m17.088-0.035c-11.633-10.533-22.792-21.717-33.195-33.475 0.023 2.1 0.033 4.201 0.031 6.303 8.433 9.698 17.509 18.411 26.877 27.187 2.095-6e-3 4.191-0.012 6.287-0.015m2.376 0.06c1.999 0.104 5.251 0.301 7.995 0.252-0.201 8e-3 -0.415-0.058-0.612-0.238-14.932-13.544-28.868-28.54-43.159-42.799 0.081 2.519 0.143 5.042 0.178 7.571 11.512 11.856 23.214 23.431 35.335 34.673 0.18 0.168 0.249 0.355 0.263 0.541m16.953-51.657c-0.388 0.912-0.672 1.859-0.862 2.824 0.083 1.29 0.141 2.587 0.206 3.882h1e-3c0.272 0.317 0.23 0.665 0.046 0.906 0.678 14.579 0.252 29.435 0.019 43.941-0.017 1.021-1.027 1.364-1.741 1.056-0.838 1.458-1.948 1.314-3.833 1.45-5.277 0.378-10.751-4e-3 -16.047-0.016-10.353-0.021-20.778 0.219-31.118-0.39-0.628 0.446-1.731 0.177-1.749-0.834-0.343-17.986-0.892-36.446 0.283-54.396 0.03-0.467 0.355-0.708 0.702-0.743 0.04-0.142 0.122-0.269 0.295-0.3 8.056-1.435 16.959-0.176 25.12 0.058 9.165 0.264 18.33 0.526 27.495 0.79 0.717 0.02 1.072 0.573 1.081 1.127 0.141 0.163 0.207 0.398 0.102 0.645" fill="#1c1c1b"/>
   </g>
   <g transform="translate(294.02 94.272)">
    <path d="m0 0c-0.025 0.848-0.797 1.164-1.404 0.986-0.127 0.355-0.431 0.646-0.937 0.684-6.413 0.367-13.055 0.24-19.468-0.228 0.544 6.413 0.544 13.004 0.329 19.431-0.013 0.189-0.051 0.354-0.126 0.493 0.038 0.417-0.153 0.822-0.697 0.899-6.426 0.948-13.396 0.619-19.873 0.075-0.645 0.456-1.745 0.203-1.733-0.835 0.076-6.591 0.354-13.282 1.113-19.835-6.767-0.405-13.472-0.733-20.265-0.608-0.114 0-0.215-0.038-0.304-0.063-0.531 0.102-1.113-0.113-1.239-0.733-1.113-5.718-2.113-13.877-0.076-19.444 0.051-0.113 0.126-0.202 0.215-0.278-0.139-0.468 0.101-1.024 0.772-1.063 6.919-0.316 13.851-0.303 20.771-0.518-0.746-6.4-0.809-13.359 0.151-19.709 0.077-0.506 0.482-0.695 0.886-0.67 0.038-0.025 0.089-0.051 0.14-0.063 5.502-1.809 12.814-0.962 18.532-0.721 0.772 0.037 1.126 0.682 1.088 1.29 0.038 0.063 0.075 0.151 0.088 0.24 0.886 6.439 0.975 13.017 1.266 19.494 6.425-0.303 13.054-0.265 19.367 0.948 0.303 0.064 0.493 0.228 0.607 0.444 0.316 0.1 0.581 0.366 0.607 0.809 0.329 6.287 0.443 12.688 0.19 18.975" fill="#eb3398"/>
   </g>
   <g transform="translate(277.48 68.902)">
    <path d="m0 0c-0.028 0.045-0.042 0.092-0.081 0.135-5.443 6.058-11.064 12.093-16.816 18.006 1.975-0.136 3.97-0.225 5.97-0.29-0.121-0.189-0.146-0.446 0.035-0.67 3.691-4.541 8.084-8.505 12.802-11.952 0.049-1.701 0.111-3.398 0.195-5.086-0.703-0.043-1.403-0.096-2.105-0.143m-8.917-0.613c-0.02 0.182-0.081 0.367-0.241 0.536-9.111 9.632-18.259 19.277-27.861 28.425-0.025 0.024-0.053 0.032-0.08 0.051-0.052 2.641-0.172 5.279-0.319 7.909 11.012-12.66 23.075-24.915 35.265-36.454-2.256-0.161-4.51-0.324-6.764-0.467m-8.086-0.338c-2e-3 1e-3 -2e-3 2e-3 -3e-3 4e-3 -6.89 6.368-13.803 12.767-21.007 18.786 0.076 0.011 0.152 0.017 0.228 0.027 0.826 0.116 0.965 1.071 0.609 1.685 4e-3 0.03 0.017 0.053 0.019 0.087 0.09 2.307 0.1 4.629 0.078 6.951 8.354-9.375 17.145-18.379 25.945-27.334-1.951-0.105-3.905-0.188-5.869-0.206m-1.695-0.946c-0.121-0.166-0.215-0.359-0.226-0.613-0.098-2.424-0.222-4.86-0.331-7.298-9.587 9.238-19.566 18.178-29.658 26.876 3.082 0.032 6.161 0.215 9.213 0.566 6.753-6.75 13.894-13.141 21.004-19.513 0-6e-3 -3e-3 -0.012-2e-3 -0.018m-0.735-17.788c-5.778 5.352-11.527 10.752-17.558 15.82-0.076 0.063-0.156 0.091-0.236 0.104-0.02 0.449-0.038 0.904-0.059 1.351 0.676 0.609 0.412 2.047-0.782 2.124-0.587 0.038-1.178 0.056-1.765 0.089 0.097 0.267 0.058 0.571-0.242 0.818-6.105 5.038-12.259 10.035-18.577 14.806 0.059 0.661 0.12 1.322 0.176 1.984 2.447-0.198 4.911-0.314 7.378-0.344 9.991-9.68 20.241-19.223 30.769-28.311 0.325-0.281 0.704-0.282 1.005-0.134-0.11-2.771-0.169-5.544-0.109-8.307m-6.142-1.99c-0.018 0.02-0.025 0.043-0.046 0.062-3.538 3.043-7.329 5.901-11.173 8.545-0.031 0.02-0.06 7e-3 -0.09 0.017-0.068 2.689-0.171 5.381-0.288 8.054 5.593-5.693 11.494-11.087 17.335-16.524 0.025-0.022 0.051-0.027 0.075-0.046-1.938-0.054-3.876-0.088-5.813-0.108m-3.431-0.016c-2.59 0.015-5.258 0.313-7.822-0.058 0.043 2.588 0.02 5.203-0.038 7.823 2.838-2.704 5.814-5.314 8.887-7.761-0.342 0-0.685-6e-3 -1.027-4e-3m-20.395 21.776c1e-3 0.229-0.099 0.457-0.374 0.602-3.559 1.876-6.747 4.36-9.371 7.419v0.028c0.042 1.991 0.2 3.969 0.375 5.944 5.483-4.855 11.125-9.539 16.799-14.168-2.473 0.111-4.951 0.189-7.429 0.175m-9.863-0.499c0.362 2.348 0.161 4.759 0.12 7.147 1.946-2.741 4.386-5.005 7.312-6.684-2.484-0.066-4.965-0.208-7.432-0.463m28.413 39.095c0.017-0.084 0.048-0.168 0.12-0.247 3.536-3.944 7.307-7.788 11.11-11.485 0.062-2.125 0.153-4.247 0.318-6.352-5.812 5.896-11.753 11.656-17.8 17.157-0.13 0.119-0.271 0.163-0.405 0.164-0.022 0.348-0.036 0.698-0.059 1.046 2.216-0.092 4.464-0.196 6.716-0.283m11.256-0.036c-0.095-3.097-0.134-6.225-0.09-9.353-3.18 3.194-6.461 6.345-9.816 9.337 3.321-0.112 6.647-0.158 9.906 0.016m16.79-20.843c1.426-1.744 3.012-3.446 4.595-5.039 0.012-0.012 0.024-0.014 0.037-0.025-0.011-1.787 3e-3 -3.577 0.037-5.366-4.241 3.187-8.127 6.691-11.874 10.454 2.405-0.064 4.812-0.072 7.205-0.024m4.742 0.21c-0.04-1.055-0.047-2.116-0.066-3.176-1.059 1.027-2.157 2.038-3.278 2.995 1.06 0.033 2.116 0.076 3.166 0.137 0.068 4e-3 0.117 0.031 0.178 0.044m2.166 0.353c-0.034 0.842-0.799 1.165-1.41 0.986-0.121 0.355-0.431 0.648-0.934 0.676-6.411 0.369-13.053 0.249-19.474-0.223 0.549 6.42 0.544 13.006 0.333 19.433-6e-3 0.192-0.055 0.353-0.127 0.492 0.039 0.418-0.153 0.825-0.692 0.904-6.423 0.947-13.399 0.614-19.878 0.064-0.645 0.46-1.742 0.204-1.731-0.827 0.073-6.595 0.357-13.281 1.119-19.837-6.771-0.409-13.473-0.727-20.267-0.612-0.118 2e-3 -0.214-0.027-0.31-0.055-0.526 0.099-1.115-0.116-1.235-0.734-1.113-5.716-2.109-13.883-0.075-19.448 0.041-0.112 0.117-0.201 0.206-0.275-0.132-0.472 0.112-1.031 0.78-1.061 6.914-0.313 13.845-0.309 20.765-0.517-0.749-6.41-0.801-13.365 0.153-19.718 0.075-0.501 0.479-0.693 0.889-0.662 0.042-0.027 0.085-0.055 0.135-0.072 5.51-1.806 12.812-0.951 18.535-0.715 0.776 0.031 1.132 0.684 1.085 1.284 0.042 0.07 0.073 0.152 0.088 0.252 0.888 6.435 0.98 13.005 1.269 19.49 6.425-0.307 13.06-0.269 19.372 0.951 0.294 0.056 0.49 0.226 0.608 0.442 0.316 0.099 0.58 0.364 0.603 0.807 0.332 6.285 0.44 12.686 0.193 18.975" fill="#1c1c1b"/>
   </g>
   <g transform="translate(111.36 440.82)">
    <path d="m0 0c-12.536 12.245-32.865 15.269-48.614 7.843-16.344-7.717-26.16-26.489-24.023-44.301 2.252-18.797 18.773-35.521 37.812-36.913 0.202-0.253 0.493-0.43 0.885-0.467 17.988-1.367 36.141 8.778 43.453 25.527 7.021 16.04 2.998 36.091-9.513 48.311" fill="#eb3398"/>
   </g>
   <g transform="translate(98.726 431.97)">
    <path d="m0 0c-17.865 14.716-37.209 28.79-58.077 38.924 2.963 1.477 6.128 2.583 9.431 3.293 16.003-10.217 31.862-20.631 47.374-31.584 0.184-0.13 0.363-0.17 0.535-0.176 0.662-3.317 0.932-6.767 0.752-10.293-3e-3 -0.056-0.012-0.109-0.015-0.164m-2.3-10.995c-0.026 0.029-0.037 0.062-0.069 0.089-9.919 8.202-20.396 15.813-30.852 23.311-10.487 7.519-21.1 15.265-32.284 21.747 1.881 1.523 3.899 2.876 6.027 4.043 20.415-12.85 40.45-25.429 59.114-40.838 0.038-0.031 0.08-0.038 0.118-0.064-0.374-2.886-1.077-5.655-2.054-8.288m-4.08-8.02c-0.078 0.18-0.198 0.349-0.415 0.479-11.144 6.663-20.367 16.356-31.228 23.585-11.323 7.536-22.823 14.656-33.205 23.479 1.437 1.728 3.018 3.325 4.711 4.788 10.19-7.629 20.947-14.561 31.257-22.031 10.696-7.749 21.074-15.897 31.662-23.784 0.214-0.159 0.442-0.188 0.657-0.144-0.952-2.238-2.103-4.37-3.439-6.372m-5.057-6.166c-0.035 0.287-0.175 0.569-0.461 0.78-21.069 15.593-42.242 31.349-64.065 45.88 1.127 2.129 2.453 4.126 3.916 6.004 9.138-9.281 20.291-16.042 31.12-23.174 6.14-4.045 12.178-8.232 17.775-13.014 4.892-4.178 9.512-8.7 15.301-11.637 0.157-0.079 0.309-0.115 0.455-0.122-1.226-1.672-2.574-3.251-4.041-4.717m-6.202-5.131c-20.239 14.557-40.209 30.274-61.489 43.279-0.059 0.035-0.119 0.051-0.179 0.064 0.685 2.515 1.605 4.925 2.722 7.215 20.625-16.19 42.187-31.394 63.577-46.545 0.095-0.068 0.188-0.092 0.281-0.125-1.539-1.41-3.177-2.716-4.912-3.888m-10.143-5.07c-0.026 0.29-0.155 0.575-0.44 0.788-17.066 12.75-34.422 25.255-52.54 36.477-0.016 1.471 0.043 2.965 0.201 4.487 0.193 1.859 0.516 3.673 0.941 5.444 18.971-15.613 39.982-29.209 60.067-43.36-2.589-1.556-5.348-2.849-8.229-3.836m-8.539-1.976c0 0.28-0.115 0.558-0.429 0.742-14.642 8.562-30.501 17.803-42.846 29.561-0.606 2.355-0.981 4.807-1.115 7.34 16.979-12.084 34.129-23.9 50.878-36.307-2.114-0.608-4.282-1.062-6.488-1.336m-7.934-0.231c-0.317 0.022-0.552-0.079-0.739-0.226-15.656 3.336-29.186 13.907-33.952 28.504 4.503-5.206 11.137-9.139 16.584-12.99 7.666-5.42 15.574-10.476 23.638-15.281-1.828-0.121-3.674-0.132-5.531-7e-3m7.076 80.585c1.156-0.09 2.293-0.233 3.415-0.415 8.833-6.055 17.919-11.793 26.973-17.5 2.357-3.558 4.186-7.493 5.351-11.695-14.678 10.307-29.689 20.14-45.165 29.206 3.05 0.49 6.201 0.652 9.426 0.404m26.828-13.288c-6.282 4.024-12.596 8.021-18.988 11.869 7.489-2.108 14.008-6.288 18.988-11.869m0.034 4.132c-12.533 12.241-32.859 15.266-48.616 7.833-16.342-7.708-26.154-26.485-24.02-44.3 2.25-18.788 18.774-35.521 37.819-36.912 0.194-0.25 0.484-0.432 0.879-0.462 17.993-1.363 36.143 8.777 43.459 25.52 7.012 16.044 2.99 36.101-9.521 48.321" fill="#1c1c1b"/>
   </g>
   <g transform="translate(91.088 318.13)">
    <path d="m0 0c0 0.088-0.025 0.165-0.051 0.253 0.038 0.683-0.379 1.417-1.277 1.429-25.465 0.544-47.147-19.354-47.565-45.072-0.404-25.11 20.873-47.083 46.287-46.211 0.734 0.025 1.101 0.557 1.126 1.113 0.139 0.127 0.228 0.304 0.253 0.544 0.569 6.3 0.455 12.663 0.392 18.976 0 1.163-1.404 1.391-1.998 0.721-5.073 1.239-10.412 2.479-14.827 5.376-6.135 4.01-8.817 11.284-8.968 18.38-0.342 15.471 11.574 22.088 25.3 23.517 1.088 0.114 1.379 1.379 0.784 1.974 0.772 6.186 0.557 12.827 0.544 19" fill="#f7be2a"/>
   </g>
   <g transform="translate(59.546 300.99)">
    <path d="m0 0c-6.606 0.481-13.327 0.488-19.965 0.435 1.048 2.251 2.308 4.377 3.716 6.392 8.052-1.136 16.245-1.652 24.385-1.494-3.045-1.313-5.787-3.096-8.049-5.356-0.031 5e-3 -0.054 0.021-0.087 0.023m-3.939-5.427c-6.098 1e-3 -12.263 0.033-18.351-0.365 0.494 1.737 1.096 3.425 1.796 5.06 6.361-0.448 12.806-0.839 19.183-0.828-0.994-1.189-1.883-2.473-2.628-3.867m2.1-27.389c-6.47 0.705-13.102 1.048-19.62 1.106-0.575 1.605-1.05 3.264-1.431 4.966 5.941-0.463 11.89-0.846 17.839-1.174 0.106-6e-3 0.194 0.015 0.278 0.041 0.78-1.812 1.764-3.457 2.934-4.939m1.101-1.294c1.803-1.955 3.95-3.596 6.375-4.937-8.33 0.361-16.525 1.06-24.804 2.077-0.707 1.346-1.333 2.744-1.893 4.179 6.539-0.814 13.229-1.372 19.795-1.522 0.237-5e-3 0.412 0.077 0.527 0.203m8.905-6.193c3.311-1.455 7.013-2.455 10.984-3.01-4e-3 -0.456-1e-3 -0.914-5e-3 -1.37-11.526 0.117-22.908 1.027-34.408 1.629-1.188 1.536-2.264 3.161-3.232 4.859 8.536-1.735 17.42-2.548 26.089-2.41 0.273 4e-3 0.457 0.131 0.572 0.302m-7.521-15.509c-0.024 1e-3 -0.043-7e-3 -0.064-0.01-3.085 1.498-5.957 3.332-8.59 5.434 8.875-1.317 18.033-2.019 26.989-1.597 0.06 3e-3 0.104 0.025 0.156 0.038 0.018-1.43 0.047-2.86 0.105-4.287-6.218-0.09-12.384 0.015-18.596 0.422m18.863-4.848c-5.738 0.308-11.241 1.579-16.294 3.665 5.334-0.692 10.736-0.901 16.104-0.565 0.055-1.034 0.105-2.068 0.19-3.1m-28.662 11.201c-1.858 1.585-3.568 3.326-5.126 5.194 10.935-1.959 22.331-2.378 33.418-2.185-8e-3 -1.368-0.024-2.736-0.016-4.105-0.048 0.011-0.088 0.031-0.142 0.032-9.297 0.283-18.528 0.514-27.812 1.194-0.137 0.01-0.245-0.045-0.322-0.13m-14.643 29.075c5.341-0.708 10.888-0.982 16.208-0.449 0.83 0.083 0.869 1.328 0 1.324-5.475-0.027-10.842-0.025-16.284 0.328-0.033 0.791-0.047 1.588-0.036 2.394 0.015 1.094 0.086 2.171 0.182 3.24 5.491-0.963 11.247-1.402 16.774-1.106 0.105 6e-3 0.195 0.033 0.277 0.069-0.074-0.787-0.131-1.583-0.137-2.406-0.025-3.483 0.492-6.575 1.444-9.321-5.923 0.343-11.852 0.634-17.781 0.843-0.316 1.653-0.526 3.351-0.647 5.084m1.222 13.565c5.896-0.398 11.867-0.383 17.782-0.379-0.81-1.89-1.41-3.927-1.724-6.131-0.112 0.088-0.251 0.154-0.436 0.16-5.577 0.15-11.119 0.293-16.687 0.573 0.222 1.974 0.583 3.902 1.065 5.777m11.182 19.433c10.322-0.802 20.743-1.387 31.096-1.513 0.1-1.088 0.225-2.166 0.406-3.215-2.195-0.05-4.327-0.322-6.381-0.765-0.121 0.072-0.262 0.125-0.443 0.122-9.615-0.132-19.105 0.129-28.674 0.796 1.22 1.622 2.564 3.142 3.996 4.575m7.295 5.886c7.841-0.316 15.779-0.594 23.626-0.343-0.055-1.839-0.057-3.686 0.051-5.506-9.816 0.778-19.729 1.147-29.582 1.304 1.83 1.677 3.81 3.193 5.905 4.545m23.686 1.317c-7.303 0.236-14.682 0.011-21.993-0.277 6.623 3.866 14.325 6.075 22.467 6.07-0.21-1.871-0.373-3.821-0.474-5.793m1.356-14.189c1.09 0.114 1.38 1.379 0.787 1.97 0.765 6.182 0.554 12.828 0.542 18.997-1e-3 0.097-0.03 0.171-0.048 0.254 0.034 0.69-0.385 1.415-1.276 1.434-16.247 0.348-30.942-7.636-39.569-20.132-0.11-0.075-0.186-0.19-0.222-0.324-4.763-7.027-7.626-15.448-7.776-24.614-0.411-25.116 20.866-47.091 46.284-46.221 0.737 0.025 1.106 0.567 1.122 1.122 0.138 0.12 0.237 0.301 0.259 0.542 0.456 5.035 0.471 10.117 0.429 15.182 0.305 0.332 0.301 0.896-0.011 1.217-8e-3 0.859-0.015 1.718-0.023 2.576-0.01 1.161-1.408 1.391-2.006 0.717-5.075 1.239-10.413 2.485-14.827 5.375-6.128 4.012-8.812 11.289-8.965 18.382-0.335 15.471 11.579 22.09 25.3 23.523" fill="#1c1c1b"/>
   </g>
   <g transform="translate(341.92 448.38)">
    <path d="m0 0c-1.48 1.999-3.542 3.694-5.49 5.326 0.354 1.113-1.114 2.327-2.088 1.29-4.68-4.946-9.917-9.032-15.471-12.915-2.72 2.264-5.882 4.086-8.716 6.173-3.756 2.77-7.387 5.705-11.044 8.589-0.138 0.898-1.328 1.632-2.201 0.797-5.464-5.25-11.17-10.373-16.255-16.002-0.05-0.064-0.076-0.127-0.114-0.19-6.818 6.085-13.977 11.866-21.441 17.103-0.721 0.506-1.581-0.418-1.316-1.101-3.327-2.644-6.54-5.426-9.715-8.235-2.67-2.365-5.819-4.706-7.932-7.628-5.717 6.388-11.815 12.79-18.874 17.71-0.354 0.253-0.721 0.114-0.936-0.177-0.177-0.038-0.354-0.114-0.518-0.253-5.946-4.769-11.93-9.614-17.534-14.788-4.92 4.984-10.664 9.386-16.609 13.08-0.152 0.089-0.304 0.101-0.455 0.076-0.203 0.038-0.431 0.013-0.633-0.126-1.619-1.088-2.973-2.695-4.326-4.086-1.48-1.506-3.037-2.998-4.403-4.618-0.493-0.594-0.114-1.264 0.443-1.379 0.025-0.176 0.089-0.341 0.24-0.48 7.654-7.084 15.813-13.789 23.96-20.303 0.291-0.241 0.632-0.304 0.936-0.254 0.265-0.265 0.658-0.392 1.025-0.113 6.603 4.984 13.092 10.373 19.202 15.964 4.934-5.604 10.487-10.74 15.787-15.99 0.52-0.518 1.152-0.417 1.607-0.075 0.241-0.456 0.898-0.709 1.442-0.266 6.566 5.376 13.042 10.79 19.975 15.711 0.151 0.114 0.278 0.241 0.367 0.392 5.604-5.224 11.524-10.385 17.647-14.952 0.455-0.342 0.949-0.202 1.29 0.139 0.303-0.228 0.747-0.278 1.126 0.051 5.844 5.148 11.84 10.094 17.735 15.193 0.114 0.101 0.189 0.214 0.24 0.328 5.883-5.515 12.208-10.487 18.748-15.192 0.379-0.278 0.759-0.278 1.063-0.127 0.24-0.114 0.518-0.126 0.797 0.076 7.969 5.692 15.685 12.587 22.745 19.393 0.708 0.683 0.353 1.518-0.304 1.859" fill="#f7be2a"/>
   </g>
   <g transform="translate(332.74 455.75)">
    <path d="m0 0c-0.243 1.978-0.534 3.949-0.871 5.914 1.103-1.331 2.255-2.651 3.532-3.758-0.888-0.703-1.773-1.435-2.661-2.156m-6.959 1.892c1.643 1.405 3.207 2.899 4.716 4.441 0.202-2.5 0.468-5.007 0.821-7.485-1.769-1.457-3.533-2.937-5.276-4.451 0.048 2.489-0.103 5.022-0.261 7.495m-1.134-8.701c-1.188-1.05-2.365-2.113-3.525-3.189-0.555 2.53-1.103 4.901-1.002 7.579 1.631 1.09 3.189 2.288 4.706 3.537-0.166-2.629-0.31-5.314-0.179-7.927m-8.679-8.169c0.197 3.034-0.157 6.141-0.721 9.134 0.484 0.124 0.877 0.533 0.863 0.992 1.011 0.551 1.994 1.147 2.965 1.765-0.167-2.601-3e-3 -5.498 0.988-7.904-1.392-1.314-2.768-2.638-4.095-3.987m-4.205 1.094c-0.639 3.393-1.027 6.632-0.981 10.097 0.838-0.528 1.688-1.024 2.558-1.455 0.15-0.294 0.444-0.489 0.801-0.493 0.39-3.403 0.347-6.748 0.355-10.182-0.918 0.668-1.824 1.352-2.733 2.033m-6.241 4.783c0.443-0.021 0.936 0.372 0.776 0.888-0.954 3.069-1.684 5.933-1.914 9.108 1.677-1.321 3.412-2.666 5.204-3.885-0.446-3.021-0.436-6.329 0.194-9.412-1.428 1.09-2.847 2.192-4.26 3.301m-4.891 3.869c0 8e-3 4e-3 0.014 3e-3 0.022-0.428 3.524-0.998 7.081-1.785 10.569 1.298-1.104 2.613-2.191 3.962-3.235 0.151-0.116 0.302-0.236 0.452-0.353 0-3e-3 -2e-3 -5e-3 -2e-3 -9e-3 -0.238-3.455 0.235-7.247 1.695-10.415-1.445 1.137-2.893 2.268-4.325 3.421m-4.866 3.941c-0.566 0.461-1.261 0.204-1.562-0.263-0.147 0.099-0.312 0.158-0.483 0.176-0.261 3.4-0.515 6.803-0.848 10.197 0.347 0.334 0.695 0.671 1.043 1.003 1.07-1.043 2.185-2.035 3.302-3.026 0.572-3.572 1.185-7.139 1.781-10.707-1.078 0.872-2.156 1.744-3.233 2.62m-9.138-5.406c0.031 0.068 0.051 0.146 0.056 0.236 0.16 3.023 0.363 6.327 0.066 9.383 1.61 1.537 3.206 3.083 4.804 4.627 0.341-3.144 0.729-6.283 1.113-9.421-2.061-1.528-4.072-3.145-6.039-4.825m-4.277-3.795c-0.191 2.91-0.357 5.825-0.638 8.728 1.232 1.106 2.447 2.235 3.654 3.372-0.137-2.675 0.039-5.478 0.176-8.069 0.023-0.451 0.431-0.622 0.754-0.521-1.334-1.147-2.654-2.314-3.946-3.51m-5.108-4.924c0.123 2.888 0.15 5.791 0.102 8.676 0.5 0.339 0.771 0.989 0.364 1.554 0.049 0.03 0.099 0.043 0.147 0.083 0.855 0.707 1.683 1.45 2.519 2.181 0.201-2.657 0.469-5.311 0.72-7.963 0.022-0.227 0.141-0.386 0.294-0.487-1.408-1.328-2.794-2.674-4.146-4.044m-1.535-1.569c-0.014 0.013-0.018 0.031-0.032 0.045-0.992 0.917-2.002 1.822-3.025 2.719 0.203 3.326 0.23 6.659 0.273 9.992 0.971-0.815 1.946-1.627 2.917-2.444 0.021-0.018 0.045-0.022 0.067-0.038-0.057-3.293-5e-3 -6.61 0.165-9.901-0.121-0.125-0.245-0.248-0.365-0.373m-13.372 11.198c-0.332 3.543-0.405 7.008-0.141 10.545 1.447-1.211 2.892-2.425 4.34-3.635-0.573-3.257-0.146-7.093 0.764-10.245 0.145-0.504 1.017-0.433 0.954 0.13-0.346 3.055-0.354 5.993-0.413 9.021 1.224-1.024 2.446-2.05 3.671-3.075-0.027-0.077-0.05-0.157-0.049-0.253 0.05-3.368 0.061-6.739 0.237-10.102-3.035 2.622-6.178 5.164-9.363 7.614m-5.331 4.014c-0.036 0.026-0.073 0.033-0.109 0.052 0.095 3.584 0.212 7.176 0.188 10.76 1.26-1.057 2.521-2.113 3.783-3.169-0.051-0.091-0.086-0.196-0.095-0.32-0.26-3.525-0.08-7.1 0.576-10.578-1.445 1.101-2.894 2.19-4.343 3.255m-1.976-0.237c-1.254-0.866-2.495-1.756-3.728-2.658 0.101 3.888 0.237 7.805 0.158 11.698 1.335 1.121 2.675 2.238 3.999 3.371 0.079-0.067 0.158-0.132 0.237-0.198-0.067-4.006 0.078-8.022 0.183-12.029-0.26 0.059-0.549 0.024-0.849-0.184m-8.234-6.06c0.168 3.773 0.233 7.561 0.2 11.337 0.967 0.818 1.935 1.635 2.906 2.45-0.028-3.636 0.11-7.29 0.2-10.914 3e-3 -0.118 0.04-0.212 0.089-0.294-1.14-0.848-2.276-1.701-3.395-2.579m-5.679-4.698c0.104 3.65 0.185 7.31 0.165 10.962 1.454 1.281 2.851 2.634 4.258 3.842-0.012-3.641 0.049-7.29 0.226-10.923-1.577-1.261-3.137-2.545-4.649-3.881m-5.768-5.495c-0.056 0.176-0.148 0.35-0.311 0.511-1.158 1.139-2.31 2.291-3.462 3.446 0.34 3.532 0.653 7.068 0.895 10.608 0.741-0.793 1.486-1.581 2.208-2.394 0.034-0.038 0.072-0.056 0.108-0.089 0.018-3.678 0.105-7.361 0.242-11.033 0.023-0.625 0.948-0.626 0.971 0 0.136 3.665 0.222 7.342 0.241 11.013 0.308 0.254 0.525 0.64 0.524 1.055 1.08 0.603 2.103 1.344 3.095 2.145 3e-3 -3.568 0.093-7.142 0.197-10.703-1.62-1.469-3.194-2.986-4.708-4.559m-4.272 15.591c-0.207-3.567-0.324-7.139-0.422-10.71-2.649 2.659-5.306 5.323-8.049 7.88 0.066 0.078 0.116 0.174 0.122 0.305 0.164 3.66 0.412 7.46 0.233 11.148 1.218-1.2 2.434-2.402 3.647-3.608-0.109-3.549 0.014-7.159 0.225-10.702 0.035-0.59 0.883-0.591 0.918 0 0.183 3.082 0.29 6.213 0.246 9.311 1.075-1.08 2.141-2.171 3.195-3.273-0.061-0.099-0.107-0.211-0.115-0.351m-13.153 1.331c-0.059 0.049-0.12 0.072-0.181 0.106 0.235 4.288 0.088 8.563-0.543 12.819 0.023 0.02 0.047 0.039 0.07 0.059 1.418-1.456 2.856-2.89 4.299-4.317-0.326-3.943-0.045-8.055 0.142-12.017-1.244 1.14-2.497 2.27-3.787 3.35m-1.76-0.224c-1.64-1.292-3.266-2.614-4.879-3.958 0.4 4.305 1.01 8.653 0.972 12.972 0 0.019-8e-3 0.031-9e-3 0.049 1.216 0.994 2.421 1.994 3.628 2.994 0.444-3.941 0.717-7.878 0.746-11.846-0.156-0.038-0.311-0.096-0.458-0.211m-5.896-4.827c-1.282-1.08-2.563-2.165-3.826-3.27 0.218 4.191 0.21 8.425 0.157 12.622 1.399 1.101 2.782 2.221 4.164 3.341-0.432-4.2-0.35-8.482-0.495-12.693m-9.686-8.529c0.099 4.539 0.487 8.976 0.86 13.507 0.011 0.136-0.032 0.245-0.094 0.338 1.213 0.903 2.415 1.824 3.612 2.752-0.04-3.975-0.031-7.975 0.197-11.932 9e-3 -0.168 0.074-0.292 0.16-0.39-1.595-1.411-3.178-2.833-4.735-4.275m-0.902-0.841c-0.611-0.572-1.234-1.137-1.839-1.714-0.841 0.732-1.702 1.451-2.551 2.178 0.467 4.264 0.774 8.565 0.974 12.852 0.172-0.147 0.344-0.292 0.516-0.439 0.414-0.353 0.889-0.316 1.245-0.097 0.237-0.136 0.523-0.164 0.798 0.033 0.412 0.296 0.814 0.609 1.224 0.908-0.84-4.451-0.869-9.252-0.367-13.721m-5.302 1.243c-1.231 1.05-2.451 2.108-3.692 3.151 0.666 4.339 0.917 8.746 0.622 13.131 1.181-1.004 2.364-2.008 3.546-3.012-0.287-4.407-0.465-8.847-0.476-13.27m-4.484 3.812c-1.308 1.098-2.614 2.198-3.932 3.286 0.308 4.424 0.632 9.054 0.295 13.474 1.25-1.051 2.489-2.116 3.735-3.173-0.109-0.116-0.183-0.275-0.175-0.49 0.156-4.376 0.22-8.723 0.077-13.097m-4.812 4.011c-1.175 0.966-2.337 1.949-3.522 2.902 0.261 4.344 0.65 8.819 0.247 13.145-0.029 0.317-0.206 0.516-0.422 0.606 0.026 0.033 0.056 0.064 0.081 0.097 1.301-1.061 2.574-2.149 3.86-3.224-0.248-0.079-0.456-0.289-0.484-0.642-0.335-4.221-0.055-8.633 0.24-12.884m-7.338 5.943c0.131 2.407 0.186 4.815 0.194 7.227 0.821 0.757 1.675 1.528 2.455 2.348-0.306-3.916-6e-3 -7.942 0.24-11.878-0.962 0.769-1.92 1.545-2.889 2.303m-4.147 3.211c1.074 0.918 2.1 1.899 3.125 2.874 0.015-1.805 0.066-3.609 0.152-5.412-1.092 0.848-2.176 1.709-3.277 2.538m164.15 0.554c-1.483 1.997-3.543 3.689-5.498 5.317 0.354 1.12-1.111 2.333-2.088 1.298-4.673-4.947-9.92-9.041-15.47-12.918-2.724 2.26-5.875 4.089-8.719 6.179-2.74 2.013-5.407 4.119-8.07 6.231-0.031 0.109-0.055 0.221-0.086 0.33-0.107 0.376-0.451 0.432-0.705 0.295-0.726 0.576-1.455 1.152-2.184 1.727-0.138 0.903-1.324 1.637-2.193 0.801-5.465-5.253-11.17-10.373-16.254-16.001-0.057-0.064-0.083-0.131-0.121-0.196-6.811 6.083-13.973 11.864-21.441 17.11-0.716 0.502-1.583-0.42-1.313-1.108-3.323-2.64-6.545-5.423-9.721-8.237-2.596-2.3-5.636-4.577-7.741-7.39-0.148 0.237-0.417 0.349-0.687 0.331-5.581 6.198-11.524 12.373-18.367 17.149-0.36 0.251-0.732 0.105-0.942-0.18-0.178-0.042-0.355-0.119-0.523-0.253-5.942-4.774-11.924-9.616-17.524-14.793-4.923 4.991-10.67 9.393-16.617 13.082-0.147 0.091-0.302 0.104-0.446 0.073-0.209 0.042-0.431 0.012-0.632-0.124-1.619-1.089-2.978-2.687-4.337-4.08-1.479-1.516-3.036-2.997-4.395-4.621-0.497-0.593-0.116-1.267 0.445-1.383 0.021-0.172 0.084-0.341 0.236-0.482 7.654-7.085 15.814-13.785 23.953-20.304 0.301-0.241 0.633-0.297 0.941-0.244 0.264-0.272 0.655-0.395 1.024-0.117 6.61 4.986 13.094 10.369 19.198 15.97 4.939-5.614 10.49-10.741 15.791-16 0.519-0.514 1.156-0.418 1.603-0.07 0.25-0.459 0.907-0.715 1.448-0.272 6.569 5.377 13.043 10.79 19.97 15.711 0.163 0.115 0.284 0.251 0.372 0.396 5.6-5.228 11.521-10.383 17.648-14.956 0.455-0.339 0.946-0.192 1.284 0.14 0.193-0.137 0.433-0.195 0.677-0.153 0.224-0.307 0.783-0.228 0.815 0.251 6e-3 0.095 9e-3 0.19 0.015 0.285 5.73 5.024 11.593 9.88 17.355 14.861 0.115 0.1 0.195 0.214 0.25 0.333 5.872-5.515 12.204-10.492 18.739-15.197 0.384-0.277 0.761-0.279 1.071-0.126 0.234-0.114 0.512-0.126 0.792 0.074 7.974 5.701 15.689 12.597 22.746 19.393 0.712 0.685 0.356 1.524-0.299 1.868" fill="#1c1c1b"/>
   </g>
   <g transform="translate(441.09 445.91)">
    <path d="m0 0c5.945 0.456 11.917-1.379 13.498-7.729 1.758-7.034-4.111-12.853-10.753-13.675-0.304-0.038-0.518-0.177-0.695-0.342-4.643 0.392-9.172 2.834-10.728 7.565-2.15 6.502 1.67 13.624 8.678 14.181m22.429 13.232c-10.512 8.286-25.971 9.159-36.825 1.062-9.626-7.197-15.041-20.138-12.042-31.979 2.872-11.372 14.269-22.239 26.425-23.048 0.178-0.228 0.456-0.392 0.835-0.418 13.106-0.581 25.984 6.844 30.841 19.279 4.757 12.169 1.101 26.97-9.234 35.104" fill="#77c8d0"/>
   </g>
   <g transform="translate(451.17 435.94)">
    <path d="m0 0c-0.151 0.099-0.311 0.088-0.45 0.025 0.619 1.388 0.983 2.91 1.031 4.542 4.374-3.144 9.25-5.862 14.184-7.961-0.445-1.46-1-2.868-1.666-4.211-4.443 2.458-8.841 4.808-13.099 7.605m9.822-12.752c-4.621 2.808-9.602 5.216-14.476 7.55 1.617 1.232 2.956 2.769 3.883 4.542 0.027-0.061 0.067-0.119 0.13-0.17 3.932-3.167 8.351-6.168 12.997-8.205-0.748-1.308-1.591-2.552-2.534-3.717m-5.274-5.057c-5.212 3.182-10.386 6.423-15.577 9.638 1.994 0.459 3.897 1.276 5.568 2.389 4.615-2.86 9.357-5.781 14.236-8.192-1.279-1.409-2.691-2.699-4.227-3.835m-7.397-4c0.167 0.333 0.143 0.781-0.246 1.057-12.24 8.685-24.739 17.291-37.551 25.127 0.014 2.135 0.288 4.244 0.779 6.292 0.033-0.06 0.078-0.116 0.143-0.163 4.168-3.016 8.52-5.835 13.024-8.334 1.239-6.415 6.975-10.689 13.204-10.439 0.178-0.16 0.422-0.257 0.751-0.216 0.1 0.012 0.2 0.035 0.301 0.049 5.024-3.714 10.287-7.131 15.674-10.293-1.888-1.243-3.924-2.284-6.079-3.08m-6.953-1.688c-0.052 0.083-0.123 0.159-0.225 0.22-10.359 6.242-19.967 13.322-29.657 20.515-0.554 1.974-0.879 4.02-0.949 6.11 11.875-8.937 24.314-17.335 36.746-25.455 0.031-0.02 0.059-0.02 0.088-0.036-1.93-0.64-3.933-1.113-6.003-1.354m-4.199-0.2c-6.333 1.059-12.03 2.854-17.111 7.4-3.648 3.262-6.462 7.364-8.061 11.912 8.327-7.318 17.66-13.615 27.165-19.284-0.661-0.028-1.324-0.043-1.993-0.028m-23.716 40.307c3.396-2.982 7.292-5.75 11.476-7.47-0.55-1.634-0.801-3.402-0.686-5.212-4.123 2.438-8.246 4.869-12.328 7.378-0.173 0.106-0.33 0.085-0.452 5e-3 0.484 1.832 1.167 3.601 1.99 5.299m2.702 4.529c3.592-2.761 7.588-5.066 11.678-6.964 0.068-0.032 0.135-0.036 0.201-0.049-1.073-1.046-1.944-2.292-2.582-3.669-3.958 2.237-7.873 4.351-11.6 6.98 0.674 1.29 1.452 2.523 2.303 3.702m4.514 4.983c4.128-3.113 8.345-6.321 12.746-9.044-1.661-0.399-3.139-1.131-4.399-2.112-9e-3 0.222-0.116 0.435-0.391 0.563-4.114 1.91-8.011 4.103-11.924 6.355 1.184 1.538 2.516 2.959 3.968 4.238m17.756-32.344c-0.293-0.036-0.511-0.174-0.685-0.347-4.651 0.393-9.18 2.842-10.738 7.568-2.142 6.501 1.678 13.63 8.689 14.177 5.941 0.464 11.907-1.373 13.493-7.725 1.757-7.036-4.113-12.852-10.759-13.673m-13.479 35.46c12.901-9.293 27.104-17.184 40.746-25.332 0.918-0.548 1.738 0.866 0.835 1.429-13.326 8.312-26.681 17.226-40.667 24.406 1.997 1.093 4.13 1.939 6.363 2.501 0.038-0.059 0.085-0.114 0.15-0.161 10.864-7.885 22.27-15.24 34.017-21.744 0.049-0.026 0.094-0.028 0.142-0.045 0.339-1.65 0.543-3.351 0.582-5.097 0.054-2.402-0.206-4.711-0.724-6.91-4.899 2.469-9.778 4.964-14.658 7.469-4e-3 0.051 1e-3 0.1-3e-3 0.151-0.711 8.841-8.602 12.177-16.497 11.462-0.012 0.154-0.079 0.304-0.235 0.425-4.239 3.297-8.91 6.196-13.474 9.046 1.082 0.882 2.226 1.685 3.423 2.4m12.245 3.748c0.957 0.045 1.902 0.029 2.839-0.019-0.088-0.16-0.07-0.367 0.146-0.488 7.327-4.127 14.593-8.292 21.762-12.689 0.269-0.166 0.524-0.134 0.728-0.014 1.4-2.194 2.525-4.583 3.283-7.139-10.839 6.534-21.61 13.128-32.293 19.921 1.157 0.221 2.333 0.372 3.535 0.428m23.708-10.743c-6.346 3.942-12.944 7.55-19.744 10.632 7.942-0.724 14.997-4.697 19.744-10.632m-2.78 6.174c-10.52 8.288-25.976 9.153-36.829 1.053-9.63-7.189-15.041-20.139-12.046-31.972 2.88-11.375 14.278-22.238 26.429-23.047 0.184-0.234 0.461-0.402 0.84-0.419 13.098-0.588 25.973 6.837 30.837 19.274 4.761 12.177 1.103 26.971-9.231 35.111" fill="#1c1c1b"/>
   </g>
   <g transform="translate(324.77 182.63)">
    <path d="m0 0c-14.522-0.019-29.139-0.352-43.64-1.159-4e-3 0-7e-3 -3e-3 -0.011-3e-3 0.126 1.217 0.23 2.439 0.338 3.66 0.072-0.035 0.154-0.059 0.251-0.06 14.261-0.288 28.766-0.163 43.005 0.665 0.11 5e-3 0.203 0.035 0.287 0.072 0.012-1.075 0.018-2.152 0.03-3.227-0.087 0.018-0.161 0.052-0.26 0.052m-42.835 8.557c0.08-0.133 0.213-0.238 0.411-0.255 14.126-1.216 28.517-0.546 42.6 0.932 0.015-1.55 0.026-3.101 0.042-4.652-0.082 0.03-0.169 0.056-0.275 0.058-14.263 0.245-28.765-0.225-43.005-1.093-0.059-3e-3 -0.107-0.024-0.157-0.04 0.143 1.68 0.27 3.363 0.384 5.05m42.775 27.049c-13.918-0.102-27.768 0.283-41.672 0.709 0.021 0.769 0.044 1.536 0.067 2.304 13.797-1.223 27.749-1.395 41.586-0.881 7e-3 -0.711 0.013-1.421 0.019-2.132m-42.428-20.78c0.021-3e-3 0.038-0.013 0.06-0.013 14.206-0.206 28.362 0.032 42.546 0.857 0.016-1.604 0.028-3.206 0.044-4.809-14.214-1.339-28.322-1.488-42.586-1.524-0.167 0-0.29-0.061-0.373-0.151 0.124 1.877 0.213 3.758 0.309 5.64m42.439 14.155c-13.948 1e-3 -27.991-0.173-41.926-0.951 0.074 2.367 0.139 4.716 0.207 7.077 13.807-1.472 27.859-1.797 41.725-1.384 0.015-1.584 0.027-3.167 0.043-4.751-0.019 1e-3 -0.03 9e-3 -0.049 9e-3m0.111-7.024c0.014-1.495 0.026-2.988 0.041-4.483-14.167-0.713-28.352-1.353-42.531-1.753-4e-3 0-7e-3 -3e-3 -0.011-3e-3 0.093 1.906 0.17 3.815 0.244 5.723 8.636-0.257 17.278-0.283 25.918-0.329 4.058-0.021 8.117-0.059 12.175-0.032 1.573 0.012 2.892-0.331 4.05 0.72 0.046 0.042 0.08 0.1 0.114 0.157m-0.253 1.272c-0.268 0.371-0.739 0.558-1.165 0.305-0.103-0.06-0.206-0.122-0.307-0.182-0.36-0.214-0.456-0.553-0.387-0.862-0.942 0.219-2.047 0.397-2.052 0.397-1.966 0.191-4.101 6e-3 -6.087 1e-3 -3.653-9e-3 -7.306-0.034-10.958-0.052-7.001-0.034-14.003-0.092-21.001-0.297 0.054 1.48 0.092 2.956 0.139 4.435 13.959-0.392 28.01-0.175 41.96 0.214 0.025 0 0.041 0.012 0.065 0.015 0.013-1.439 0.024-2.877 0.038-4.315-0.081 0.113-0.163 0.226-0.245 0.341m-0.438 19.102c0.193 8e-3 0.362 0.054 0.508 0.124 8e-3 -0.953 0.017-1.907 0.025-2.861-13.864-0.38-27.675-0.245-41.54 0.035 0.032 1.073 0.063 2.149 0.094 3.216 4e-3 0.114-0.029 0.202-0.051 0.299 13.554-1.184 27.386-1.394 40.964-0.813m2.767 0.546c-0.087 0.926-1.018 1.264-1.659 0.985-0.111 0.47-0.469 0.869-1.108 0.87-14.134 0.036-28.24 0.277-42.371 0.482-1.017 0.015-1.182-1.15-0.59-1.687-0.149-0.176-0.264-0.393-0.278-0.682-0.783-14.856-1.889-30.012-1.512-44.884 0.02-0.745 0.737-0.941 1.22-0.658 0.134-0.108 0.299-0.187 0.52-0.191 14.517-0.261 29.131-0.043 43.64 0.486 0.303 0.011 0.528 0.127 0.712 0.279 0.463-0.205 1.133 0.041 1.203 0.714 1.525 14.495 1.591 29.772 0.223 44.286" fill="#1c1c1b"/>
   </g>
   <g transform="translate(82.345 172.37)">
    <path d="m0 0c-7.767 13.055-15.939 26.932-26.084 38.291-0.304 0.342-0.722 0.266-1 0.025-0.266-0.025-0.531-0.151-0.708-0.442-7.919-12.701-16.091-25.275-23.782-38.103-0.392-0.631 0.253-1.188 0.822-1.049 4.491-0.379 9.222-0.57 13.7-0.215 0.556 0.038 0.835 0.43 0.873 0.835 0.152 0.038 0.316 0.138 0.43 0.316 3.58 5.465 7.008 11.398 9.462 17.483 3.365-6.465 7.388-12.613 11.233-18.811 0.342-0.557 0.949-0.582 1.392-0.329 3.997-0.215 8.033-0.24 12.03-0.165 0.456 0 0.747 0.266 0.861 0.595 0.657 0.127 1.214 0.822 0.771 1.569" fill="#77c8d0"/>
   </g>
   <g transform="translate(69.622 158.17)">
    <path d="m0 0c-0.777 1.263-1.553 2.53-2.329 3.798 0.04-0.012 0.077-0.027 0.124-0.029 3.703-0.174 7.417-0.337 11.125-0.304 0.705-1.097 1.41-2.193 2.096-3.301-3.663 0.053-7.356 0.027-11.016-0.164m5.176 9.19c0.915-1.37 1.822-2.746 2.72-4.127-3.367-1e-3 -6.739-0.144-10.101-0.302-0.279-0.013-0.429-0.2-0.464-0.408-1.053 1.716-2.11 3.433-3.183 5.139 3.632-0.373 7.377-0.403 11.028-0.302m-14.692 5.95c3.587-0.377 7.277-0.339 10.884-0.286 0.929-1.364 1.841-2.738 2.762-4.107-3.505 0.073-7.078 0.017-10.536-0.375-1.016 1.604-2.045 3.198-3.11 4.768m-2.814 4.004c-0.134 0.181-0.309 0.258-0.483 0.271-0.408 0.287-1.057 0.297-1.347-0.223-0.549-0.98-1.072-1.98-1.602-2.976-0.142 0.113-0.327 0.18-0.549 0.144-3.299-0.515-6.548-0.833-9.859-0.854 0.994 1.556 1.982 3.117 2.962 4.682 6.847-0.345 13.731-0.202 20.546 0.567 0.978-1.432 1.958-2.862 2.936-4.295-3.484 0.048-7.029 0.055-10.463-0.361-0.707 1.02-1.403 2.048-2.141 3.045m-6.888-9.699c-3.686 0.015-7.376-0.082-11.058-0.233 1.16 1.757 2.319 3.515 3.457 5.287 3.475-0.266 6.975-0.153 10.404 0.502-0.958-1.835-1.879-3.696-2.803-5.556m-2.431-4.872c-0.043 8e-3 -0.082 0.025-0.129 0.023-3.968-0.157-7.881-0.387-11.85-0.349 0.908 1.335 1.83 2.659 2.724 4.005 0.067-0.036 0.143-0.063 0.236-0.066 3.561-0.151 7.128-0.24 10.693-0.241-0.557-1.128-1.118-2.246-1.674-3.372m-1.891-3.804c-8e-3 -0.018-7e-3 -0.033-0.014-0.049-0.036 6e-3 -0.062 0.022-0.101 0.026-4.066 0.317-8.33 0.184-12.438-0.123 0.577 0.824 1.131 1.669 1.7 2.5 3.96-0.364 8.085-0.441 12.049 0.054-0.399-0.802-0.793-1.613-1.196-2.408m3.981 25.3c0.076-0.06 0.165-0.109 0.281-0.124 4.303-0.539 8.738-0.42 13.054 0.053 0.843-1.254 1.698-2.502 2.549-3.751-6.289-0.497-12.562-0.869-18.873-0.996 1 1.603 2 3.208 2.989 4.818m3.158 5.162c0.063-0.079 0.157-0.137 0.282-0.151 2.143-0.23 4.257-0.145 6.35 0.265 0.862-1.326 1.734-2.647 2.613-3.963-3.951-0.328-7.867-0.402-11.845-0.401 0.867 1.417 1.74 2.831 2.6 4.25m3.268 5.406c0.904-1.465 1.828-2.919 2.762-4.366-1.86-0.35-3.735-0.497-5.645-0.403 0.961 1.59 1.93 3.178 2.883 4.769m26.525-36.222c-7.757 13.059-15.929 26.936-26.082 38.293-0.297 0.333-0.721 0.262-0.998 0.02-0.265-0.024-0.524-0.15-0.706-0.442-7.915-12.697-16.088-25.269-23.789-38.097-0.385-0.641 0.262-1.187 0.827-1.054 4.485-0.377 9.219-0.565 13.701-0.214 0.554 0.043 0.838 0.433 0.868 0.841 0.162 0.034 0.317 0.13 0.436 0.311 3.579 5.46 7.01 11.393 9.457 17.485 3.37-6.467 7.392-12.618 11.231-18.808 0.346-0.558 0.955-0.585 1.4-0.336 3.995-0.219 8.033-0.237 12.029-0.169 0.456 8e-3 0.741 0.271 0.859 0.599 0.654 0.129 1.209 0.824 0.767 1.571" fill="#1c1c1b"/>
   </g>
   <g transform="translate(284.91 255.97)">
    <path d="m0 0c-0.076 5.642-0.367 11.258-0.316 16.9 0 0.494-0.228 0.81-0.544 0.975 0.898 0.606 0.683 2.352-0.683 2.352-20.771 0.089-41.531 0.177-62.302 0.266-20.696 0.089-41.632 1.063-62.301-0.051-0.469-0.025-0.747-0.291-0.874-0.607-0.468-0.088-0.872-0.43-0.872-1.037 0.012-5.895-0.114-11.816 0.164-17.71 0.013-0.076 0.038-0.139 0.051-0.215-0.177-0.557 0.114-1.278 0.898-1.278 42.238-0.215 84.262 0.443 126.48-1.973 1.468-0.076 1.556 2.011 0.304 2.378" fill="#eb3398"/>
   </g>
   <g transform="translate(272.95 265.84)">
    <path d="m0 0c0.398 5.732 0.493 11.517 0.472 17.262 1.344-5e-3 2.689-0.011 4.034-0.016-0.189-0.189-0.33-0.437-0.357-0.769-0.439-5.472-0.362-11.277 0.688-16.725-1.608 0.092-3.225 0.165-4.837 0.248m-8.104 17.295v2e-3c2.247-9e-3 4.494-0.019 6.741-0.027-0.022-5.733 0.073-11.504 0.468-17.224-2.264 0.116-4.524 0.241-6.792 0.348 0.553 5.612 0.509 11.333-0.417 16.901m-0.756-16.847c-1.885 0.088-3.769 0.179-5.656 0.263 1.039 5.384 1.412 11.16 0.921 16.608 1.328-6e-3 2.657-0.011 3.986-0.016-0.016-0.068-0.034-0.136-0.026-0.215 0.563-5.572 0.907-11.05 0.775-16.64m-6.618 0.306c-1.547 0.068-3.093 0.142-4.642 0.208 0.264 5.449 0.256 10.929 0.251 16.382l4.69-0.019c-0.036-5.54-0.088-11.033-0.299-16.571m-10.311 0.453c0.189 5.298 0.224 10.606 0.286 15.908 1e-3 0.096-0.027 0.173-0.05 0.253 1.35-6e-3 2.7-0.012 4.05-0.017-5e-3 -5.439-0.013-10.905 0.249-16.34-1.513 0.063-3.022 0.136-4.535 0.196m-6.148 0.253c0.27 4.969-0.058 10.066-0.272 15.034-0.043 1.011-1.606 1.021-1.58 0 0.127-4.963 0.154-10.063 0.759-14.995-1.751 0.062-3.501 0.13-5.253 0.186 0.945 5.237 0.929 10.49 0.035 15.734l11.044-0.045c-0.024-0.082-0.051-0.161-0.05-0.259 0.062-5.285 0.097-10.577 0.284-15.86-1.656 0.065-3.309 0.146-4.967 0.205m-7.455 0.261c-1.325 0.042-2.65 0.092-3.977 0.13-0.056 5.084-0.228 10.191-0.522 15.264-6e-3 0.125-0.039 0.232-0.085 0.327 1.383-5e-3 2.765-0.011 4.147-0.017 0.894-5.254 0.996-10.418 0.437-15.704m-11.038 0.331c0.154 5.136 0.278 10.277 0.262 15.415 1.566-6e-3 3.132-0.012 4.698-0.019-0.037-0.096-0.058-0.206-0.053-0.333 0.199-5.074 0.524-10.168 0.96-15.23-1.956 0.054-3.911 0.122-5.867 0.167m-6.475 0.157c0.147 5.085-0.047 10.202-0.276 15.285 0.06 0 0.12 1e-3 0.181 1e-3l5.075-0.021c-0.016-5.131 0.109-10.263 0.261-15.391-1.747 0.038-3.494 0.095-5.241 0.126m-6.236 0.124c0.551 4.911 0.406 9.898-0.152 14.801-0.015 0.131-0.056 0.245-0.111 0.345 1.5 4e-3 3 8e-3 4.5 0.011 0.247-5.089 0.533-10.207 1.153-15.264-1.797 0.031-3.594 0.086-5.39 0.107m-8.865 0.068c0.318 4.971 0.472 10.087 0.225 15.058 2.257 0.015 4.504 9e-3 6.757 0.017-0.03-0.101-0.045-0.212-0.03-0.342 0.577-4.939 0.707-9.831 0.714-14.792-2.556 0.027-5.112 0.052-7.666 0.059m-6.584 7e-3c0.553 4.849 0.834 9.841 0.404 14.704-0.01 0.117-0.041 0.219-0.086 0.306 1.65 0.012 3.299 0.02 4.95 0.032-0.247-4.968-0.093-10.079 0.225-15.048-1.831 3e-3 -3.663 0.015-5.493 6e-3m-1.048-6e-3c-1.861-0.011-3.724-0.01-5.585-0.034 0.21 4.935 0.569 10.071 0.209 15.008 1.802 8e-3 3.6 0.022 5.401 0.034-0.034-0.086-0.056-0.184-0.056-0.298 1e-3 -4.908 0.146-9.8 0.031-14.71m-11.871-0.117c0.496 4.882 0.422 10.286-0.623 15.027-4e-3 0.02-0.017 0.032-0.023 0.052 1.833-5e-3 3.667 4e-3 5.501 0.01-0.36-4.943-1e-3 -10.082 0.209-15.022-1.688-0.024-3.377-0.032-5.064-0.067m-7.75-0.177c0.343 4.982 0.406 10.014 0.406 15.007 0 0.106-0.029 0.193-0.057 0.28 1.757-0.022 3.515-0.017 5.272-0.024-0.029-0.082-0.049-0.17-0.045-0.269 0.155-4.929 0.607-9.908 0.895-14.846-2.157-0.049-4.316-0.079-6.471-0.148m-6.963-0.259c7e-3 0.031 0.022 0.055 0.025 0.088 0.426 5.175 0.89 10.376 1.017 15.568 1.531-0.036 3.064-0.06 4.597-0.083-0.033-0.093-0.063-0.19-0.063-0.307 0-5.005 0.063-10.049 0.409-15.043-1.996-0.067-3.992-0.138-5.985-0.223m-1.072-0.05c-1.707-0.075-3.415-0.148-5.121-0.237 0.027 2.865 0.022 5.728-0.039 8.593-0.053 2.519 0.176 5.158-0.456 7.603 2.054-0.089 4.11-0.154 6.168-0.211-0.405-5.185-0.473-10.412-0.576-15.61-1e-3 -0.052 0.014-0.093 0.024-0.138m-11.678-0.609c0.249 5.607 0.148 11.247 0.149 16.859 1.698-0.103 3.401-0.174 5.103-0.251-0.52-2.471-0.166-5.126-0.096-7.643 0.081-2.886 0.217-5.768 0.386-8.651-1.848-0.1-3.696-0.198-5.542-0.314m125.82-1.611c-0.073 5.636-0.365 11.251-0.315 16.898 4e-3 0.49-0.23 0.803-0.544 0.979 0.901 0.598 0.687 2.342-0.682 2.348-20.768 0.09-41.535 0.179-62.303 0.269-20.695 0.09-41.637 1.063-62.304-0.057-0.461-0.025-0.748-0.286-0.869-0.607-0.464-0.09-0.871-0.423-0.87-1.034 5e-3 -5.894-0.12-11.821 0.165-17.709 4e-3 -0.081 0.033-0.143 0.051-0.212-0.185-0.567 0.103-1.281 0.89-1.285 42.242-0.211 84.267 0.449 126.48-1.968 1.465-0.083 1.548 2.003 0.296 2.378" fill="#1c1c1b"/>
   </g>
  </g>
 </g>
</svg>
