<svg version="1.1" viewBox="0 0 126.92 87.595" xmlns="http://www.w3.org/2000/svg">
 <g transform="translate(2.2806 -18.709)">
  <g transform="translate(-28.119,5.6233)">
   <polyline points="76.716 82.922 63.458 96.18 50.199 82.922" fill="#ffd00b"/>
  </g>
  <g transform="translate(-2.2346 2.2657)">
   <path d="m125.42 74.633c0 6.702-5.434 12.137-12.136 12.137h-99.644c-6.701 0-12.135-5.435-12.135-12.137v-29.078c0-6.703 5.434-12.136 12.135-12.136h99.644c6.702 0 12.136 5.433 12.136 12.136z" fill="#ffd00b"/>
  </g>
  <g transform="translate(-2.2816,3.0421)">
   <path d="m113.28 88.27h-99.644c-7.518 0-13.635-6.118-13.635-13.637v-29.078c0-7.519 6.117-13.636 13.635-13.636h99.644c7.519 0 13.636 6.117 13.636 13.636v29.078c0 7.519-6.117 13.637-13.636 13.637zm-99.644-53.351c-5.864 0-10.635 4.771-10.635 10.636v29.078c0 5.865 4.771 10.637 10.635 10.637h99.644c5.865 0 10.636-4.771 10.636-10.637v-29.078c0-5.865-4.771-10.636-10.636-10.636z" fill="#33363a"/>
  </g>
  <g transform="translate(-31.345,7.3499)">
   <path d="m63.458 97.68c-0.384 0-0.768-0.146-1.061-0.439l-13.258-13.259c-0.586-0.585-0.586-1.535 0-2.121s1.535-0.586 2.121 0l12.198 12.197 12.198-12.197c0.586-0.586 1.535-0.586 2.121 0s0.586 1.536 0 2.121l-13.259 13.258c-0.293 0.293-0.677 0.44-1.06 0.44z" fill="#33363a"/>
  </g>
  <g transform="matrix(1 0 0 .9598 13.762 1.5999)" fill="#33363a">
   <path d="m63.459 26.65c-0.829 0-1.5-0.672-1.5-1.5l1e-3 -5.824c0-0.828 0.672-1.5 1.5-1.5s1.5 0.672 1.5 1.5l-1e-3 5.824c0 0.829-0.672 1.5-1.5 1.5z"/>
   <path d="m46.612 27.635c-0.384 0-0.768-0.146-1.061-0.44l-4.123-4.127c-0.585-0.586-0.585-1.536 1e-3 -2.121s1.536-0.585 2.121 1e-3l4.123 4.127c0.585 0.586 0.585 1.536-1e-3 2.121-0.293 0.292-0.676 0.439-1.06 0.439z"/>
   <path d="m80.309 27.636c-0.383 0-0.767-0.146-1.06-0.438-0.586-0.585-0.587-1.535-1e-3 -2.122l4.12-4.126c0.585-0.585 1.535-0.588 2.122-1e-3 0.586 0.585 0.587 1.535 1e-3 2.122l-4.12 4.126c-0.293 0.292-0.678 0.439-1.062 0.439z"/>
   <path d="m63.455 109.09c-0.829 0-1.5-0.672-1.5-1.5l1e-3 -5.824c0-0.828 0.672-1.5 1.5-1.5s1.5 0.672 1.5 1.5l-1e-3 5.824c0 0.828-0.672 1.5-1.5 1.5z"/>
   <path d="m84.426 106.41c-0.384 0-0.768-0.146-1.061-0.44l-4.123-4.127c-0.585-0.586-0.585-1.536 1e-3 -2.121s1.535-0.585 2.121 1e-3l4.123 4.127c0.585 0.586 0.585 1.536-1e-3 2.121-0.293 0.293-0.676 0.439-1.06 0.439z"/>
   <path d="m42.486 106.4c-0.383 0-0.767-0.146-1.06-0.438-0.586-0.585-0.587-1.535-1e-3 -2.122l4.12-4.126c0.584-0.586 1.534-0.587 2.122-1e-3 0.586 0.585 0.587 1.535 1e-3 2.122l-4.12 4.126c-0.293 0.292-0.677 0.439-1.062 0.439z"/>
  </g>
  <path d="m20.616 48.856v3.4377h-3.578v3.4402h-3.3789v10.465h3.578v3.4892h3.5278v3.293h17.643v-13.758h-10.535v3.5358h3.4775v6.7357h-7.1058v-3.5382h-3.4795v-10.318h3.6283v-3.4402h14.015v-3.3421zm29.306 0v3.5358h7.0073v17.198h-7.0073v3.3911h21.221v-3.5358h-7.0073v-17.247h7.0073v-3.3421zm38.252 0v3.4377h-3.578v3.4402h-3.3789v10.465h3.578v3.4892h3.5278v3.293h14.264v-3.4868h3.3789v-3.3445h-7.1561v3.3445h-7.0073v-3.5382h-3.4795v-10.318h3.6283v-3.3445h7.0073v3.3445h7.0073v-3.4892h-3.5278v-3.293z" fill="#33363a"/>
 </g>
</svg>
