<svg height="484pt" viewBox="0 -2 484.14268 484" width="484pt" xmlns="http://www.w3.org/2000/svg"><path d="m234.070312 8.070312h16c8.835938 0 16 7.164063 16 16v16h-48v-16c0-8.835937 7.164063-16 16-16zm0 0" fill="#cff09e"/><g fill="#a8dba8"><path d="m402.070312 224.070312v-104c0-44.183593-35.816406-80-80-80h-160c-44.183593 0-80 35.816407-80 80v104h-52c-11.042968 0-20 8.957032-20 20 0 11.046876 8.957032 20 20 20h52c22.09375 0 40-17.90625 40-40v-104c0-22.089843 17.910157-40 40-40h160c22.09375 0 40 17.910157 40 40v104c0 22.09375 17.910157 40 40 40h52c11.046876 0 20-8.953124 20-20 0-11.042968-8.953124-20-20-20zm0 0"/><path d="m34.070312 264.070312h48v160h-48zm0 0"/><path d="m402.070312 264.070312h48v160h-48zm0 0"/></g><path d="m34.070312 424.070312h48c13.257813 0 24 10.746094 24 24v24h-96v-24c0-13.253906 10.746094-24 24-24zm0 0" fill="#79bd9a"/><path d="m402.070312 424.070312h48c13.257813 0 24 10.746094 24 24v24h-96v-24c0-13.253906 10.746094-24 24-24zm0 0" fill="#79bd9a"/><path d="m242.070312 136.070312c8.113282-.007812 16.1875 1.09375 24 3.28125.082032-1.09375.082032-2.1875 0-3.28125 0-13.253906-10.742187-24-24-24-13.253906 0-24 10.746094-24 24-.082031 1.09375-.082031 2.1875 0 3.28125 7.8125-2.1875 15.886719-3.289062 24-3.28125zm0 0" fill="#a8dba8"/><path d="m146.070312 328.070312h192c8.835938 0 16 7.164063 16 16 0 8.835938-7.164062 16-16 16h-192c-8.835937 0-16-7.164062-16-16 0-8.835937 7.164063-16 16-16zm0 0" fill="#a8dba8"/><path d="m282.070312 360.070312c0 22.09375-17.90625 40-40 40-22.089843 0-40-17.90625-40-40zm0 0" fill="#cff09e"/><path d="m250.070312 304.070312c-30.925781 0-56-25.070312-56-56v-45.117187c.027344-23.855469 9.253907-46.78125 25.761719-64-38.726562 10.113281-65.75 45.089844-65.761719 85.117187v104h176v-24zm0 0" fill="#cff09e"/><path d="m298.070312 240.070312c0 30.929688-25.070312 56-56 56-30.925781 0-56-25.070312-56-56 0-30.925781 25.074219-56 56-56 30.929688 0 56 25.074219 56 56zm0 0" fill="#79bd9a"/><path d="m458.070312 417.113281v-145.042969c15.464844-1.105468 27.105469-14.535156 26-30-1.105468-15.464843-14.535156-27.105468-30-26h-44v-96c0-48.601562-39.398437-88-88-88h-48v-24c0-4.417968-3.582031-7.9999995-8-7.9999995h-48c-4.417968 0-8 3.5820315-8 7.9999995v24h-48c-48.601562 0-88 39.398438-88 88v96h-44c-15.464843-1.105468-28.894531 10.535157-29.9999995 26-1.1054685 15.464844 10.5351565 28.894532 25.9999995 30v145.042969c-14.117187 3.644531-23.988281 16.375-24 30.957031v24c0 4.417969 3.582032 8 8 8h96c4.417969 0 8-3.582031 8-8v-24c-.011718-14.582031-9.878906-27.3125-24-30.957031v-145.683593c23.109376-3.902344 40.015626-23.925782 40-47.359376v-104c0-17.671874 14.328126-32 32-32h72v17.042969c-13.242187 3.367188-22.882812 14.777344-24 28.398438-38.371093 13.566406-64.019531 49.859375-64 90.558593v96c-13.253906 0-24 10.746094-24 24 0 13.257813 10.746094 24 24 24h48.640626c3.824218 23.183594 23.867187 40.1875 47.359374 40.1875 23.496094 0 43.539063-17.003906 47.359376-40.1875h48.640624c13.257813 0 24-10.742187 24-24 0-13.253906-10.742187-24-24-24v-96c.023438-40.699218-25.625-76.992187-64-90.558593-1.113281-13.621094-10.753906-25.03125-24-28.398438v-17.042969h72c17.675782 0 32 14.328126 32 32v104c-.015624 23.433594 16.894532 43.457032 40 47.359376v145.683593c-14.117187 3.644531-23.988281 16.375-24 30.957031v24c0 4.417969 3.582032 8 8 8h96c4.417969 0 8-3.582031 8-8v-24c-.011718-14.582031-9.878906-27.3125-24-30.957031zm-216-25.042969c-14.582031-.011718-27.3125-9.878906-30.957031-24h61.917969c-3.644531 14.121094-16.375 23.988282-30.960938 24zm104-48c0 4.417969-3.582031 8-8 8h-192c-4.417968 0-8-3.582031-8-8 0-4.417968 3.582032-8 8-8h192c4.417969 0 8 3.582032 8 8zm-24-120v96h-160v-96c-.007812-35.53125 23.417969-66.8125 57.519532-76.800781h.960937c14.070313-3.996093 28.972657-3.996093 43.039063 0h.882812c34.132813 9.957031 57.597656 41.246094 57.597656 76.800781zm-65.597656-94.878906c-3.496094-.574218-7.023437-.949218-10.5625-1.121094h-8c-3.535156.144532-7.0625.492188-10.558594 1.042969 2.671876-5.523437 8.265626-9.027343 14.398438-9.027343s11.726562 3.503906 14.402344 9.027343zm153.597656 142.878906h32v144h-32zm-184-256h32v16h-32zm-152 400h-32v-144h32zm24 32v16h-80v-16c0-8.835937 7.164063-16 16-16h48c8.835938 0 16 7.164063 16 16zm272-224v-104c0-26.507812-21.488281-48-48-48h-160c-26.507812 0-48 21.492188-48 48v104c0 17.675782-14.324218 32-32 32h-52c-6.625 0-12-5.371093-12-12 0-6.625 5.375-12 12-12h52c4.417969 0 8-3.582031 8-8v-104c0-39.761718 32.238282-72 72-72h160c39.765626 0 72 32.238282 72 72v104c0 4.417969 3.582032 8 8 8h52c6.628907 0 12 5.375 12 12 0 6.628907-5.371093 12-12 12h-52c-17.671874 0-32-14.324218-32-32zm96 240h-80v-16c0-8.835937 7.164063-16 16-16h48c8.835938 0 16 7.164063 16 16zm0 0" fill="#3b8686"/><path d="m242.070312 176.070312c-35.34375 0-64 28.65625-64 64 0 35.347657 28.65625 64 64 64 35.347657 0 64-28.652343 64-64 0-35.34375-28.652343-64-64-64zm0 112c-26.507812 0-48-21.488281-48-48 0-26.507812 21.492188-48 48-48 26.511719 0 48 21.492188 48 48 0 26.511719-21.488281 48-48 48zm0 0" fill="#3b8686"/><path d="m242.070312 208.070312c-4.417968 0-8 3.582032-8 8v19.359376l-16.800781 9.683593c-2.484375 1.433594-4.007812 4.089844-4 6.957031-.007812 1.402344.351563 2.78125 1.042969 4 .984375 2.335938 3.226562 3.890626 5.757812 4 4.363282-.769531 8.492188-2.519531 12.082032-5.117187l13.839844-8c.320312-.140625.617187-.328125.878906-.5625v-.398437c1.003906-1.179688 1.640625-2.625 1.839844-4.160157 0 0 0 0 0-.480469v-25.28125c.058593-3.9375-2.757813-7.328124-6.640626-8zm0 0" fill="#3b8686"/></svg>