<svg height="480pt" viewBox="0 0 480.43927 480" width="480pt" xmlns="http://www.w3.org/2000/svg"><path d="m211.921875 229.578125c-4.453125 6.644531-11.921875 10.636719-19.921875 10.640625h-24c-8.835938 0-16-7.164062-16-16v-32h16v-16c0-8.835938-7.164062-16-16-16h-16v80c0 8.835938 7.164062 16 16 16h48c8.835938 0 16-7.164062 16-16-.007812-3.925781-1.460938-7.714844-4.078125-10.640625zm0 0" fill="#cff09e"/><path d="m40 256.21875v120h44v-84c0-2.207031 1.789062-4 4-4s4 1.792969 4 4v84h44v-120zm0 0" fill="#a8dba8"/><path d="m100 408.21875h52v-16c0-8.835938-7.164062-16-16-16h-44v24c0 4.417969 3.582031 8 8 8zm0 0" fill="#79bd9a"/><path d="m76 408.21875h-52v-16c0-8.835938 7.164062-16 16-16h44v24c0 4.417969-3.582031 8-8 8zm0 0" fill="#79bd9a"/><path d="m152 160.21875h-128c-8.835938 0-16 7.164062-16 16v24h32v56h96v-56h32v-24c0-8.835938-7.164062-16-16-16zm0 0" fill="#a8dba8"/><path d="m120 136.21875c-26.507812 0-48-21.488281-48-48-.035156-8 1.976562-15.875 5.839844-22.878906-21.691406 4.667968-37.355469 23.59375-37.886719 45.777344-.53125 22.179687 14.210937 41.835937 35.652344 47.535156 21.445312 5.703125 44-4.035156 54.554687-23.550782-3.335937.738282-6.742187 1.113282-10.160156 1.117188zm0 0" fill="#cff09e"/><path d="m408 208.21875c0 4.417969 3.582031 8 8 8s8-3.582031 8-8" fill="#ff5e5b"/><path d="m200 224.21875h32c8.835938 0 16 7.164062 16 16s-7.164062 16-16 16h-32c-8.835938 0-16-7.164062-16-16s7.164062-16 16-16zm0 0" fill="#a8dba8"/><path d="m416 40.21875c-13.253906 0-24-10.746094-24-24 .015625-2.355469.363281-4.699219 1.039062-6.960938-10.964843 3.316407-18.054687 13.921876-16.9375 25.320313 1.121094 11.398437 10.140626 20.417969 21.539063 21.539063 11.402344 1.121093 22.003906-5.972657 25.320313-16.9375-2.257813.675781-4.601563 1.027343-6.960938 1.039062zm0 0" fill="#cff09e"/><path d="m445.28125 120.21875h-40.960938c-5.683593-.0625-10.910156-3.136719-13.726562-8.074219-2.8125-4.941406-2.796875-11 .046875-15.925781 1.527344-2.699219 3.351563-5.222656 5.4375-7.519531-18.894531 1.5625-35.101563 14.101562-41.359375 32h-34.71875c-12.9375.074219-24.648438-7.648438-29.675781-19.570313-5.023438-11.925781-2.375-25.699218 6.714843-34.910156-33.097656 7.03125-56.835937 36.164062-57.039062 70h208c.007812-5.449219-.910156-10.859375-2.71875-16zm0 0" fill="#cff09e"/><path d="m24 200.21875v48c0 8.835938-7.164062 16-16 16 0 8.835938 7.164062 16 16 16h16v-80zm0 0" fill="#cff09e"/><g fill="#3b8686"><path d="m408 336.21875c-8.46875.003906-16.867188 1.519531-24.800781 4.480469l-35.679688-71.28125 27.679688 2.800781h.800781c2.339844 0 4.558594-1.023438 6.078125-2.800781 1.679687-1.960938 2.304687-4.613281 1.683594-7.117188l-8-32c-1.195313-4.128906-5.4375-6.578125-9.609375-5.546875s-6.78125 5.175782-5.914063 9.386719l5.28125 20.960937-68.71875-6.882812c-4.417969-.441406-8.359375 2.78125-8.800781 7.199219-.441406 4.421875 2.78125 8.359375 7.199219 8.800781l33.601562 3.28125 10.238281 20.71875h-104.960937l-12.796875-24h10.71875c13.253906 0 24-10.746094 24-24s-10.746094-24-24-24h-56v-40c0-13.253906-10.746094-24-24-24h-24.878906c16.292968-15.90625 21.332031-40.097656 12.742187-61.1875-8.585937-21.09375-29.089843-34.882812-51.863281-34.882812s-43.277344 13.789062-51.863281 34.882812c-8.589844 21.089844-3.550781 45.28125 12.742187 61.1875h-24.878906c-13.253906 0-24 10.746094-24 24v88c0 13.253906 10.746094 24 24 24h8v81.441406c-9.566406 3.382813-15.972656 12.414063-16 22.558594v16c0 4.417969 3.582031 8 8 8h72.480469c4.214843 36.3125 34.964843 63.699219 71.519531 63.699219s67.304688-27.386719 71.519531-63.699219h17.601563c3.3125 13.183594 14.59375 22.835938 28.128906 24.070312 13.535156 1.234376 26.375-6.21875 32.019531-18.585937 5.640625-12.367187 2.855469-26.949219-6.949219-36.363281l41.199219-72 17.359375 34.71875c-29.890625 19.65625-40.816406 58.28125-25.648437 90.683594 15.164062 32.402343 51.824219 48.753906 86.066406 38.390624 34.242187-10.367187 55.679687-44.300781 50.332031-79.675781-5.34375-35.371093-35.851562-61.457031-71.628906-61.238281zm-208-104h32c4.417969 0 8 3.582031 8 8s-3.582031 8-8 8h-32c-4.417969 0-8-3.582031-8-8s3.582031-8 8-8zm-64 152c4.417969 0 8 3.582031 8 8v8h-31.441406c.785156-5.554688 2.433594-10.953125 4.882812-16zm-27.839844-16h-12.160156v-76c0-4.417969-3.582031-8-8-8s-8 3.582031-8 8v76h-32v-104h80v84.160156c-7.832031 5.273438-14.566406 12.011719-19.839844 19.839844zm109.519532-76.800781c-.320313.363281-.589844.765625-.800782 1.203125l-24 48c-7.960937-2.941406-16.390625-4.433594-24.878906-4.402344-8.171875-.011719-16.289062 1.367188-24 4.082031v-77.519531c2.566406.929688 5.269531 1.417969 8 1.4375h51.199219zm-169.679688-179.199219c0-22.089844 17.910156-40 40-40s40 17.910156 40 40c0 22.09375-17.910156 40-40 40s-40-17.90625-40-40zm-24 160c-4.417969 0-8-3.582031-8-8v-88c0-4.417969 3.582031-8 8-8h128c4.417969 0 8 3.582031 8 8v48c0 4.417969 3.582031 8 8 8h9.441406c-1.917968 5.160156-1.917968 10.839844 0 16h-25.441406c-4.417969 0-8-3.582031-8-8v-40c0-4.417969-3.582031-8-8-8s-8 3.582031-8 8v40c.023438 2.730469.507812 5.433594 1.441406 8h-81.441406v-48c0-4.417969-3.582031-8-8-8s-8 3.582031-8 8v72zm8 120c0-4.417969 3.582031-8 8-8h40v16h-48zm64-8h4.078125c-1.808594 5.179688-3.015625 10.546875-3.597656 16h-.480469zm72 80c-27.84375.007812-51.460938-20.441406-55.441406-48h39.441406c4.417969 0 8-3.582031 8-8v-16c.003906-10.175781-6.40625-19.246094-16-22.640625v-11.917969c7.488281-3.601562 15.691406-5.460937 24-5.441406 5.984375.015625 11.925781.988281 17.601562 2.882812l-24.722656 49.519532c-1.246094 2.476562-1.125 5.421875.328125 7.785156 1.449219 2.363281 4.019531 3.804688 6.792969 3.8125h55.359375c-3.972656 27.527344-27.546875 47.96875-55.359375 48zm12.960938-64 19.039062-37.917969c12.695312 8.867188 21.152344 22.59375 23.359375 37.917969zm76.160156 0h-17.601563c-2.425781-21.410156-14.316406-40.605469-32.398437-52.320312l19.679687-39.277344 40 75.679687c-4.734375 4.226563-8.105469 9.769531-9.679687 15.917969zm30.878906 24c-8.835938 0-16-7.164062-16-16s7.164062-16 16-16c2.804688-.019531 5.5625.699219 8 2.082031 6.339844 3.589844 9.449219 11.011719 7.570312 18.050781-1.882812 7.039063-8.285156 11.917969-15.570312 11.867188zm8-46.71875c-2.59375-.804688-5.285156-1.234375-8-1.28125-2.285156.039062-4.558594.28125-6.800781.722656l-38.640625-72.722656h96zm112 86.71875c-24.445312-.023438-46.054688-15.898438-53.375-39.222656-7.324219-23.324219 1.328125-48.703125 21.375-62.695313l24.800781 49.519531c1.367188 2.714844 4.15625 4.421876 7.199219 4.398438 1.253906.015625 2.492188-.285156 3.601562-.878906 3.921876-1.996094 5.492188-6.785156 3.519532-10.71875l-24.722656-49.519532c21.046874-7.023437 44.253906-.960937 59.175781 15.457032 14.917969 16.421875 18.738281 40.101562 9.738281 60.378906-9.003906 20.28125-29.125 33.332031-51.3125 33.28125zm0 0"/><path d="m240 144.21875h208c4.417969 0 8-3.582031 8-8 0-30.925781-25.070312-56-56-56-8.878906-.023438-17.628906 2.089844-25.519531 6.160156-21.207031-26.519531-56.84375-36.761718-88.894531-25.550781-32.050782 11.210937-53.535157 41.4375-53.585938 75.390625 0 4.417969 3.582031 8 8 8zm72-72c21.683594.011719 41.890625 11.003906 53.679688 29.199219 1.179687 1.785156 3.023437 3.027343 5.121093 3.441406 2.140625.433594 4.367188-.03125 6.160157-1.28125 11.027343-7.777344 25.234374-9.472656 37.78125-4.503906 12.546874 4.96875 21.742187 15.925781 24.457031 29.144531h-190.71875c4.03125-32.007812 31.257812-56.011719 63.519531-56zm0 0"/><path d="m400 64.21875c17.671875 0 32-14.324219 32-32 0-17.671875-14.328125-32-32-32s-32 14.328125-32 32c0 17.675781 14.328125 32 32 32zm0-48c8.835938 0 16 7.164062 16 16s-7.164062 16-16 16-16-7.164062-16-16 7.164062-16 16-16zm0 0"/><path d="m288 166.460938c-4.382812-3.984376-10.078125-6.207032-16-6.242188-4.417969 0-8 3.582031-8 8s3.582031 8 8 8 8 3.582031 8 8 3.582031 8 8 8 8-3.582031 8-8 3.582031-8 8-8 8-3.582031 8-8-3.582031-8-8-8c-5.921875.035156-11.617188 2.257812-16 6.242188zm0 0"/><path d="m416 190.460938c-4.382812-3.984376-10.078125-6.207032-16-6.242188-4.417969 0-8 3.582031-8 8s3.582031 8 8 8 8 3.582031 8 8 3.582031 8 8 8 8-3.582031 8-8 3.582031-8 8-8 8-3.582031 8-8-3.582031-8-8-8c-5.921875.035156-11.617188 2.257812-16 6.242188zm0 0"/></g></svg>