<svg height="480pt" viewBox="-15 0 479 480" width="480pt" xmlns="http://www.w3.org/2000/svg"><path d="m344.5 376c-26.507812 0-48 21.492188-48 48 0-26.507812-21.492188-48-48-48s-48 21.492188-48 48c0-26.507812-21.492188-48-48-48s-48 21.492188-48 48c0-26.507812-21.492188-48-48-48s-48 21.492188-48 48v48h384v-48c0-26.507812-21.492188-48-48-48zm0 0" fill="#a8dba8"/><path d="m440.5 472c0-26.507812-21.492188-48-48-48s-48 21.492188-48 48c0-26.507812-21.492188-48-48-48s-48 21.492188-48 48c0-26.507812-21.492188-48-48-48s-48 21.492188-48 48c0-26.507812-21.492188-48-48-48s-48 21.492188-48 48" fill="#79bd9a"/><path d="m240.5 56v-32c0-8.835938-7.164062-16-16-16s-16 7.164062-16 16v32zm0 0" fill="#79bd9a"/><path d="m160.476562 237.972656c7.652344 4.417969 10.273438 14.203125 5.855469 21.855469l-44 76.210937c-4.417969 7.652344-14.203125 10.273438-21.855469 5.855469-7.652343-4.417969-10.273437-14.203125-5.855468-21.855469l44-76.210937c4.417968-7.652344 14.203125-10.273437 21.855468-5.855469zm0 0" fill="#79bd9a"/><path d="m352.488281 341.867188c-7.652343 4.417968-17.4375 1.796874-21.859375-5.855469l-44-76.210938c-4.417968-7.652343-1.792968-17.4375 5.859375-21.855469 7.652344-4.417968 17.4375-1.796874 21.855469 5.855469l44 76.210938c4.417969 7.652343 1.796875 17.4375-5.855469 21.855469zm0 0" fill="#79bd9a"/><path d="m224.5 224c8.835938 0 16 7.164062 16 16v96c0 8.835938-7.164062 16-16 16s-16-7.164062-16-16v-96c0-8.835938 7.164062-16 16-16zm0 0" fill="#79bd9a"/><path d="m168.5 40h112c4.417969 0 8 3.582031 8 8v16c0 4.417969-3.582031 8-8 8h-112c-4.417969 0-8-3.582031-8-8v-16c0-4.417969 3.582031-8 8-8zm0 0" fill="#a8dba8"/><path d="m280.5 112h32c4.417969 0 8 3.582031 8 8v32c0 4.417969-3.582031 8-8 8h-32c-4.417969 0-8-3.582031-8-8v-32c0-4.417969 3.582031-8 8-8zm0 0" fill="#cff09e"/><path d="m215.140625 224c-70.691406 0-128-57.308594-128-128v-40h-22.640625c-8.835938 0-16 7.164062-16 16v184c0 8.835938 7.164062 16 16 16h320c8.835938 0 16-7.164062 16-16v-32zm0 0" fill="#cff09e"/><path d="m104.5 256h240c4.417969 0 8 3.582031 8 8v16c0 4.417969-3.582031 8-8 8h-240c-4.417969 0-8-3.582031-8-8v-16c0-4.417969 3.582031-8 8-8zm0 0" fill="#a8dba8"/><g fill="#3b8686"><path d="m400.019531 416.480469c-3.191406-23.566407-20.921875-42.546875-44.214843-47.335938-23.296876-4.785156-47.074219 5.660157-59.304688 26.054688-10.125-16.847657-28.34375-27.15625-48-27.15625s-37.875 10.308593-48 27.15625c-10.125-16.847657-28.34375-27.15625-48-27.15625s-37.875 10.308593-48 27.15625c-12.957031-21.5625-38.703125-31.835938-62.945312-25.125-24.242188 6.714843-41.035157 28.769531-41.054688 53.925781 0 4.417969 3.582031 8 8 8s8-3.582031 8-8c-.121094-20.75 15.644531-38.148438 36.304688-40.066406 20.664062-1.917969 39.359374 12.285156 43.054687 32.707031-27.273437 4.257813-47.375 27.753906-47.359375 55.359375 0 4.417969 3.582031 8 8 8s8-3.582031 8-8c0-22.089844 17.910156-40 40-40s40 17.910156 40 40c0 4.417969 3.582031 8 8 8s8-3.582031 8-8c0-22.089844 17.910156-40 40-40s40 17.910156 40 40c0 4.417969 3.582031 8 8 8s8-3.582031 8-8c0-22.089844 17.910156-40 40-40s40 17.910156 40 40c0 4.417969 3.582031 8 8 8s8-3.582031 8-8c0-22.089844 17.910156-40 40-40s40 17.910156 40 40c0 4.417969 3.582031 8 8 8s8-3.582031 8-8c.011719-28.03125-20.703125-51.753906-48.480469-55.519531zm-247.519531 26.71875c-8.53125-14.253907-22.949219-23.980469-39.359375-26.558594 3.445313-19.035156 20.015625-32.875 39.359375-32.875s35.914062 13.839844 39.359375 32.875c-16.410156 2.578125-30.828125 12.304687-39.359375 26.558594zm96 0c-8.53125-14.253907-22.949219-23.980469-39.359375-26.558594 3.445313-19.035156 20.015625-32.875 39.359375-32.875s35.914062 13.839844 39.359375 32.875c-16.410156 2.578125-30.828125 12.304687-39.359375 26.558594zm96 0c-8.53125-14.253907-22.949219-23.980469-39.359375-26.558594 3.445313-19.035156 20.015625-32.875 39.359375-32.875s35.914062 13.839844 39.359375 32.875c-16.410156 2.578125-30.828125 12.304687-39.359375 26.558594zm0 0"/><path d="m112.5 136h48c4.417969 0 8-3.582031 8-8s-3.582031-8-8-8h-48c-4.417969 0-8 3.582031-8 8s3.582031 8 8 8zm0 0"/><path d="m96.5 176h64c4.417969 0 8-3.582031 8-8s-3.582031-8-8-8h-64c-4.417969 0-8 3.582031-8 8s3.582031 8 8 8zm0 0"/><path d="m96.5 208h16c4.417969 0 8-3.582031 8-8s-3.582031-8-8-8h-16c-4.417969 0-8 3.582031-8 8s3.582031 8 8 8zm0 0"/><path d="m272.5 168h48c4.417969 0 8-3.582031 8-8v-48c0-4.417969-3.582031-8-8-8h-48c-4.417969 0-8 3.582031-8 8v48c0 4.417969 3.582031 8 8 8zm8-48h32v32h-32zm0 0"/><path d="m264.5 200h24c4.417969 0 8-3.582031 8-8s-3.582031-8-8-8h-24c-4.417969 0-8 3.582031-8 8s3.582031 8 8 8zm0 0"/><path d="m312.5 192c0 4.417969 3.582031 8 8 8h16c4.417969 0 8-3.582031 8-8s-3.582031-8-8-8h-16c-4.417969 0-8 3.582031-8 8zm0 0"/><path d="m352.5 160c4.417969 0 8-3.582031 8-8v-32c0-4.417969-3.582031-8-8-8s-8 3.582031-8 8v32c0 4.417969 3.582031 8 8 8zm0 0"/><path d="m64.5 280h24v8c0 4.417969 3.582031 8 8 8h2.71875l-11.519531 20c-3.191407 5.519531-4.054688 12.082031-2.398438 18.238281 2.507813 9.394531 10.433594 16.34375 20.070313 17.605469 9.640625 1.261719 19.089844-3.414062 23.929687-11.84375l25.359375-44h45.839844v40c0 13.253906 10.746094 24 24 24s24-10.746094 24-24v-40h49.839844l25.359375 44c3.175781 5.515625 8.414062 9.546875 14.5625 11.199219 2.035156.539062 4.132812.808593 6.238281.800781 4.207031-.015625 8.339844-1.121094 12-3.199219 5.519531-3.179687 9.546875-8.425781 11.199219-14.578125 1.648437-6.152344.785156-12.707031-2.398438-18.222656l-11.601562-20c3.945312-.597656 6.847656-4.011719 6.800781-8v-8h24c13.253906 0 24-10.746094 24-24v-184c0-13.253906-10.746094-24-24-24h-88v-8c0-4.417969-3.582031-8-8-8h-40v-8c0-13.253906-10.746094-24-24-24s-24 10.746094-24 24v8h-40c-4.417969 0-8 3.582031-8 8v8h-88c-13.253906 0-24 10.746094-24 24v184c0 13.253906 10.746094 24 24 24zm280 0h-240v-16h240zm-229.039062 52c-1.058594 1.855469-2.816407 3.207031-4.882813 3.761719-2.054687.507812-4.226563.222656-6.078125-.800781-1.855469-1.058594-3.207031-2.816407-3.761719-4.882813-.550781-2.050781-.261719-4.238281.800781-6.078125l16-28h18.960938zm117.039062 4c0 4.417969-3.582031 8-8 8s-8-3.582031-8-8v-40h16zm120-5.921875c-.550781 2.066406-1.90625 3.824219-3.761719 4.882813-1.839843 1.0625-4.027343 1.351562-6.078125.800781-2.0625-.554688-3.820312-1.90625-4.878906-3.761719l-20.960938-36h18.480469l16 28c1.160157 1.800781 1.589844 3.972656 1.199219 6.078125zm-136-306.078125c0-4.417969 3.582031-8 8-8s8 3.582031 8 8v8h-16zm-48 24h112v16h-112zm-112 24c0-4.417969 3.582031-8 8-8h88v8c0 4.417969 3.582031 8 8 8h128c4.417969 0 8-3.582031 8-8v-8h88c4.417969 0 8 3.582031 8 8v184c0 4.417969-3.582031 8-8 8h-24v-8c0-4.417969-3.582031-8-8-8h-256c-4.417969 0-8 3.582031-8 8v8h-24c-4.417969 0-8-3.582031-8-8zm0 0"/></g></svg>