<svg height="480pt" viewBox="0 -3 480 480" width="480pt" xmlns="http://www.w3.org/2000/svg"><path d="m461.679688 130.109375-208-120c-4.183594-2.355469-9.207032-2.707031-13.679688-.960937-4.519531-1.800782-9.613281-1.445313-13.839844.960937l-208 120c-5.207031 2.726563-8.503906 8.085937-8.582031 13.960937-.078125 5.878907 3.070313 11.324219 8.199219 14.1875 5.132812 2.867188 11.421875 2.683594 16.382812-.46875l205.839844-118.71875 205.679688 118.71875c7.597656 3.976563 16.976562 1.253907 21.269531-6.167968 4.289062-7.425782 1.96875-16.910156-5.269531-21.511719zm0 0" fill="#79bd9a"/><path d="m144 162.109375h80c8.835938 0 16 7.164063 16 16v272c0 8.835937-7.164062 16-16 16h-80c-8.835938 0-16-7.164063-16-16v-272c0-8.835937 7.164062-16 16-16zm0 0" fill="#79bd9a"/><path d="m256 138.109375h40c8.835938 0 16 7.164063 16 16v296c0 8.835937-7.164062 16-16 16h-40c-8.835938 0-16-7.164063-16-16v-296c0-8.835937 7.164062-16 16-16zm0 0" fill="#a8dba8"/><path d="m328 186.109375h56c8.835938 0 16 7.164063 16 16v248c0 8.835937-7.164062 16-16 16h-56c-8.835938 0-16-7.164063-16-16v-248c0-8.835937 7.164062-16 16-16zm0 0" fill="#cff09e"/><path d="m312 226.109375h88v48h-88zm0 0" fill="#a8dba8"/><path d="m416 250.109375h40c8.835938 0 16 7.164063 16 16v184c0 8.835937-7.164062 16-16 16h-40c-8.835938 0-16-7.164063-16-16v-184c0-8.835937 7.164062-16 16-16zm0 0" fill="#79bd9a"/><path d="m400 402.109375h72v32h-72zm0 0" fill="#a8dba8"/><path d="m400 290.109375h72v40h-72zm0 0" fill="#a8dba8"/><path d="m24 194.109375h88c8.835938 0 16 7.164063 16 16v240c0 8.835937-7.164062 16-16 16h-88c-8.835938 0-16-7.164063-16-16v-240c0-8.835937 7.164062-16 16-16zm0 0" fill="#a8dba8"/><path d="m48 242.109375h40c4.417969 0 8 3.582031 8 8v64c0 4.417969-3.582031 8-8 8h-40c-4.417969 0-8-3.582031-8-8v-64c0-4.417969 3.582031-8 8-8zm0 0" fill="#79bd9a"/><path d="m240 71.628906 177.761719 102.640625 14.078125-24.480469-191.839844-110.71875-191.839844 110.71875 14.078125 24.480469zm0 0" fill="#cff09e"/><g fill="#3b8686"><path d="m192 418.109375h-24c-4.417969 0-8 3.582031-8 8s3.582031 8 8 8h24c4.417969 0 8-3.582031 8-8s-3.582031-8-8-8zm0 0"/><path d="m192 386.109375h-24c-4.417969 0-8 3.582031-8 8s3.582031 8 8 8h24c4.417969 0 8-3.582031 8-8s-3.582031-8-8-8zm0 0"/><path d="m192 354.109375h-24c-4.417969 0-8 3.582031-8 8s3.582031 8 8 8h24c4.417969 0 8-3.582031 8-8s-3.582031-8-8-8zm0 0"/><path d="m192 186.109375h-24c-4.417969 0-8 3.582031-8 8s3.582031 8 8 8h24c4.417969 0 8-3.582031 8-8s-3.582031-8-8-8zm0 0"/><path d="m192 218.109375h-24c-4.417969 0-8 3.582031-8 8s3.582031 8 8 8h24c4.417969 0 8-3.582031 8-8s-3.582031-8-8-8zm0 0"/><path d="m280 170.109375c-4.417969 0-8 3.582031-8 8v64c0 4.417969 3.582031 8 8 8s8-3.582031 8-8v-64c0-4.417969-3.582031-8-8-8zm0 0"/><path d="m280 378.109375c-4.417969 0-8 3.582031-8 8v48c0 4.417969 3.582031 8 8 8s8-3.582031 8-8v-48c0-4.417969-3.582031-8-8-8zm0 0"/><path d="m280 290.109375c-4.417969 0-8 3.582031-8 8v16c0 4.417969 3.582031 8 8 8s8-3.582031 8-8v-16c0-4.417969-3.582031-8-8-8zm0 0"/><path d="m360 370.109375h-16c-4.417969 0-8 3.582031-8 8s3.582031 8 8 8h16c4.417969 0 8-3.582031 8-8s-3.582031-8-8-8zm0 0"/><path d="m360 402.109375h-16c-4.417969 0-8 3.582031-8 8s3.582031 8 8 8h16c4.417969 0 8-3.582031 8-8s-3.582031-8-8-8zm0 0"/><path d="m456 242.109375h-40c-2.722656-.003906-5.429688.457031-8 1.359375v-41.359375c-.007812-3.070313-.605469-6.113281-1.761719-8.960937 6.960938-1.238282 13.019531-5.480469 16.5625-11.597657l12-20.800781 6.878907 4c5.515624 3.1875 12.070312 4.050781 18.222656 2.398438 6.152344-1.652344 11.398437-5.679688 14.578125-11.199219 3.1875-5.515625 4.046875-12.070313 2.398437-18.222657-1.652344-6.152343-5.679687-11.394531-11.199218-14.578124l-208-120c-5.367188-3.039063-11.695313-3.898438-17.679688-2.398438-6.03125-1.542969-12.429688-.6835938-17.839844 2.398438l-208 120c-11.488281 6.628906-15.425781 21.3125-8.800781 32.800781 6.628906 11.488281 21.3125 15.429687 32.800781 8.800781l6.878906-4 12 20.800781c.960938 1.652344 2.117188 3.183594 3.441407 4.558594h-36.480469c-13.253906 0-24 10.746094-24 24v240c0 13.253906 10.746094 24 24 24h88c5.910156-.011719 11.605469-2.207031 16-6.160156 4.394531 3.953125 10.089844 6.148437 16 6.160156h80c5.910156-.011719 11.605469-2.207031 16-6.160156 4.394531 3.953125 10.089844 6.148437 16 6.160156h40c5.910156-.011719 11.605469-2.207031 16-6.160156 4.394531 3.953125 10.089844 6.148437 16 6.160156h56c5.910156-.011719 11.605469-2.207031 16-6.160156 4.394531 3.953125 10.089844 6.148437 16 6.160156h40c13.253906 0 24-10.746094 24-24v-184c0-13.253906-10.746094-24-24-24zm8 184h-56v-16h56zm-232-272v1.359375c-2.570312-.902344-5.277344-1.363281-8-1.359375h-71.28125l87.28125-50.398437 45.679688 26.398437h-29.679688c-13.253906 0-24 10.746094-24 24zm88-4.398437 48.800781 28.398437h-40.800781c-2.722656-.003906-5.429688.457031-8 1.359375v-25.359375c.121094-1.464844.121094-2.933594 0-4.398437zm0 52.398437c0-4.417969 3.582031-8 8-8h56c4.417969 0 8 3.582031 8 8v16h-72zm0 32h72v32h-72zm144 88h-56v-24h56zm-56 72v-56h56v56zm8-136h40c4.417969 0 8 3.582031 8 8v16h-56v-16c0-4.417969 3.582031-8 8-8zm-7.121094-84.558594c-2.222656 3.78125-7.074218 5.0625-10.878906 2.878907l-150-86.320313v-37.199219l20 11.519532 152.878906 88zm-378.558594-22.640625c-2.480468 1.578125-5.625 1.667969-8.191406.234375-2.566406-1.433593-4.140625-4.15625-4.101562-7.09375.042968-2.9375 1.6875-5.617187 4.292968-6.980469l208-120c1.160157-.695312 2.488282-1.058593 3.839844-1.039062 1.039063-.015625 2.074219.175781 3.039063.558594 1.902343.757812 4.019531.757812 5.921875 0 2.246094-.886719 4.777344-.710938 6.878906.480468l208 120c2.605469 1.363282 4.25 4.042969 4.292969 6.980469.039062 2.9375-1.535157 5.660157-4.101563 7.09375-2.566406 1.433594-5.710937 1.34375-8.191406-.234375l-13.839844-8-45.921875-26.558594-146.238281-84.242187c-2.476562-1.429687-5.523438-1.429687-8 0l-191.839844 110.800781zm201.679688-98v37.199219l-150 86.320313c-3.804688 2.183593-8.65625.902343-10.878906-2.878907l-12-20.800781zm-111.359375 120c-.402344 1.703125-.617187 3.449219-.640625 5.199219v9.359375c-2.570312-.902344-5.277344-1.363281-8-1.359375h-14.71875zm-8.640625 285.199219h-88c-4.417969 0-8-3.582031-8-8v-240c0-4.417969 3.582031-8 8-8h88c4.417969 0 8 3.582031 8 8v240c0 4.417969-3.582031 8-8 8zm112 0h-80c-4.417969 0-8-3.582031-8-8v-272c0-4.417969 3.582031-8 8-8h80c4.417969 0 8 3.582031 8 8v272c0 4.417969-3.582031 8-8 8zm72 0h-40c-4.417969 0-8-3.582031-8-8v-296c0-4.417969 3.582031-8 8-8h40c4.417969 0 8 3.582031 8 8v296c0 4.417969-3.582031 8-8 8zm88 0h-56c-4.417969 0-8-3.582031-8-8v-168h72v168c0 4.417969-3.582031 8-8 8zm72 0h-40c-4.417969 0-8-3.582031-8-8v-8h56v8c0 4.417969-3.582031 8-8 8zm0 0"/><path d="m96 234.109375h-56c-4.417969 0-8 3.582031-8 8v80c0 4.417969 3.582031 8 8 8h56c4.417969 0 8-3.582031 8-8v-80c0-4.417969-3.582031-8-8-8zm-8 80h-40v-64h40zm0 0"/><path d="m88 418.109375h-40c-4.417969 0-8 3.582031-8 8s3.582031 8 8 8h40c4.417969 0 8-3.582031 8-8s-3.582031-8-8-8zm0 0"/><path d="m88 386.109375h-40c-4.417969 0-8 3.582031-8 8s3.582031 8 8 8h40c4.417969 0 8-3.582031 8-8s-3.582031-8-8-8zm0 0"/></g></svg>