<svg height="480pt" viewBox="0 0 480 480" width="480pt" xmlns="http://www.w3.org/2000/svg"><path d="m272 328c-70.691406 0-128-57.308594-128-128v-152h-40v272c0 26.507812 21.492188 48 48 48h208v-40zm0 0" fill="#cff09e"/><path d="m144 8c-22.089844 0-40 17.910156-40 40s17.910156 40 40 40h216v-80zm0 0" fill="#a8dba8"/><path d="m152 128h160c8.835938 0 16 7.164062 16 16v16c0 8.835938-7.164062 16-16 16h-160c-8.835938 0-16-7.164062-16-16v-16c0-8.835938 7.164062-16 16-16zm0 0" fill="#a8dba8"/><path d="m176 224c0 8.835938-7.164062 16-16 16s-16-7.164062-16-16 7.164062-16 16-16 16 7.164062 16 16zm0 0" fill="#a8dba8"/><path d="m248 224c0 8.835938-7.164062 16-16 16s-16-7.164062-16-16 7.164062-16 16-16 16 7.164062 16 16zm0 0" fill="#a8dba8"/><path d="m320 224c0 8.835938-7.164062 16-16 16s-16-7.164062-16-16 7.164062-16 16-16 16 7.164062 16 16zm0 0" fill="#a8dba8"/><path d="m176 288c0 8.835938-7.164062 16-16 16s-16-7.164062-16-16 7.164062-16 16-16 16 7.164062 16 16zm0 0" fill="#a8dba8"/><path d="m248 288c0 8.835938-7.164062 16-16 16s-16-7.164062-16-16 7.164062-16 16-16 16 7.164062 16 16zm0 0" fill="#a8dba8"/><path d="m320 288c0 8.835938-7.164062 16-16 16s-16-7.164062-16-16 7.164062-16 16-16 16 7.164062 16 16zm0 0" fill="#a8dba8"/><path d="m16 440h448c4.417969 0 8 3.582031 8 8v16c0 4.417969-3.582031 8-8 8h-448c-4.417969 0-8-3.582031-8-8v-16c0-4.417969 3.582031-8 8-8zm0 0" fill="#79bd9a"/><path d="m240 440h-216v-48c0-17.671875 14.328125-32 32-32l171.519531 37.28125c7.238281 1.628906 12.402344 8.019531 12.480469 15.4375zm0 0" fill="#a8dba8"/><path d="m240 440h216v-48c0-17.671875-14.328125-32-32-32l-171.519531 37.28125c-7.238281 1.628906-12.402344 8.019531-12.480469 15.4375zm0 0" fill="#a8dba8"/><g fill="#3b8686"><path d="m152 184h160c13.253906 0 24-10.746094 24-24v-16c0-13.253906-10.746094-24-24-24h-160c-13.253906 0-24 10.746094-24 24v16c0 13.253906 10.746094 24 24 24zm-8-40c0-4.417969 3.582031-8 8-8h160c4.417969 0 8 3.582031 8 8v16c0 4.417969-3.582031 8-8 8h-160c-4.417969 0-8-3.582031-8-8zm0 0"/><path d="m160 200c-13.253906 0-24 10.746094-24 24s10.746094 24 24 24 24-10.746094 24-24-10.746094-24-24-24zm0 32c-4.417969 0-8-3.582031-8-8s3.582031-8 8-8 8 3.582031 8 8-3.582031 8-8 8zm0 0"/><path d="m232 200c-13.253906 0-24 10.746094-24 24s10.746094 24 24 24 24-10.746094 24-24-10.746094-24-24-24zm0 32c-4.417969 0-8-3.582031-8-8s3.582031-8 8-8 8 3.582031 8 8-3.582031 8-8 8zm0 0"/><path d="m304 200c-13.253906 0-24 10.746094-24 24s10.746094 24 24 24 24-10.746094 24-24-10.746094-24-24-24zm0 32c-4.417969 0-8-3.582031-8-8s3.582031-8 8-8 8 3.582031 8 8-3.582031 8-8 8zm0 0"/><path d="m160 264c-13.253906 0-24 10.746094-24 24s10.746094 24 24 24 24-10.746094 24-24-10.746094-24-24-24zm0 32c-4.417969 0-8-3.582031-8-8s3.582031-8 8-8 8 3.582031 8 8-3.582031 8-8 8zm0 0"/><path d="m232 264c-13.253906 0-24 10.746094-24 24s10.746094 24 24 24 24-10.746094 24-24-10.746094-24-24-24zm0 32c-4.417969 0-8-3.582031-8-8s3.582031-8 8-8 8 3.582031 8 8-3.582031 8-8 8zm0 0"/><path d="m304 264c-13.253906 0-24 10.746094-24 24s10.746094 24 24 24 24-10.746094 24-24-10.746094-24-24-24zm0 32c-4.417969 0-8-3.582031-8-8s3.582031-8 8-8 8 3.582031 8 8-3.582031 8-8 8zm0 0"/><path d="m472 432h-8v-40c0-22.089844-17.910156-40-40-40h-1.679688l-54.320312 12v-356c0-4.417969-3.582031-8-8-8h-216c-26.507812 0-48 21.492188-48 48v272c.117188 18.195312 9.066406 35.203125 24 45.601562l-62.320312-13.601562h-1.679688c-22.089844 0-40 17.910156-40 40v40h-8c-4.417969 0-8 3.582031-8 8v32c0 4.417969 3.582031 8 8 8h464c4.417969 0 8-3.582031 8-8v-32c0-4.417969-3.582031-8-8-8zm-47.199219-64c12.941407.429688 23.207031 11.050781 23.199219 24v8h-64c-4.417969 0-8 3.582031-8 8s3.582031 8 8 8h64v16h-200v-19.28125c-.101562-3.789062 2.46875-7.128906 6.160156-8zm-280.800781-352h208v64h-208c-17.671875 0-32-14.328125-32-32s14.328125-32 32-32zm-32 304v-236.238281c8.796875 7.875 20.191406 12.234375 32 12.238281h208v264h-200c-22.089844 0-40-17.910156-40-40zm200.71875 56-62 13.441406c-3.976562.917969-7.660156 2.816406-10.71875 5.519532-3.066406-2.734376-6.785156-4.636719-10.800781-5.519532l-61.917969-13.441406zm-280.71875 40h64c4.417969 0 8-3.582031 8-8s-3.582031-8-8-8h-64v-8c-.007812-12.949219 10.257812-23.570312 23.199219-24l170.640625 37.121094c3.691406.871094 6.261718 4.210937 6.160156 8v18.878906h-200zm432 48h-448v-16h448zm0 0"/><path d="m408 120h16v16c0 4.417969 3.582031 8 8 8s8-3.582031 8-8v-16h16c4.417969 0 8-3.582031 8-8s-3.582031-8-8-8h-16v-16c0-4.417969-3.582031-8-8-8s-8 3.582031-8 8v16h-16c-4.417969 0-8 3.582031-8 8s3.582031 8 8 8zm0 0"/><path d="m54.640625 265.359375c-1.503906-1.515625-3.546875-2.367187-5.679687-2.367187-2.132813 0-4.179688.851562-5.679688 2.367187l-11.28125 11.359375-11.28125-11.359375c-3.136719-3.136719-8.222656-3.136719-11.359375 0s-3.136719 8.222656 0 11.359375l11.359375 11.28125-11.359375 11.28125c-1.515625 1.5-2.367187 3.546875-2.367187 5.679688 0 2.132812.851562 4.175781 2.367187 5.679687 1.511719 1.496094 3.554687 2.332031 5.679687 2.320313 2.128907.011718 4.171876-.824219 5.679688-2.320313l11.28125-11.359375 11.28125 11.359375c1.507812 1.496094 3.550781 2.332031 5.679688 2.320313 2.125.011718 4.167968-.824219 5.679687-2.320313 1.515625-1.503906 2.367187-3.546875 2.367187-5.679687 0-2.132813-.851562-4.179688-2.367187-5.679688l-11.359375-11.28125 11.359375-11.28125c1.515625-1.5 2.367187-3.546875 2.367187-5.679688 0-2.132812-.851562-4.175781-2.367187-5.679687zm0 0"/><path d="m8 128h48c4.417969 0 8-3.582031 8-8s-3.582031-8-8-8h-48c-4.417969 0-8 3.582031-8 8s3.582031 8 8 8zm0 0"/><path d="m40 88c0 4.417969-3.582031 8-8 8s-8-3.582031-8-8 3.582031-8 8-8 8 3.582031 8 8zm0 0"/><path d="m40 152c0 4.417969-3.582031 8-8 8s-8-3.582031-8-8 3.582031-8 8-8 8 3.582031 8 8zm0 0"/><path d="m408 288h48c4.417969 0 8-3.582031 8-8s-3.582031-8-8-8h-48c-4.417969 0-8 3.582031-8 8s3.582031 8 8 8zm0 0"/></g></svg>