<svg height="480pt" viewBox="0 -12 480 480" width="480pt" xmlns="http://www.w3.org/2000/svg"><path d="m408 168c0 4.417969-3.582031 8-8 8s-8-3.582031-8-8 3.582031-8 8-8 8 3.582031 8 8zm0 0" fill="#cff09e"/><path d="m440 168c0 4.417969-3.582031 8-8 8s-8-3.582031-8-8 3.582031-8 8-8 8 3.582031 8 8zm0 0" fill="#cff09e"/><path d="m384 92.480469h12.71875l-18.398438 18.320312c-2.308593 2.289063-3 5.746094-1.753906 8.746094 1.246094 3.003906 4.183594 4.953125 7.433594 4.933594h32c4.417969 0 8-3.582031 8-8s-3.582031-8-8-8h-12.71875l18.398438-18.402344c2.25-2.292969 2.910156-5.714844 1.667968-8.679687-1.238281-2.96875-4.132812-4.90625-7.347656-4.917969h-32c-4.417969 0-8 3.582031-8 8s3.582031 8 8 8zm0 0" fill="#cff09e"/><path d="m464 176v2.558594c.558594-.878906 1.121094-1.679688 1.601562-2.558594zm0 0" fill="#cff09e"/><path d="m376 176v-8c.007812-20.097656-12.507812-38.074219-31.359375-45.039062 2.097656-1.496094 3.347656-3.90625 3.359375-6.480469v-8h8c4.417969 0 8-3.582031 8-8s-3.582031-8-8-8h-8v-8c0-4.417969-3.582031-8-8-8s-8 3.582031-8 8v8h-8c-4.417969 0-8 3.582031-8 8s3.582031 8 8 8h8v8c-.015625 1.316406.316406 2.613281.960938 3.757812-1.601563 0-3.28125 0-4.960938 0h-48.558594l26.160156-25.597656c1.511719-1.503906 2.363282-3.546875 2.363282-5.679687 0-2.132813-.851563-4.179688-2.363282-5.679688-3.121093-3.101562-8.160156-3.101562-11.28125 0l-10.160156 9.917969-9.679687-10.320313c-1.882813-2.320312-4.902344-3.398437-7.832031-2.796875-2.925782.605469-5.273438 2.792969-6.082032 5.667969-.8125 2.878906.050782 5.96875 2.234375 8.011719l10 10.238281-10.402343 10.238281c-1.523438 1.5-2.390626 3.542969-2.398438 5.683594h-16.800781c.394531-.691406.640625-1.453125.722656-2.242187l7.039063-49.121094h65.039062c4.417969 0 8-3.582032 8-8 0-4.417969-3.582031-8-8-8h-72c-3.988281-.042969-7.402344 2.855468-8 6.800781l-4 30.640625-4.558594-9.121094c-1.085937-2.847656-3.699218-4.832031-6.734375-5.117187-3.035156-.28125-5.964843 1.183593-7.5625 3.78125-1.59375 2.601562-1.570312 5.878906.054688 8.457031l14.800781 29.601562c-15.039062-3.59375-28.847656-11.132812-40-21.839843l10.320312-10.320313c3.136719-3.136718 3.136719-8.222656 0-11.363281-3.136718-3.136719-8.222656-3.136719-11.359374 0l-9.519532 9.601563c-11.171875-14.929688-17.28125-33.035157-17.441406-51.679688-.007812-8.421875 2.199219-16.699219 6.398438-24-25.882813.863281-46.414063 22.101562-46.398438 48v88h168c26.507812 0 48 21.492188 48 48v8h24l49.039062 85.839844c1.789063 3.15625 5.480469 4.714844 8.988282 3.792968 3.511718-.917968 5.960937-4.085937 5.972656-7.710937v-64l-24-41.921875zm0 0" fill="#cff09e"/><path d="m56 144h232c26.507812 0 48 21.492188 48 48v96c0 26.507812-21.492188 48-48 48h-120l-98.320312 98.320312c-2.277344 2.296876-5.714844 2.996094-8.710938 1.769532-2.992188-1.226563-4.957031-4.132813-4.96875-7.371094v-92.71875c-26.507812 0-48-21.492188-48-48v-96c0-26.507812 21.492188-48 48-48zm0 0" fill="#a8dba8"/><g fill="#3b8686"><path d="m197.679688 61.679688c-1.5-1.515626-3.546876-2.367188-5.679688-2.367188s-4.179688.851562-5.679688 2.367188l-10.320312 10.320312-10.320312-10.320312c-1.5-1.515626-3.546876-2.367188-5.679688-2.367188s-4.179688.851562-5.679688 2.367188c-3.101562 3.121093-3.101562 8.160156 0 11.28125l10.398438 10.320312-10.398438 10.398438c-3.101562 3.121093-3.101562 8.160156 0 11.28125 1.5 1.511718 3.546876 2.367187 5.679688 2.367187s4.179688-.855469 5.679688-2.367187l10.320312-10.320313 10.320312 10.320313c1.5 1.511718 3.546876 2.367187 5.679688 2.367187s4.179688-.855469 5.679688-2.367187c3.101562-3.121094 3.101562-8.160157 0-11.28125l-10.398438-10.398438 10.398438-10.320312c3.101562-3.121094 3.101562-8.160157 0-11.28125zm0 0"/><path d="m324 48c0-4.417969-3.582031-8-8-8h-72c-4.015625-.039062-7.4375 2.902344-8 6.878906l-4 30.640625-4.558594-9.121093c-2.160156-3.589844-6.726562-4.902344-10.464844-3.011719-3.742187 1.890625-5.386718 6.34375-3.777343 10.214843l16 32c1.355469 2.6875 4.109375 4.390626 7.121093 4.398438h1.28125c3.464844-.5625 6.15625-3.320312 6.636719-6.800781l6.722657-49.199219h65.039062c4.417969 0 8-3.582031 8-8zm0 0"/><path d="m294.398438 70.480469-10.160157 10-9.679687-10.402344c-3.023438-3.222656-8.09375-3.382813-11.320313-.359375-3.222656 3.027344-3.386719 8.097656-.359375 11.320312l9.921875 10.640626-10.402343 10.160156c-3.101563 3.121094-3.101563 8.160156 0 11.28125 1.5 1.527344 3.542968 2.390625 5.679687 2.398437 2.089844.011719 4.097656-.789062 5.601563-2.238281l32-31.359375c3.160156-3.09375 3.214843-8.164063.121093-11.320313-3.09375-3.160156-8.160156-3.214843-11.320312-.121093zm0 0"/><path d="m364 88c0-4.417969-3.582031-8-8-8h-8v-8c0-4.417969-3.582031-8-8-8s-8 3.582031-8 8v8h-8c-4.417969 0-8 3.582031-8 8s3.582031 8 8 8h8v8c0 4.417969 3.582031 8 8 8s8-3.582031 8-8v-8h8c4.417969 0 8-3.582031 8-8zm0 0"/><path d="m416 96h-12.71875l18.398438-18.320312c2.269531-2.300782 2.933593-5.742188 1.679687-8.71875-1.226563-2.988282-4.128906-4.945313-7.359375-4.960938h-32c-4.417969 0-8 3.582031-8 8s3.582031 8 8 8h12.71875l-18.398438 18.320312c-2.269531 2.300782-2.933593 5.742188-1.679687 8.71875 1.226563 2.988282 4.128906 4.945313 7.359375 4.960938h32c4.417969 0 8-3.582031 8-8s-3.582031-8-8-8zm0 0"/><path d="m424 0h-256c-30.929688 0-56 25.070312-56 56v80h-56c-30.929688 0-56 25.070312-56 56v96c-.0078125 27.84375 20.441406 51.460938 48 55.441406v104.558594c.015625 3.230469 1.972656 6.132812 4.960938 7.359375.949218.449219 1.988281.667969 3.039062.640625 2.125.011719 4.171875-.824219 5.679688-2.320312l109.601562-109.679688h116.71875c30.929688 0 56-25.070312 56-56v-80h11.359375l61.679687 108c1.4375 2.484375 4.089844 4.011719 6.960938 4h2.078125c3.59375-.964844 6.050781-4.28125 5.921875-8v-104.558594c27.558594-3.980468 48.007812-27.597656 48-55.441406v-96c0-30.929688-25.070312-56-56-56zm-96 288c0 22.089844-17.910156 40-40 40h-120c-2.125-.011719-4.171875.824219-5.679688 2.320312l-98.320312 98.398438v-92.71875c0-4.417969-3.582031-8-8-8-22.089844 0-40-17.910156-40-40v-96c0-22.089844 17.910156-40 40-40h232c22.089844 0 40 17.910156 40 40zm136-136c0 22.089844-17.910156 40-40 40-4.417969 0-8 3.582031-8 8v81.839844l-49.039062-85.839844c-1.4375-2.484375-4.089844-4.011719-6.960938-4h-16c0-30.929688-25.070312-56-56-56h-160v-80c0-22.089844 17.910156-40 40-40h256c22.089844 0 40 17.910156 40 40zm0 0"/><path d="m80 240c4.417969 0 8-3.582031 8-8s-3.582031-8-8-8h-40c-4.417969 0-8 3.582031-8 8v64c0 4.417969 3.582031 8 8 8h40c4.417969 0 8-3.582031 8-8s-3.582031-8-8-8h-32v-16h24c4.417969 0 8-3.582031 8-8s-3.582031-8-8-8h-24v-16zm0 0"/><path d="m200 240c-5.910156.011719-11.605469 2.207031-16 6.160156-4.394531-3.953125-10.089844-6.148437-16-6.160156-13.253906 0-24 10.746094-24 24v32c0 4.417969 3.582031 8 8 8s8-3.582031 8-8v-32c0-4.417969 3.582031-8 8-8s8 3.582031 8 8v32c0 4.417969 3.582031 8 8 8s8-3.582031 8-8v-32c0-4.417969 3.582031-8 8-8s8 3.582031 8 8v32c0 4.417969 3.582031 8 8 8s8-3.582031 8-8v-32c0-13.253906-10.746094-24-24-24zm0 0"/><path d="m256 256h8c4.417969 0 8-3.582031 8-8s-3.582031-8-8-8h-8c-17.671875 0-32 14.328125-32 32s14.328125 32 32 32h8c4.417969 0 8-3.582031 8-8s-3.582031-8-8-8h-8c-8.835938 0-16-7.164062-16-16s7.164062-16 16-16zm0 0"/><path d="m280 208c13.253906 0 24-10.746094 24-24s-10.746094-24-24-24-24 10.746094-24 24c0 4.417969 3.582031 8 8 8s8-3.582031 8-8 3.582031-8 8-8 8 3.582031 8 8-3.582031 8-8 8c-13.253906 0-24 10.746094-24 24v8c0 4.417969 3.582031 8 8 8h32c4.417969 0 8-3.582031 8-8s-3.582031-8-8-8h-24c0-4.417969 3.582031-8 8-8zm0 0"/><path d="m120 248h-16c-4.417969 0-8 3.582031-8 8s3.582031 8 8 8h16c4.417969 0 8-3.582031 8-8s-3.582031-8-8-8zm0 0"/><path d="m120 272h-16c-4.417969 0-8 3.582031-8 8s3.582031 8 8 8h16c4.417969 0 8-3.582031 8-8s-3.582031-8-8-8zm0 0"/><path d="m376 152c0 4.417969-3.582031 8-8 8s-8-3.582031-8-8 3.582031-8 8-8 8 3.582031 8 8zm0 0"/><path d="m408 152c0 4.417969-3.582031 8-8 8s-8-3.582031-8-8 3.582031-8 8-8 8 3.582031 8 8zm0 0"/><path d="m440 152c0 4.417969-3.582031 8-8 8s-8-3.582031-8-8 3.582031-8 8-8 8 3.582031 8 8zm0 0"/><path d="m80 184c0 4.417969-3.582031 8-8 8s-8-3.582031-8-8 3.582031-8 8-8 8 3.582031 8 8zm0 0"/><path d="m112 184c0 4.417969-3.582031 8-8 8s-8-3.582031-8-8 3.582031-8 8-8 8 3.582031 8 8zm0 0"/><path d="m144 184c0 4.417969-3.582031 8-8 8s-8-3.582031-8-8 3.582031-8 8-8 8 3.582031 8 8zm0 0"/><path d="m176 184c0 4.417969-3.582031 8-8 8s-8-3.582031-8-8 3.582031-8 8-8 8 3.582031 8 8zm0 0"/><path d="m199.121094 192c3.21875.371094 6.34375-1.238281 7.914062-4.074219 1.570313-2.835937 1.269532-6.339843-.753906-8.871093s-5.375-3.589844-8.488281-2.683594c-3.113281.910156-5.367188 3.605468-5.714844 6.828125-.464844 4.371093 2.675781 8.296875 7.042969 8.800781zm0 0"/></g></svg>