<svg height="480pt" viewBox="0 0 480 480.09051" width="480pt" xmlns="http://www.w3.org/2000/svg"><path d="m16.046875 120h32c4.417969 0 8 3.582031 8 8v16c0 4.417969-3.582031 8-8 8h-32c-4.417969 0-8-3.582031-8-8v-16c0-4.417969 3.582031-8 8-8zm0 0" fill="#79bd9a"/><path d="m104.046875 64h96c4.417969 0 8 3.582031 8 8v16c0 4.417969-3.582031 8-8 8h-96c-4.417969 0-8-3.582031-8-8v-16c0-4.417969 3.582031-8 8-8zm0 0" fill="#a8dba8"/><path d="m192.046875 248c0 8.835938-7.164063 16-16 16-8.839844 0-16-7.164062-16-16s7.160156-16 16-16c8.835937 0 16 7.164062 16 16zm0 0" fill="#cff09e"/><path d="m136.046875 150.800781v-54.800781h-24v76.078125c6.488281-8.628906 14.652344-15.867187 24-21.277344zm0 0" fill="#cff09e"/><path d="m176.046875 284c-26.65625-.011719-51.558594-13.296875-66.40625-35.433594-14.851563-22.140625-17.699219-50.21875-7.59375-74.886718-26.140625 20.910156-36.5 55.878906-25.964844 87.652343 10.535157 31.773438 39.738281 53.625 73.191407 54.773438 33.453124 1.148437 64.082031-18.652344 76.773437-49.625-14.195313 11.347656-31.828125 17.527343-50 17.519531zm0 0" fill="#cff09e"/><path d="m440.046875 312c-17.675781 0-32-14.328125-32-32v-176h-16v192c-.054687 15.113281 10.476563 28.203125 25.25 31.390625 14.777344 3.1875 29.765625-4.398437 35.949219-18.191406-4.160156 1.832031-8.65625 2.785156-13.199219 2.800781zm0 0" fill="#cff09e"/><path d="m384.046875 72h80c4.417969 0 8 3.582031 8 8v16c0 4.417969-3.582031 8-8 8h-80c-4.417969 0-8-3.582031-8-8v-16c0-4.417969 3.582031-8 8-8zm0 0" fill="#a8dba8"/><path d="m400.046875 456h-139.121094c-2.75-.023438-5.296875-1.453125-6.742187-3.792969-1.445313-2.339843-1.589844-5.257812-.378906-7.726562l54.242187-108.480469v-112h-32v128l-54.242187 108.480469c-1.210938 2.46875-1.066407 5.386719.378906 7.726562 1.445312 2.339844 3.992187 3.769531 6.742187 3.792969h166.238281c2.75-.023438 5.296876-1.453125 6.742188-3.792969 1.445312-2.339843 1.589844-5.257812.378906-7.726562zm0 0" fill="#cff09e"/><path d="m272.046875 192h80c4.417969 0 8 3.582031 8 8v16c0 4.417969-3.582031 8-8 8h-80c-4.417969 0-8-3.582031-8-8v-16c0-4.417969 3.582031-8 8-8zm0 0" fill="#a8dba8"/><path d="m344.046875 424c0 8.835938-7.164063 16-16 16-8.839844 0-16-7.164062-16-16s7.160156-16 16-16c8.835937 0 16 7.164062 16 16zm0 0" fill="#cff09e"/><path d="m24.046875 440h104c4.417969 0 8 3.582031 8 8v16c0 4.417969-3.582031 8-8 8h-104c-4.417969 0-8-3.582031-8-8v-16c0-4.417969 3.582031-8 8-8zm0 0" fill="#79bd9a"/><g fill="#3b8686"><path d="m152.046875 248c0 13.253906 10.742187 24 24 24 13.253906 0 24-10.746094 24-24s-10.746094-24-24-24c-13.257813 0-24 10.746094-24 24zm32 0c0 4.417969-3.582031 8-8 8s-8-3.582031-8-8 3.582031-8 8-8 8 3.582031 8 8zm0 0"/><path d="m136.046875 272c0 4.417969-3.582031 8-8 8s-8-3.582031-8-8 3.582031-8 8-8 8 3.582031 8 8zm0 0"/><path d="m112.046875 240c0 4.417969-3.582031 8-8 8s-8-3.582031-8-8 3.582031-8 8-8 8 3.582031 8 8zm0 0"/><path d="m144.046875 216c0 4.417969-3.582031 8-8 8s-8-3.582031-8-8 3.582031-8 8-8 8 3.582031 8 8zm0 0"/><path d="m304.046875 424c0 13.253906 10.742187 24 24 24 13.253906 0 24-10.746094 24-24s-10.746094-24-24-24c-13.257813 0-24 10.746094-24 24zm32 0c0 4.417969-3.582031 8-8 8s-8-3.582031-8-8 3.582031-8 8-8 8 3.582031 8 8zm0 0"/><path d="m312.046875 384c0 4.417969-3.582031 8-8 8s-8-3.582031-8-8 3.582031-8 8-8 8 3.582031 8 8zm0 0"/><path d="m280.046875 440c0 4.417969-3.582031 8-8 8s-8-3.582031-8-8 3.582031-8 8-8 8 3.582031 8 8zm0 0"/><path d="m320.046875 312c0 4.417969-3.582031 8-8 8s-8-3.582031-8-8 3.582031-8 8-8 8 3.582031 8 8zm0 0"/><path d="m320.046875 280c0 4.417969-3.582031 8-8 8s-8-3.582031-8-8 3.582031-8 8-8 8 3.582031 8 8zm0 0"/><path d="m456.046875 64h-24c0-26.507812-21.492187-48-48-48h-16c-26.511719 0-48 21.492188-48 48v120h-16v-128c0-30.929688-25.074219-56-56-56h-48c-30.929687 0-56 25.070312-56 56h-32c-11.617187.089844-21.5 8.488281-23.46875 19.933594-1.96875 11.449218 4.546875 22.664062 15.46875 26.625v25.441406h-40v-8c0-4.417969-3.582031-8-8-8h-16v-72c0-4.417969-3.582031-8-8-8s-8 3.582031-8 8v72h-16c-4.417969 0-8 3.582031-8 8v32c0 4.417969 3.582031 8 8 8h16v272h-8c-4.417969 0-8 3.582031-8 8v32c0 4.417969 3.582031 8 8 8h104c13.253906 0 24-10.746094 24-24s-10.746094-24-24-24h-80v-272h16c4.417969 0 8-3.582031 8-8v-8h40v18.320312c-1.664063 1.027344-3.265625 2.148438-4.800781 3.359376-22.246094 16.511718-35.316406 42.617187-35.199219 70.320312-.039063 42.125 29.785156 78.367188 71.128906 86.445312 41.34375 8.074219 82.613281-14.285156 98.429688-53.328124 15.816406-39.042969 1.746093-83.820313-33.558594-106.796876v-18.320312h16c4.417969 0 8-3.582031 8-8s-3.582031-8-8-8h-16v-25.441406c10.917969-3.960938 17.433594-15.175782 15.464844-26.625-1.964844-11.445313-11.851563-19.84375-23.464844-19.933594h-32c0-22.089844 17.90625-40 40-40h48c22.089844 0 40 17.910156 40 40v128h-12c-11.046875 0-20 8.953125-20 20v8c.023437 7.941406 4.726563 15.125 12 18.320312v120l-47.601563 95.039063c-3.671874 7.429687-3.257812 16.226563 1.105469 23.273437 4.359375 7.042969 12.046875 11.34375 20.335938 11.367188h142.160156c.792969.121094 1.601563.121094 2.398437 0 6.664063-1.171875 12.5-5.167969 16-10.960938 4.34375-7.058593 4.738282-15.859374 1.039063-23.277343l-48-95.28125v-119.519531c.738281-.472657 1.410156-1.039063 2-1.679688 6.40625-3.410156 10.449219-10.027344 10.5625-17.28125v-8c0-11.046875-8.957031-20-20-20h-12v-120c0-17.671875 14.324219-32 32-32h16c17.671875 0 32 14.328125 32 32h-24c-11.617187.089844-21.5 8.488281-23.46875 19.933594-1.96875 11.449218 4.546875 22.664062 15.46875 26.625v185.441406c0 22.089844 17.90625 40 40 40 22.089844 0 40-17.910156 40-40v-185.441406c10.917969-3.960938 17.433594-15.175782 15.464844-26.625-1.964844-11.445313-11.851563-19.84375-23.464844-19.933594zm-336 384c4.417969 0 8 3.582031 8 8s-3.582031 8-8 8h-96v-16zm-72-304h-32v-16h32zm112-40h24v24h-24zm-48-32h32v16h-32c-4.417969 0-8-3.582031-8-8s3.582031-8 8-8zm32 32v24h-24v-24zm80 132c0 39.765625-32.238281 72-72 72-39.765625 0-72-32.234375-72-72-.078125-22.660156 10.609375-44.007812 28.796875-57.519531 2.300781-1.746094 4.707031-3.351563 7.203125-4.800781 2.457031-1.421876 3.980469-4.039063 4-6.878907v-22.800781h24v32c0 4.417969 3.582031 8 8 8s8-3.582031 8-8v-32h24v22.800781c.015625 2.839844 1.539063 5.457031 4 6.878907 22.265625 12.855468 35.984375 36.609374 36 62.320312zm-32-164c4.417969 0 8 3.582031 8 8s-3.582031 8-8 8h-32v-16zm197.277344 380.480469c1.429687 2.476562 1.429687 5.523437 0 8-1.464844 2.34375-4.035157 3.765625-6.800781 3.757812h-140.636719c-2.765625.007813-5.335938-1.414062-6.800781-3.757812-1.429688-2.476563-1.429688-5.523438 0-8l48.398437-96.878907c.460937-1.140624.652344-2.375.5625-3.601562v-120h56v120c.007813 1.253906.308594 2.484375.878906 3.601562zm-41.277344-252.480469c2.207031 0 4 1.789062 4 4v8c0 2.210938-1.792969 4-4 4h-72c-2.210937 0-4-1.789062-4-4v-8c0-2.210938 1.789063-4 4-4zm44-104c-4.417969 0-8-3.582031-8-8s3.582031-8 8-8h24v16zm56 200c0 13.253906-10.746094 24-24 24-13.257813 0-24-10.746094-24-24v-184h16v96c0 4.417969 3.582031 8 8 8s8-3.582031 8-8v-96h16zm8-200h-24v-16h24c4.417969 0 8 3.582031 8 8s-3.582031 8-8 8zm0 0"/><path d="m432.046875 248c0 4.417969-3.582031 8-8 8s-8-3.582031-8-8 3.582031-8 8-8 8 3.582031 8 8zm0 0"/><path d="m432.046875 280c0 4.417969-3.582031 8-8 8s-8-3.582031-8-8 3.582031-8 8-8 8 3.582031 8 8zm0 0"/></g></svg>