<svg height="480pt" viewBox="0 0 480 479" width="480pt" xmlns="http://www.w3.org/2000/svg"><g fill="#79bd9a"><path d="m128 224.597656c.007812-4.007812.222656-8.011718.640625-12h-108.640625c-6.628906 0-12 5.371094-12 12s5.371094 12 12 12h108.640625c-.417969-3.984375-.632813-7.992187-.640625-12zm0 0"/><path d="m460 212.597656h-108.640625c.855469 7.976563.855469 16.023438 0 24h108.640625c6.628906 0 12-5.371094 12-12s-5.371094-12-12-12zm0 0"/><path d="m136 448.597656c0 13.253906-10.746094 24-24 24s-24-10.746094-24-24 10.746094-24 24-24 24 10.746094 24 24zm0 0"/><path d="m392 448.597656c0 13.253906-10.746094 24-24 24s-24-10.746094-24-24 10.746094-24 24-24 24 10.746094 24 24zm0 0"/></g><path d="m233.679688 8.597656c-113.121094 3.441406-201.679688 99.199219-201.679688 212.398438v211.601562c0 8.835938 7.164062 16 16 16h384c8.835938 0 16-7.164062 16-16v-216c.027344-56.277344-22.753906-110.164062-63.140625-149.359375-40.382813-39.191406-94.925781-60.351562-151.179687-58.640625zm182.320312 408h-352v-200c0-97.203125 78.796875-176 176-176s176 78.796875 176 176zm0 0" fill="#a8dba8"/><path d="m240 80.597656c-79.527344 0-144 64.472656-144 144 0 79.53125 64.472656 144 144 144s144-64.46875 144-144c0-79.527344-64.472656-144-144-144zm0 256c-61.855469 0-112-50.144531-112-112 0-61.855468 50.144531-112 112-112s112 50.144532 112 112c0 61.855469-50.144531 112-112 112zm0 0" fill="#79bd9a"/><path d="m240 232.597656c-2.160156 0-39.601562-20.71875-39.601562-20.71875-2.714844-3.175781-2.535157-7.90625.421874-10.863281 2.953126-2.953125 7.6875-3.136719 10.859376-.417969l28.320312 28.320313 33.921875-34c3.136719-3.136719 8.222656-3.136719 11.359375 0s3.136719 8.222656 0 11.359375c0 0-43.121094 26.320312-45.28125 26.320312zm0 0" fill="#cff09e"/><path d="m272 296.597656c-38.40625.003906-74.132812-19.671875-94.664062-52.128906-20.527344-32.457031-22.996094-73.171875-6.535157-107.871094-36.386719 28.566406-51.464843 76.5625-37.953125 120.808594 13.511719 44.242188 52.832032 75.625 98.96875 78.988281 46.136719 3.363281 89.597656-21.980469 109.382813-63.796875-19.722657 15.53125-44.09375 23.980469-69.199219 24zm0 0" fill="#cff09e"/><path d="m240 104.597656c-66.273438 0-120 53.726563-120 120 0 66.273438 53.726562 120 120 120s120-53.726562 120-120c0-66.273437-53.726562-120-120-120zm8 224v-16c0-4.417968-3.582031-8-8-8s-8 3.582032-8 8v16c-51.355469-3.820312-92.179688-44.644531-96-96h16c4.417969 0 8-3.582031 8-8 0-4.417968-3.582031-8-8-8h-16c3.820312-51.355468 44.644531-92.179687 96-96v16c0 4.417969 3.582031 8 8 8s8-3.582031 8-8v-16c51.355469 3.820313 92.179688 44.644532 96 96h-16c-4.417969 0-8 3.582032-8 8 0 4.417969 3.582031 8 8 8h16c-3.820312 51.355469-44.644531 92.179688-96 96zm0 0" fill="#3b8686"/><path d="m273.921875 179.316406-33.921875 34-28.320312-28.320312c-3.171876-2.714844-7.90625-2.535156-10.859376.421875-2.957031 2.953125-3.136718 7.6875-.421874 10.859375l33.921874 34c1.5 1.515625 3.546876 2.367187 5.679688 2.367187s4.179688-.851562 5.679688-2.367187l39.601562-39.597656c3.136719-3.136719 3.136719-8.226563 0-11.363282-3.136719-3.136718-8.222656-3.136718-11.359375 0zm0 0" fill="#3b8686"/><path d="m240 32.597656c-98.164062-.121094-179.132812 76.839844-184 174.878906-.039062.375-.039062.75 0 1.121094v.878906 7.121094 200c0 4.417969 3.582031 8 8 8h352c4.417969 0 8-3.582031 8-8v-200c0-2.398437 0-4.71875 0-7.121094 0 0 0-.558593 0-.878906.039062-.371094.039062-.746094 0-1.121094-4.867188-98.039062-85.835938-175-184-174.878906zm-168 184h16.398438c0 2.640625-.398438 5.28125-.398438 8h-16zm336 192h-336v-168h16.878906c8.34375 77.175782 73.496094 135.667969 151.121094 135.667969s142.777344-58.492187 151.121094-135.667969h16.878906zm-32-176c-5.445312 70.859375-64.53125 125.578125-135.601562 125.578125-71.066407 0-130.152344-54.71875-135.597657-125.578125 0-2.640625-.402343-5.28125-.402343-8 0-75.109375 60.890624-136 136-136 75.113281 0 136 60.890625 136 136v8zm32-8h-16c0-2.71875 0-5.359375 0-8h16zm-18.078125-24c-12.246094-73.257812-75.644531-126.941406-149.921875-126.941406s-137.675781 53.683594-149.921875 126.941406h-17.277344c8.425781-86.03125 80.757813-151.625 167.199219-151.625s158.773438 65.59375 167.199219 151.625zm0 0" fill="#3b8686"/><path d="m460 200.597656h-4.640625c-8.511719-115.320312-106.335937-203.484375-221.917969-200-108.722656 3.359375-198.402344 91.199219-208.480468 200h-4.960938c-11.046875 0-20 8.953125-20 20s8.953125 20 20 20h4v176c0 22.089844 17.910156 40 40 40h17.199219c3.789062 13.9375 16.441406 23.609375 30.878906 23.609375 14.441406 0 27.09375-9.671875 30.882813-23.609375h194.160156c3.785156 13.9375 16.4375 23.609375 30.878906 23.609375s27.09375-9.671875 30.878906-23.609375h17.121094c22.089844 0 40-17.910156 40-40v-176h4c11.046875 0 20-8.953125 20-20s-8.953125-20-20-20zm-436 20.398438v3.601562h-4c-2.210938 0-4-1.789062-4-4 0-2.207031 1.789062-4 4-4h4zm88 243.601562c-5.683594-.035156-10.917969-3.078125-13.761719-8h27.523438c-2.84375 4.921875-8.078125 7.964844-13.761719 8zm256 0c-5.683594-.035156-10.917969-3.078125-13.761719-8h27.523438c-2.84375 4.921875-8.078125 7.964844-13.761719 8zm72-48c0 13.253906-10.746094 24-24 24h-352c-13.253906 0-24-10.746094-24-24v-195.601562c0-109.4375 87.039062-201.117188 193.921875-204.398438h6.078125c110.457031 0 200 89.542969 200 200zm20-192h-4v-8h4c2.210938 0 4 1.792969 4 4 0 2.210938-1.789062 4-4 4zm0 0" fill="#3b8686"/></svg>