<svg height="480pt" viewBox="-8 0 480 480.08877" width="480pt" xmlns="http://www.w3.org/2000/svg"><path d="m264.042969 360c-106.039063 0-192-85.960938-192-192v-98h-56v338h320v-48zm0 0" fill="#cff09e"/><path d="m304.042969 8h-256c-17.671875 0-32 14.328125-32 32v30h320v-30c0-17.671875-14.324219-32-32-32zm0 0" fill="#a8dba8"/><path d="m16.042969 440c0 17.671875 14.328125 32 32 32h256c17.675781 0 32-14.328125 32-32v-32h-320zm0 0" fill="#a8dba8"/><path d="m418.3125 427.003906 30.019531-5.292968 5.679688 32.222656c1.460937 8.28125-4.042969 16.183594-12.316407 17.6875-8.308593 1.464844-16.234374-4.082032-17.699218-12.394532zm0 0" fill="#79bd9a"/><path d="m358.566406 39.882812 13.632813-2.40625c8.699219-1.53125 17 4.277344 18.535156 12.980469l52.789063 299.382813-45.144532 7.957031-52.789062-299.378906c-1.535156-8.703125 4.277344-17.003907 12.976562-18.535157zm0 0" fill="#cff09e"/><path d="m398.363281 357.816406 45.0625-7.949218 9.921875 56.253906c2.191406 12.445312-6.117187 24.3125-18.5625 26.503906-12.441406 2.195312-24.308594-6.113281-26.503906-18.558594zm0 0" fill="#a8dba8"/><path d="m372.84375 37.28125-15.039062 2.71875c-8.339844 1.878906-13.730469 9.980469-12.242188 18.398438l8 47.203124 45.042969-8-8-47.28125c-1.507813-8.378906-9.316407-14.113281-17.761719-13.039062zm0 0" fill="#a8dba8"/><path d="m104.042969 128h168v240h-160c-17.671875 0-32-14.328125-32-32v-184c0-13.253906 10.746093-24 24-24zm0 0" fill="#79bd9a"/><path d="m233.804688 171.839844-15.519532-10.398438c-1.367187-.875-3.113281-.875-4.480468 0l-15.519532 10.398438c-1.222656.824218-2.796875.914062-4.101562.226562-1.304688-.683594-2.125-2.03125-2.140625-3.507812v-56.558594c0-4.417969 3.582031-8 8-8h32c4.417969 0 8 3.582031 8 8v56.480469c.019531 1.488281-.792969 2.863281-2.101563 3.566406-1.3125.707031-2.902344.625-4.136718-.207031zm0 0" fill="#cff09e"/><path d="m112.042969 304h160v64h-160c-17.671875 0-32-14.328125-32-32s14.328125-32 32-32zm0 0" fill="#a8dba8"/><g fill="#3b8686"><path d="m464.042969 451.839844-4.636719-26.398438c4.074219-6.648437 5.582031-14.558594 4.238281-22.242187l-9.761719-55.199219-53.199218-299.359375c-.3125-1.957031-.878906-3.867187-1.679688-5.679687-3.269531-7.296876-9.957031-12.488282-17.839844-13.839844-2.648437-.414063-5.347656-.414063-8 0l-16 2.71875c-5.019531.917968-9.613281 3.414062-13.121093 7.121094-.5625-21.683594-18.308594-38.9687505-40-38.960938h-264c-22.089844 0-40.0000002 17.910156-40.0000002 40v400c0 22.089844 17.9101562 40 40.0000002 40h264c22.09375 0 40-17.910156 40-40v-344l46.402343 263.28125 9.597657 55.039062c1.367187 7.636719 5.460937 14.515626 11.519531 19.359376l4.480469 26.480468c2.042969 11.609375 12.214843 20.019532 24 19.839844 1.414062.117188 2.832031.117188 4.242187 0 6.394532-1.03125 12.101563-4.605469 15.824219-9.910156 3.722656-5.300782 5.140625-11.882813 3.933594-18.25zm-59.199219-103.359375-41.679688-236.480469 31.519532-5.601562 41.679687 236.402343-25.917969 4.558594zm-50.078125-297.519531c1.304687-1.640626 3.199219-2.703126 5.277344-2.960938l16-2.71875h1.441406c1.632813.003906 3.222656.503906 4.558594 1.4375 1.742187 1.226562 2.925781 3.101562 3.28125 5.203125l6.71875 38.878906-31.519531 5.597657-6.960938-39.4375c-.367188-2.082032.0625-4.222657 1.203125-6zm-338.722656 29.039062h312v320h-312zm24-64h264c13.257812 0 24 10.746094 24 24v24h-312v-24c0-13.253906 10.746093-24 24-24zm264 448h-264c-13.253907 0-24-10.746094-24-24v-24h312v24c0 13.253906-10.742188 24-24 24zm104-99.761719 25.441406-4.238281 5.601563-1.039062 8 47.277343c.75 4.195313-.199219 8.511719-2.640626 12l-.5625.722657c-1.796874 2.300781-4.210937 4.046874-6.957031 5.039062h-8.800781c-6.132812-1.421875-10.859375-6.304688-12.082031-12.480469zm33.363281 99.761719c-2.066406.367188-4.191406-.09375-5.921875-1.28125-1.773437-1.210938-2.984375-3.085938-3.359375-5.199219l-2.878906-16.71875h8.957031c2.285156-.476562 4.511719-1.199219 6.640625-2.160156l2.960938 16.800781c.363281 4.066406-2.394532 7.757813-6.398438 8.558594zm0 0"/><path d="m272.042969 120h-24v-16c0-4.417969-3.582031-8-8-8h-48c-4.417969 0-8 3.582031-8 8v16h-80c-17.671875 0-32 14.328125-32 32v184c0 22.089844 17.910156 40 40 40h160c4.417969 0 8-3.582031 8-8v-240c0-4.417969-3.582031-8-8-8zm-72-8h32v49.039062l-11.597657-8c-2.671874-1.757812-6.132812-1.757812-8.800781 0l-11.601562 8zm-96 24h80v40c.007812 2.949219 1.636719 5.652344 4.242187 7.039062 2.546875 1.308594 5.597656 1.15625 8-.398437l19.757813-13.039063 19.601562 13.039063c2.449219 1.613281 5.589844 1.757813 8.175781.371094 2.589844-1.386719 4.207032-4.078125 4.222657-7.011719v-40h16v160h-152c-8.652344 0-17.074219 2.808594-24 8v-152c0-8.835938 7.164062-16 16-16zm8 224c-13.253907 0-24-10.746094-24-24s10.746093-24 24-24h152v16h-136c-4.417969 0-8 3.582031-8 8s3.582031 8 8 8h136v16zm0 0"/><path d="m124.042969 272h48c4.417969 0 8-3.582031 8-8s-3.582031-8-8-8h-40v-16h33.121093c4.417969 0 8-3.582031 8-8s-3.582031-8-8-8h-33.121093v-16h40c4.417969 0 8-3.582031 8-8s-3.582031-8-8-8h-48c-4.417969 0-8 3.582031-8 8v64c0 4.417969 3.582031 8 8 8zm0 0"/><path d="m200.042969 40c0 4.417969-3.582031 8-8 8s-8-3.582031-8-8 3.582031-8 8-8 8 3.582031 8 8zm0 0"/><path d="m168.042969 40c0 4.417969-3.582031 8-8 8s-8-3.582031-8-8 3.582031-8 8-8 8 3.582031 8 8zm0 0"/><path d="m208.042969 432h-64c-4.417969 0-8 3.582031-8 8s3.582031 8 8 8h64c4.417969 0 8-3.582031 8-8s-3.582031-8-8-8zm0 0"/></g></svg>