<svg height="480pt" viewBox="0 0 480.0336 480" width="480pt" xmlns="http://www.w3.org/2000/svg"><path d="m188.019531 375.878906h168c8.835938 0 16 7.164063 16 16v16c0 8.839844-7.164062 16-16 16h-168c-8.835937 0-16-7.160156-16-16v-16c0-8.835937 7.164063-16 16-16zm0 0" fill="#79bd9a"/><path d="m288.019531 375.878906h40v48h-40zm0 0" fill="#a8dba8"/><path d="m88.019531 423.878906h288c8.835938 0 16 7.164063 16 16v16c0 8.839844-7.164062 16-16 16h-288c-8.835937 0-16-7.160156-16-16v-16c0-8.835937 7.164063-16 16-16zm0 0" fill="#cff09e"/><path d="m112.019531 423.878906h48v48h-48zm0 0" fill="#a8dba8"/><path d="m15.953125 396.1875 145.492187-84c7.652344-4.417969 17.441407-1.796875 21.859376 5.855469l8 13.855469c4.417968 7.652343 1.792968 17.4375-5.859376 21.855468l-145.492187 84c-7.652344 4.417969-17.4375 1.796875-21.855469-5.855468l-8-13.855469c-4.417968-7.652344-1.796875-17.4375 5.855469-21.855469zm0 0" fill="#a8dba8"/><path d="m143.515625 322.523438 24 41.570312-103.925781 60-24-41.570312zm0 0" fill="#79bd9a"/><path d="m284.097656 319v32.878906h40v-33.917968c-13.246094 1.90625-26.671875 2.253906-40 1.039062zm0 0" fill="#79bd9a"/><g fill="#cff09e"><path d="m252.097656 343.878906h104c4.417969 0 8 3.582032 8 8v16c0 4.417969-3.582031 8-8 8h-104c-4.417968 0-8-3.582031-8-8v-16c0-4.417968 3.582032-8 8-8zm0 0"/><path d="m348.019531 255.878906c-56.617187.070313-108.300781-32.195312-133.097656-83.09375-24.792969-50.902344-18.339844-111.488281 16.617187-156.023437-53.636718 27.910156-84.886718 85.65625-78.914062 145.824219 5.96875 60.171874 47.960938 110.648437 106.039062 127.472656 58.078126 16.820312 120.546876-3.398438 157.753907-51.058594-21.09375 11.089844-44.570313 16.882812-68.398438 16.878906zm0 0"/><path d="m56.019531 151.878906c-13.136719-.042968-24.914062-8.109375-29.699219-20.34375-4.785156-12.234375-1.605468-26.152344 8.019532-35.09375-13.476563 2.34375-23.972656 12.988282-26.121094 26.496094-2.152344 13.503906 4.519531 26.882812 16.601562 33.296875 12.078126 6.410156 26.898438 4.4375 36.878907-4.914063-1.875.347657-3.773438.535157-5.679688.558594zm0 0"/><path d="m120.019531 71.878906c-8.835937 0-16-7.160156-16-16 .007813-2.261718.5-4.5 1.4375-6.558594-6.523437 2.902344-10.335937 9.773438-9.34375 16.84375.992188 7.070313 6.550781 12.628907 13.621094 13.621094 7.070313.992188 13.941406-2.820312 16.84375-9.34375-2.058594.9375-4.296875 1.429688-6.558594 1.4375zm0 0"/></g><path d="m427.378906 275.160156c70.207032-70.332031 70.207032-184.230468 0-254.558594-3.121094-3.101562-8.160156-3.101562-11.28125 0l-17.199218 17.199219c-58.496094-52.445312-147.785157-50.011719-203.339844 5.539063-55.550782 55.554687-57.984375 144.84375-5.539063 203.339844l-17.203125 17.199218c-3.101562 3.121094-3.101562 8.160156 0 11.28125 27.824219 27.980469 64.152344 45.933594 103.28125 51.039063v9.679687h-32c-4.417968 0-8 3.582032-8 8v24h-48c-13.253906 0-24 10.746094-24 24v16c-.003906 2.726563.457032 5.429688 1.359375 8h-71.597656l96-55.199218c5.484375-3.191407 9.484375-8.425782 11.117187-14.558594 1.722657-6.152344.855469-12.742188-2.398437-18.242188l-8-13.839844c-6.621094-11.445312-21.25-15.378906-32.71875-8.796874l-102.480469 58.957031-19.761718 11.679687-23.597657 13.363282c-5.519531 3.179687-9.550781 8.421874-11.199219 14.574218-1.652343 6.152344-.789062 12.707032 2.398438 18.222656l8 13.839844c3.179688 5.519532 8.421875 9.550782 14.574219 11.199219 6.152343 1.652344 12.710937.789063 18.226562-2.398437l21.199219-12.238282c-.804688 2.394532-1.210938 4.910156-1.199219 7.4375v16c0 13.257813 10.742188 24 24 24h288c13.253907 0 24-10.742187 24-24v-16c.070313-12.316406-9.195312-22.683594-21.441406-24 .949219-2.558594 1.4375-5.269531 1.441406-8v-16c-.015625-6.8125-2.921875-13.296875-8-17.839844v-30.160156c0-4.417968-3.582031-8-8-8h-32v-10.878906c36.152344-6.414062 69.453125-23.816406 95.359375-49.839844zm-286.800781 58.320313 16 27.679687-90.078125 52-16-27.679687zm24.960937-14.398438c1.195313-.679687 2.542969-1.039062 3.917969-1.042969 2.871094-.011718 5.527344 1.515626 6.960938 4l8 13.839844c1.0625 1.839844 1.351562 4.027344.800781 6.082032-.53125 2.050781-1.855469 3.804687-3.679688 4.878906l-11.121093 6.320312-16-27.679687zm-129.519531 111.757813c-1.855469 1.023437-4.027343 1.308594-6.082031.800781-2.0625-.550781-3.820312-1.90625-4.878906-3.761719l-8-13.839844c-1.167969-1.828124-1.542969-4.050781-1.039063-6.160156.550781-2.0625 1.902344-3.820312 3.757813-4.878906l16.640625-9.601562 16 27.761718zm164.558594-196.320313c12.816406-5.734375 26.234375-10.027343 40-12.800781 4.410156 19.195312 12.566406 37.328125 24 53.363281-24.839844-6.972656-47.09375-21.074219-64-40.5625zm-32.558594-78.640625h64c.339844 16.835938 2.078125 33.613282 5.199219 50.160156-16.164062 3.195313-31.859375 8.410157-46.71875 15.519532-13.296875-19.457032-21.066406-42.15625-22.480469-65.679688zm22.320313-81.679687c14.859375 7.113281 30.554687 12.328125 46.71875 15.519531-3.066406 16.554688-4.753906 33.332031-5.039063 50.160156h-64c1.464844-23.539062 9.289063-46.238281 22.640625-65.679687zm109.757812-58.320313c16 0 33.359375 23.203125 43.359375 60.960938-14.363281 2.042968-28.851562 3.058594-43.359375 3.039062-14.507812.019532-28.996094-.996094-43.359375-3.039062 10-37.757813 27.28125-60.960938 43.359375-60.960938zm99.921875 45.363282c-12.820312 5.734374-26.234375 10.027343-40 12.796874-4.378906-19.203124-12.539062-37.34375-24-53.359374 24.84375 6.960937 47.097657 21.066406 64 40.5625zm-99.921875 34.636718c15.714844.046875 31.410156-1.078125 46.960938-3.359375 2.90625 15.632813 4.5625 31.46875 4.960937 47.359375h-104c.3125-15.898437 1.96875-31.742187 4.957031-47.359375 15.601563 2.289063 31.351563 3.414063 47.121094 3.359375zm51.921875 60c-.398437 15.894532-2.054687 31.730469-4.960937 47.363282-31.148438-4.480469-62.773438-4.480469-93.921875 0-3.039063-15.617188-4.753907-31.457032-5.117188-47.363282zm-95.28125 63.042969c28.765625-4.054687 57.957031-4.054687 86.71875 0-10 37.757813-27.277343 60.957031-43.359375 60.957031-16.078125 0-33.359375-23.199218-43.359375-60.957031zm102.558594 2.796875c13.765625 2.773438 27.183594 7.066406 40 12.800781-16.902344 19.496094-39.152344 33.597657-64 40.5625 11.464844-16.019531 19.625-34.15625 24-53.363281zm50.242187 0c-14.863281-7.109375-30.558593-12.324219-46.722656-15.519531 3.128906-16.597657 4.871094-33.429688 5.203125-50.320313h64c-1.417969 23.523438-9.1875 46.222656-22.480469 65.679688zm-41.519531-81.839844c-.34375-16.832031-2.082031-33.613281-5.203125-50.160156 16.164063-3.191406 31.859375-8.40625 46.722656-15.519531 13.292969 19.460937 21.0625 42.15625 22.480469 65.679687zm-103.203125-119.199218c-11.429687 16.035156-19.585937 34.167968-24 53.359374-13.765625-2.769531-27.179687-7.0625-40-12.796874 16.910156-19.488282 39.160156-33.589844 64-40.5625zm-63.519531 237.28125c58.496094 52.445312 147.789063 50.011718 203.339844-5.542969 55.554687-55.550781 57.988281-144.839844 5.542969-203.335938l11.4375-11.363281c58.585937 64.878906 56.125 164.265625-5.597657 226.160156-25.011719 25.105469-57.546875 41.34375-92.640625 46.242188h-1.039062c-7.398438 1.027344-14.855469 1.535156-22.320313 1.519531-5.042969 0-10 0-14.960937-.640625h-.640625c-35.222657-3.210938-68.429688-17.847656-94.558594-41.679688zm-21.277344 149.917968v-16c0-4.417968 3.582031-8 8-8h92v32h-92c-4.417969 0-8-3.582031-8-8zm176-24c4.417969 0 8 3.582032 8 8v16c0 4.417969-3.582031 8-8 8h-20v-32zm-36 32h-24v-32h24zm-240 40v-16c0-4.417968 3.582031-8 8-8h16v32h-16c-4.417969 0-8-3.582031-8-8zm40 8v-32h32v32zm48 0v-32h72v32zm216-24v16c0 4.417969-3.582031 8-8 8h-120v-32h120c4.417969 0 8 3.582032 8 8zm-27.921875-72h-104v-16h104zm-40-32h-24v-8h8c5.359375 0 10.71875 0 16-.71875zm0 0" fill="#3b8686"/><path d="m40.019531 167.878906c22.089844 0 40-17.90625 40-40 0-22.089844-17.910156-40-40-40-22.09375 0-39.9999998 17.910156-39.9999998 40 0 22.09375 17.9062498 40 39.9999998 40zm0-64c13.253907 0 24 10.746094 24 24 0 13.257813-10.746093 24-24 24-13.257812 0-24-10.742187-24-24 0-13.253906 10.742188-24 24-24zm0 0" fill="#3b8686"/><path d="m112.019531 87.878906c13.253907 0 24-10.742187 24-24 0-13.253906-10.746093-24-24-24-13.257812 0-24 10.746094-24 24 0 13.257813 10.742188 24 24 24zm0-32c4.417969 0 8 3.582032 8 8 0 4.417969-3.582031 8-8 8s-8-3.582031-8-8c0-4.417968 3.582031-8 8-8zm0 0" fill="#3b8686"/></svg>