<svg height="479pt" viewBox="0 -15 479.44 479" width="479pt" xmlns="http://www.w3.org/2000/svg"><path d="m128 8.222656h48c8.835938 0 16 7.164063 16 16 0 8.835938-7.164062 16-16 16h-48c-8.835938 0-16-7.164062-16-16 0-8.835937 7.164062-16 16-16zm0 0" fill="#79bd9a"/><path d="m352 40.222656h-48c-8.835938 0-16-7.164062-16-16 0-8.835937 7.164062-16 16-16h48c8.835938 0 16 7.164063 16 16 0 8.835938-7.164062 16-16 16zm0 0" fill="#79bd9a"/><path d="m272 304.222656c4.417969 0 8 3.582032 8 8v12.078125c-2.808594 19.714844-19.6875 34.359375-39.601562 34.359375-19.910157 0-36.789063-14.644531-39.597657-34.359375l-.800781-12.078125c0-4.417968 3.582031-8 8-8zm0 0" fill="#a8dba8"/><path d="m410.238281 207.183594 4.160157 4.320312zm0 0" fill="#eb120d"/><path d="m400 256.222656c-33.664062.003906-64.871094-17.621094-82.246094-46.457031-17.371094-28.835937-18.371094-64.664063-2.632812-94.421875-36.433594 19.285156-56.484375 59.675781-49.824219 100.355469 6.660156 40.679687 38.546875 72.566406 79.226563 79.226562 40.679687 6.660157 81.070312-13.394531 100.355468-49.824219-13.816406 7.34375-29.230468 11.160157-44.878906 11.121094zm0 0" fill="#cff09e"/><path d="m160 256.222656c-33.664062.003906-64.871094-17.621094-82.246094-46.457031-17.371094-28.835937-18.371094-64.664063-2.632812-94.421875-36.433594 19.285156-56.484375 59.675781-49.824219 100.355469 6.660156 40.679687 38.546875 72.566406 79.226563 79.226562 40.679687 6.660157 81.070312-13.394531 100.355468-49.824219-13.816406 7.34375-29.230468 11.160157-44.878906 11.121094zm0 0" fill="#cff09e"/><path d="m184 200.222656c0 35.34375-28.652344 64-64 64s-64-28.65625-64-64c0-35.347656 28.652344-64 64-64s64 28.652344 64 64zm0 0" fill="#79bd9a"/><path d="m184 200.222656c0 8.835938-7.164062 16-16 16s-16-7.164062-16-16c0-8.835937 7.164062-16 16-16s16 7.164063 16 16zm0 0" fill="#a8dba8"/><g fill="#3b8686"><path d="m120 128.222656c-39.765625 0-72 32.234375-72 72s32.234375 72 72 72 72-32.234375 72-72-32.234375-72-72-72zm48 80c-4.417969 0-8-3.582031-8-8 0-4.417968 3.582031-8 8-8s8 3.582032 8 8c0 4.417969-3.582031 8-8 8zm-48 48c-27.742188-.023437-51.285156-20.351562-55.351562-47.792968-4.066407-27.441407 12.570312-53.722657 39.113281-61.789063s54.988281 4.515625 66.878906 29.582031h-2.640625c-13.253906 0-24 10.746094-24 24s10.746094 24 24 24h2.640625c-9.277344 19.554688-28.996094 32.015625-50.640625 32zm0 0"/><path d="m120 224.222656c-13.253906 0-24-10.746094-24-24 0-4.417968-3.582031-8-8-8s-8 3.582032-8 8c0 22.089844 17.910156 40 40 40 4.417969 0 8-3.582031 8-8 0-4.417968-3.582031-8-8-8zm0 0"/><path d="m112 168.222656c0 4.417969-3.582031 8-8 8s-8-3.582031-8-8c0-4.417968 3.582031-8 8-8s8 3.582032 8 8zm0 0"/><path d="m479.441406 203.183594v-2.5625l-16-96c-.304687-1.792969-1.207031-3.429688-2.5625-4.640625l-84.878906-79.597657c-1.902344-11.738281-12.109375-20.3124995-24-20.160156h-48c-13.253906 0-24 10.746094-24 24s10.746094 24 24 24h48c7.738281.007813 15.007812-3.714844 19.519531-10l77.039063 70.078125 9.601562 57.519531c-15.0625-42.96875-56.328125-71.144531-101.832031-69.527343-45.503906 1.613281-84.667969 32.640625-96.648437 76.570312-12.589844-5.28125-26.769532-5.28125-39.359376 0-11.980468-43.929687-51.144531-74.957031-96.648437-76.570312-45.503906-1.617188-86.769531 26.558593-101.832031 69.527343l9.601562-57.519531 77.039063-70.078125c4.511719 6.285156 11.78125 10.007813 19.519531 10h48c13.253906 0 24-10.746094 24-24s-10.746094-24-24-24h-48c-11.890625-.1523435-22.097656 8.421875-24 20.160156l-85.359375 77.917969c-1.355469 1.210938-2.257813 2.847657-2.5625 4.640625l-16 96v.402344h-.078125v2.160156c.390625.953125.960938 1.820313 1.679688 2.558594h14.320312c2.210938 57.4375 50.5625 102.207031 108 100 57.4375-2.210938 102.210938-50.5625 100-108 0-3.761719 0-7.441406-.558594-11.121094 10.347656-5.519531 22.769532-5.519531 33.117188 0 0 3.679688-.558594 7.359375-.558594 11.121094-2.210938 57.4375 42.5625 105.789062 100 108 57.4375 2.207031 105.789062-42.5625 108-100h11.199219c.71875-.738281 1.289062-1.605469 1.679687-2.558594zm-127.441406-170.960938h-48c-4.417969 0-8-3.582031-8-8 0-4.417968 3.582031-8 8-8h48c4.417969 0 8 3.582032 8 8 0 4.417969-3.582031 8-8 8zm-224-16h48c4.417969 0 8 3.582032 8 8 0 4.417969-3.582031 8-8 8h-48c-4.417969 0-8-3.582031-8-8 0-4.417968 3.582031-8 8-8zm-8 272c-48.601562 0-88-39.398437-88-88 0-48.601562 39.398438-88 88-88s88 39.398438 88 88c0 48.601563-39.398438 88-88 88zm240 0c-48.601562 0-88-39.398437-88-88 0-48.601562 39.398438-88 88-88s88 39.398438 88 88c0 48.601563-39.398438 88-88 88zm0 0"/><path d="m200 296.222656c-4.417969 0-8 3.582032-8 8v20c-.007812 1.105469.238281 2.203125.71875 3.199219 4.117188 22.859375 24.011719 39.492187 47.242188 39.492187 23.226562 0 43.121093-16.632812 47.238281-39.492187.519531-1.074219.792969-2.246094.800781-3.441406v-19.757813c0-4.417968-3.582031-8-8-8s-8 3.582032-8 8v17.519532c-.046875.558593-.046875 1.121093 0 1.679687-2.480469 15.53125-15.875 26.957031-31.601562 26.957031-15.722657 0-29.121094-11.425781-31.597657-26.957031-.097656-.566406-.230469-1.128906-.402343-1.679687v-17.519532c.003906-2.195312-.894532-4.292968-2.480469-5.804687-1.589844-1.511719-3.726563-2.304688-5.917969-2.195313zm0 0"/><path d="m360 336.222656c0 4.417969-3.582031 8-8 8s-8-3.582031-8-8c0-4.417968 3.582031-8 8-8s8 3.582032 8 8zm0 0"/><path d="m432 320.222656c0 4.417969-3.582031 8-8 8s-8-3.582031-8-8c0-4.417968 3.582031-8 8-8s8 3.582032 8 8zm0 0"/><path d="m400 360.222656c0 4.417969-3.582031 8-8 8s-8-3.582031-8-8c0-4.417968 3.582031-8 8-8s8 3.582032 8 8zm0 0"/><path d="m136 336.222656c0 4.417969-3.582031 8-8 8s-8-3.582031-8-8c0-4.417968 3.582031-8 8-8s8 3.582032 8 8zm0 0"/><path d="m88 352.222656c0 4.417969-3.582031 8-8 8s-8-3.582031-8-8c0-4.417968 3.582031-8 8-8s8 3.582032 8 8zm0 0"/><path d="m328 400.222656c-4.417969 0-8 3.582032-8 8 0 13.253906-10.746094 24-24 24h-112c-13.253906 0-24-10.746094-24-24 0-4.417968-3.582031-8-8-8s-8 3.582032-8 8c0 22.089844 17.910156 40 40 40h112c22.089844 0 40-17.910156 40-40 0-4.417968-3.582031-8-8-8zm0 0"/><path d="m391.359375 160.222656c-3.199219.878906-6.640625 2-10.160156 3.359375-2.878907-18-8.960938-35.359375-21.199219-35.359375s-18.320312 17.359375-21.199219 35.28125c-3.519531-1.363281-6.960937-2.480468-10.160156-3.363281-6.082031-1.757813-24.5625-7.039063-31.039063 4.082031-6.480468 11.121094 5.917969 24.480469 19.917969 36-14 11.519532-26 25.359375-19.917969 36 3.316407 4.851563 9.03125 7.496094 14.878907 6.878906 5.4375-.179687 10.824219-1.121093 16-2.800781 3.199219-.878906 6.640625-2 10.160156-3.359375 3.039063 17.921875 9.039063 35.28125 21.359375 35.28125s18.320312-17.359375 21.199219-35.28125c3.519531 1.359375 6.960937 2.480469 10.160156 3.359375 5.175781 1.679688 10.5625 2.621094 16 2.800781 5.820313.585938 11.496094-2.054687 14.800781-6.878906 6.160156-10.640625-5.839844-24.480468-19.921875-36 14.082031-11.519531 26.082031-25.359375 19.921875-36s-24.71875-5.839844-30.800781-4zm-23.359375 40v4.558594l-3.921875 2.402344-4 2.238281-4-2.238281-4-2.402344v-9.121094l4-2.398437 4-2.238281 4 2.238281 3.921875 2.398437zm-8-53.839844c3.140625 7.53125 5.164062 15.480469 6 23.597657-2 .882812-4 1.921875-6 2.960937l-6-2.960937c.835938-8.117188 2.859375-16.066407 6-23.597657zm-46.640625 26.960938c8.097656 1.007812 15.996094 3.21875 23.441406 6.558594 0 2.320312 0 4.558594-.402343 6.71875l-5.597657 3.679687c-6.578125-4.808593-12.449219-10.519531-17.441406-16.957031zm0 53.757812c4.992187-6.441406 10.863281-12.148437 17.441406-16.960937l5.597657 3.679687c0 2.160157 0 4.402344.402343 6.722657-7.445312 3.339843-15.34375 5.550781-23.441406 6.558593zm46.640625 26.960938c-3.140625-7.53125-5.164062-15.484375-6-23.601562l6-2.957032c2 1.039063 4 2.078125 6 2.957032-.835938 8.117187-2.859375 16.070312-6 23.601562zm46.640625-26.960938c-8.097656-1.007812-15.996094-3.21875-23.441406-6.558593 0-2.320313 0-4.5625.402343-6.722657l5.597657-3.679687c6.578125 4.8125 12.449219 10.519531 17.441406 16.960937zm-17.441406-36.800781-5.199219-3.679687c0-2.160156 0-4.398438-.398438-6.71875 7.441407-3.339844 15.34375-5.550782 23.4375-6.558594-5.113281 6.46875-11.121093 12.175781-17.839843 16.957031zm0 0"/></g></svg>