<svg height="480pt" viewBox="0 -72 480 480" width="480pt" xmlns="http://www.w3.org/2000/svg"><path d="m256 272c-106.039062 0-192-85.960938-192-192v-72h-40c-8.835938 0-16 7.164062-16 16v288c0 8.835938 7.164062 16 16 16h432c8.835938 0 16-7.164062 16-16v-40zm0 0" fill="#cff09e"/><path d="m336 192c0 57.4375-46.5625 104-104 104s-104-46.5625-104-104 46.5625-104 104-104 104 46.5625 104 104zm0 0" fill="#cff09e"/><path d="m8 96h88c4.417969 0 8 3.582031 8 8v128c0 4.417969-3.582031 8-8 8h-88zm0 0" fill="#a8dba8"/><path d="m8 136h40c4.417969 0 8 3.582031 8 8v48c0 4.417969-3.582031 8-8 8h-40zm0 0" fill="#79bd9a"/><path d="m472 240h-88c-4.417969 0-8-3.582031-8-8v-128c0-4.417969 3.582031-8 8-8h88zm0 0" fill="#a8dba8"/><path d="m472 200h-40c-4.417969 0-8-3.582031-8-8v-48c0-4.417969 3.582031-8 8-8h40zm0 0" fill="#79bd9a"/><path d="m456 8h-24c0 22.089844 17.910156 40 40 40v-24c0-8.835938-7.164062-16-16-16zm0 0" fill="#a8dba8"/><path d="m432 328h24c8.835938 0 16-7.164062 16-16v-24c-22.089844 0-40 17.910156-40 40zm0 0" fill="#a8dba8"/><path d="m8 288v24c0 8.835938 7.164062 16 16 16h24c0-22.089844-17.910156-40-40-40zm0 0" fill="#a8dba8"/><path d="m48 8h-24c-8.835938 0-16 7.164062-16 16v24c22.089844 0 40-17.910156 40-40zm0 0" fill="#a8dba8"/><path d="m344 168c0 57.4375-46.5625 104-104 104s-104-46.5625-104-104 46.5625-104 104-104 104 46.5625 104 104zm0 0" fill="#a8dba8"/><g fill="#79bd9a"><path d="m240 130.160156-36 26.160156 13.761719 42.238282h44.476562l13.761719-42.238282zm0 0"/><path d="m205.921875 69.839844-1.921875 5.839844 36 26.160156 36-26.160156-1.921875-5.839844c-22.050781-7.789063-46.105469-7.789063-68.15625 0zm0 0"/><path d="m136 170.078125 5.039062 3.601563 35.921876-26.160157-13.761719-42.238281h-6.160157c-6.996093 9.222656-12.402343 19.550781-16 30.558594-3.625 11.042968-5.328124 22.621094-5.039062 34.238281zm0 0"/><path d="m322.878906 105.28125h-6.160156l-13.757812 42.238281 35.917968 26.160157 5.042969-3.601563c.269531-11.5625-1.433594-23.085937-5.042969-34.078125-3.578125-11.0625-8.984375-21.445312-16-30.71875zm0 0"/><path d="m325.28125 227.441406-1.921875-5.921875h-44.480469l-13.679687 42.480469 4.960937 3.601562c22.394532-6.667968 41.839844-20.777343 55.121094-40zm0 0"/><path d="m209.839844 267.441406 4.960937-3.601562-13.679687-42.320313h-44.480469l-1.921875 5.921875c13.28125 19.222656 32.726562 33.332032 55.121094 40zm0 0"/></g><path d="m472 0h-464c-4.417969 0-8 3.582031-8 8v320c0 4.417969 3.582031 8 8 8h464c4.417969 0 8-3.582031 8-8v-320c0-4.417969-3.582031-8-8-8zm-137.761719 180.160156h.800781c-1.445312 11.609375-5.054687 22.839844-10.640624 33.121094h-41.4375l-11.839844-16 11.199218-34.5625 19.199219-6.238281zm-22.238281-35.679687 8.960938-27.359375c8.59375 13.304687 13.757812 28.53125 15.039062 44.320312zm1.28125 85.039062c-10.152344 12.152344-23.152344 21.609375-37.839844 27.519531l8.957032-27.519531zm-4.5625-126.71875-12.480469 38.398438-19.199219 6.242187-29.039062-21.363281v-20.15625l32.640625-24s.480469-.480469.71875-.640625c10.535156 5.050781 20.074219 11.960938 28.160156 20.398438zm-112 110.71875h-41.117188c-5.585937-10.277343-9.195312-21.511719-10.640624-33.121093h.800781l32.71875-24 19.199219 6.242187 11.199218 34.558594zm7.203125 43.519531c-14.542969-5.90625-27.441406-15.238281-37.601563-27.199218h28.640626zm-59.921875-95.597656c1.066406-15.613281 5.957031-30.722656 14.238281-44l9.761719 27.039063zm58.320312-14-19.199218-6.242187-12.480469-38.398438-.480469-.878906c8.085938-8.4375 17.625-15.347656 28.160156-20.402344 0 0 .398438.480469.71875.640625l32.640626 24v20.160156zm37.679688-7.363281 26.558594 19.28125-10.160156 31.199219h-32.398438l-10.160156-31.199219zm0-48-23.359375-16.957031c15.324219-3.945313 31.394531-3.945313 46.71875 0zm-224-76.078125h22.960938c-2.914063 11.257812-11.703126 20.046875-22.960938 22.960938zm0 128h32v48h-32zm0 64h40c4.417969 0 8-3.582031 8-8v-64c0-4.417969-3.582031-8-8-8h-40v-24h80v128h-80zm0 112v-22.960938c11.257812 2.914063 20.046875 11.703126 22.960938 22.960938zm216 0h-176.71875c-3.417969-20.109375-19.171875-35.863281-39.28125-39.28125v-32.71875h88c4.417969 0 8-3.582031 8-8v-144c0-4.417969-3.582031-8-8-8h-88v-32.71875c20.109375-3.417969 35.863281-19.171875 39.28125-39.28125h176.71875v40.398438c-31.746094 2.3125-61.011719 18.019531-80.480469 43.203124-25.339843 32.636719-30.652343 76.578126-13.816406 114.3125 16.835937 37.738282 53.082031 63.140626 94.296875 66.085938zm-9.441406-57.679688c.039062-.320312.039062-.640624 0-.960937l-12.480469-38.398437 11.84375-16h36.316406l11.839844 16-12.476563 38.398437v.960937c-5.804687 1.105469-11.695312 1.667969-17.601562 1.679688-5.851562-.03125-11.6875-.59375-17.441406-1.679688zm241.441406 57.679688h-22.960938c2.914063-11.257812 11.703126-20.046875 22.960938-22.960938zm0-128h-32v-48h32zm0-64h-40c-4.417969 0-8 3.582031-8 8v64c0 4.417969 3.582031 8 8 8h40v24h-80v-128h80zm0-40h-88c-4.417969 0-8 3.582031-8 8v144c0 4.417969 3.582031 8 8 8h88v32.71875c-20.109375 3.417969-35.863281 19.171875-39.28125 39.28125h-176.71875v-40c41.203125-2.9375 77.441406-28.316406 94.289062-66.03125 16.847657-37.714844 11.574219-81.640625-13.730468-114.289062-19.46875-25.230469-48.769532-40.972657-80.558594-43.28125v-40.398438h176.71875c3.417969 20.109375 19.171875 35.863281 39.28125 39.28125zm0-49.039062c-11.257812-2.914063-20.046875-11.703126-22.960938-22.960938h22.960938zm0 0" fill="#3b8686"/></svg>