<svg height="480pt" viewBox="0 0 480 480.00001" width="480pt" xmlns="http://www.w3.org/2000/svg"><path d="m232 432c-106.039062 0-192-85.960938-192-192v-136c-17.671875 0-32 14.328125-32 32v304c0 17.671875 14.328125 32 32 32h168c17.671875 0 32-14.328125 32-32v-8zm0 0" fill="#cff09e"/><path d="m208 104h-40v75.679688c-33.328125 10.480468-56.003906 41.382812-56 76.320312-.011719 12.636719 3.003906 25.089844 8.800781 36.320312-28.917969 27.214844-39.808593 68.523438-28.078125 106.460938 11.734375 37.933594 44.046875 65.878906 83.277344 72.019531v1.199219h32c13.253906 0 24-10.746094 24-24v-320c0-13.253906-10.746094-24-24-24zm0 0" fill="#cff09e"/><path d="m188 368c0 35.347656-28.652344 64-64 64s-64-28.652344-64-64 28.652344-64 64-64 64 28.652344 64 64zm0 0" fill="#a8dba8"/><path d="m160.398438 207.519531c-10.675782 13.902344-16.441407 30.953125-16.398438 48.480469v2.398438c12.300781-7.101563 19.914062-20.195313 20-34.398438-.015625-5.6875-1.242188-11.304688-3.601562-16.480469zm0 0" fill="#9e0c09"/><path d="m164 224c0 22.089844-17.910156 40-40 40s-40-17.910156-40-40 17.910156-40 40-40 40 17.910156 40 40zm0 0" fill="#a8dba8"/><path d="m72 152c0 8.835938-7.164062 16-16 16s-16-7.164062-16-16 7.164062-16 16-16 16 7.164062 16 16zm0 0" fill="#a8dba8"/><path d="m208 152c0 8.835938-7.164062 16-16 16s-16-7.164062-16-16 7.164062-16 16-16 16 7.164062 16 16zm0 0" fill="#a8dba8"/><path d="m156 368c0 17.671875-14.328125 32-32 32s-32-14.328125-32-32 14.328125-32 32-32 32 14.328125 32 32zm0 0" fill="#79bd9a"/><path d="m311.199219 292.320312c5.796875-11.230468 8.8125-23.683593 8.800781-36.320312 0-44.183594-35.816406-80-80-80s-80 35.816406-80 80c-.011719 12.636719 3.003906 25.089844 8.800781 36.320312-31.09375 29.203126-41.199219 74.433594-25.496093 114.09375 15.707031 39.664063 54.039062 65.710938 96.695312 65.710938s80.988281-26.046875 96.695312-65.710938c15.703126-39.660156 5.597657-84.890624-25.496093-114.09375zm0 0" fill="#a8dba8"/><path d="m216 72h48v168h-48zm0 0" fill="#79bd9a"/><path d="m280 272c0 22.089844-17.910156 40-40 40s-40-17.910156-40-40 17.910156-40 40-40 40 17.910156 40 40zm0 0" fill="#79bd9a"/><path d="m208 8h64c4.417969 0 8 3.582031 8 8v48c0 4.417969-3.582031 8-8 8h-64c-4.417969 0-8-3.582031-8-8v-48c0-4.417969 3.582031-8 8-8zm0 0" fill="#a8dba8"/><path d="m216 352h48c4.417969 0 8 3.582031 8 8v16c0 4.417969-3.582031 8-8 8h-48c-4.417969 0-8-3.582031-8-8v-16c0-4.417969 3.582031-8 8-8zm0 0" fill="#cff09e"/><path d="m312 328h152c4.417969 0 8 3.582031 8 8v128c0 4.417969-3.582031 8-8 8h-152c-4.417969 0-8-3.582031-8-8v-128c0-4.417969 3.582031-8 8-8zm0 0" fill="#a8dba8"/><path d="m312 328h152c4.417969 0 8 3.582031 8 8v56h-168v-56c0-4.417969 3.582031-8 8-8zm0 0" fill="#79bd9a"/><g fill="#3b8686"><path d="m256 344h-32c-13.253906 0-24 10.746094-24 24s10.746094 24 24 24h32c13.253906 0 24-10.746094 24-24s-10.746094-24-24-24zm0 32h-32c-4.417969 0-8-3.582031-8-8s3.582031-8 8-8h32c4.417969 0 8 3.582031 8 8s-3.582031 8-8 8zm0 0"/><path d="m480 392v-64c0-4.417969-3.582031-8-8-8h-72c-4.417969 0-8-3.582031-8-8s3.582031-8 8-8c13.253906 0 24-10.746094 24-24-.035156-5.921875-2.257812-11.617188-6.238281-16 3.980469-4.382812 6.203125-10.078125 6.238281-16 0-13.253906-10.746094-24-24-24s-24 10.746094-24 24c0 4.417969-3.582031 8-8 8s-8-3.582031-8-8-3.582031-8-8-8-8 3.582031-8 8-3.582031 8-8 8-8-3.582031-8-8c-.019531-1.164062-.292969-2.3125-.800781-3.359375-4.019531-31.882813-25.222657-58.984375-55.199219-70.5625v-94.078125h8c4.417969 0 8-3.582031 8-8v-8h8c4.417969 0 8-3.582031 8-8s-3.582031-8-8-8h-8v-16h8c4.417969 0 8-3.582031 8-8s-3.582031-8-8-8h-8v-8c0-4.417969-3.582031-8-8-8h-80c-4.417969 0-8 3.582031-8 8v8h-8c-4.417969 0-8 3.582031-8 8s3.582031 8 8 8h8v16h-8c-4.417969 0-8 3.582031-8 8s3.582031 8 8 8h8v8c0 4.417969 3.582031 8 8 8h8v16h-168c-22.089844 0-40 17.910156-40 40v304c0 22.089844 17.910156 40 40 40h168c3.941406-.066406 7.847656-.710938 11.601562-1.921875 6.726563 1.25 13.554688 1.894531 20.398438 1.921875 19.675781.007812 39-5.210938 56-15.121094v7.121094c0 4.417969 3.582031 8 8 8h168c4.417969 0 8-3.582031 8-8zm-16 32h-26v-24h26zm-137.28125-153.839844c8.570312 3.539063 18.410156 1.828125 25.28125-4.398437 4.382812 3.980469 10.078125 6.203125 16 6.238281 13.253906 0 24-10.746094 24-24 0-4.417969 3.582031-8 8-8s8 3.582031 8 8-3.582031 8-8 8-8 3.582031-8 8 3.582031 8 8 8 8 3.582031 8 8-3.582031 8-8 8c-7.78125.023438-15.066406 3.8125-19.546875 10.171875-4.484375 6.355469-5.605469 14.492187-3.011719 21.828125h-36.480468c-5.09375-10.789062-11.871094-20.699219-20.082032-29.359375 2.761719-6.570313 4.722656-13.445313 5.839844-20.480469zm-118.71875-254.160156h64v48h-64zm32 224c17.671875 0 32 14.328125 32 32s-14.328125 32-32 32-32-14.328125-32-32 14.328125-32 32-32zm16-128v24h-32v-24zm-32-16v-16h32v16zm32 56v24h-32v-24zm0 40v34.800781c-10.339844-3.734375-21.660156-3.734375-32 0v-34.800781zm-216 272c-13.253906 0-24-10.746094-24-24v-304c0-13.253906 10.746094-24 24-24h168v22.160156c-4.394531-3.953125-10.089844-6.148437-16-6.160156-13.253906 0-24 10.746094-24 24s10.746094 24 24 24c5.910156-.011719 11.605469-2.207031 16-6.160156v4.238281c-16.101562 6.175781-30.019531 16.976563-40 31.042969-9.453125-22.097656-33.792969-33.796875-56.953125-27.375-23.160156 6.417968-38.003906 28.980468-34.730469 52.789062 3.273438 23.808594 23.648438 41.53125 47.683594 41.464844 10.089844-.066406 19.898438-3.347656 28-9.359375.695312 9.644531 2.992188 19.109375 6.800781 28-3.128906 3.324219-6.066406 6.824219-8.800781 10.480469-8.265625-3.339844-17.085938-5.074219-26-5.121094-39.765625 0-72 32.234375-72 72s32.234375 72 72 72c9.046875-.011719 18.003906-1.75 26.398438-5.121094 8.675781 11.695313 19.542968 21.585938 32 29.121094zm160-312c0 4.417969-3.582031 8-8 8s-8-3.582031-8-8 3.582031-8 8-8 8 3.582031 8 8zm-44 72c0 17.671875-14.328125 32-32 32s-32-14.328125-32-32 14.328125-32 32-32 32 14.328125 32 32zm-25.601562 167.039062c-2.082032.597657-4.230469.921876-6.398438.960938-13.253906 0-24-10.746094-24-24s10.746094-24 24-24c2.167969.039062 4.316406.363281 6.398438.960938-1.566407 7.578124-2.367188 15.296874-2.398438 23.039062.019531 7.742188.824219 15.460938 2.398438 23.039062zm-6.398438-63.039062c-22.089844 0-40 17.910156-40 40s17.910156 40 40 40c3.683594-.007812 7.347656-.546875 10.878906-1.601562 1.859375 5.046874 4.050782 9.964843 6.5625 14.722656-23.117187 7.714844-48.570312-.40625-62.945312-20.085938-14.378906-19.675781-14.378906-46.394531 0-66.070312 14.375-19.679688 39.828125-27.800782 62.945312-20.085938-2.546875 4.742188-4.738281 9.660156-6.5625 14.722656-3.53125-1.054687-7.195312-1.59375-10.878906-1.601562zm172 0v117.761719c-16.246094 11.890625-35.867188 18.28125-56 18.238281-53.019531 0-96-42.980469-96-96-.078125-18.878906 5.496094-37.351562 16-53.039062 4.035156-5.976563 8.703125-11.503907 13.921875-16.480469 2.882813-2.371094 3.746094-6.421875 2.078125-9.761719-8.746094-17.113281-10.285156-37.015625-4.273438-55.273438 6.011719-18.257812 19.070313-33.351562 36.273438-41.925781v44.800781c-14.832031 13.265626-19.941406 34.3125-12.839844 52.902344 7.101563 18.59375 24.9375 30.875 44.839844 30.875s37.738281-12.28125 44.839844-30.875c7.101562-18.589844 1.992187-39.636718-12.839844-52.902344v-44.800781c17.203125 8.574219 30.261719 23.667969 36.273438 41.925781 6.011718 18.257813 4.472656 38.160157-4.273438 55.273438-1.597656 3.171875-.914062 7.015625 1.679688 9.441406 6.78125 6.390625 12.578124 13.75 17.199218 21.839844h-18.878906c-4.417969 0-8 3.582031-8 8zm42 136h-26v-24h26zm0-72v32h-26v-88h152v48h-118c-4.417969 0-8 3.582031-8 8zm42 72h-26v-24h26zm0-40h-26v-24h26zm42 40h-26v-24h26zm0-40h-26v-24h26zm16 16h26v24h-26zm0 0"/><path d="m448 360c0 4.417969-3.582031 8-8 8s-8-3.582031-8-8 3.582031-8 8-8 8 3.582031 8 8zm0 0"/><path d="m416 360c0 4.417969-3.582031 8-8 8s-8-3.582031-8-8 3.582031-8 8-8 8 3.582031 8 8zm0 0"/><path d="m376 360c0 4.417969-3.582031 8-8 8s-8-3.582031-8-8 3.582031-8 8-8 8 3.582031 8 8zm0 0"/><path d="m344 360c0 4.417969-3.582031 8-8 8s-8-3.582031-8-8 3.582031-8 8-8 8 3.582031 8 8zm0 0"/><path d="m80 152c0-13.253906-10.746094-24-24-24s-24 10.746094-24 24 10.746094 24 24 24 24-10.746094 24-24zm-32 0c0-4.417969 3.582031-8 8-8s8 3.582031 8 8-3.582031 8-8 8-8-3.582031-8-8zm0 0"/><path d="m132 224c0 4.417969-3.582031 8-8 8s-8-3.582031-8-8 3.582031-8 8-8 8 3.582031 8 8zm0 0"/><path d="m360 136c13.253906 0 24-10.746094 24-24v-32h48v17.441406c-9.863281-3.488281-20.847656-.1875-27.152344 8.160156-6.304687 8.347657-6.476562 19.816407-.425781 28.351563 6.054687 8.53125 16.933594 12.160156 26.894531 8.972656 9.964844-3.191406 16.714844-12.464843 16.683594-22.925781v-80c0-4.417969-3.582031-8-8-8h-64c-4.417969 0-8 3.582031-8 8v49.441406c-9.023438-3.277344-19.132812-.859375-25.695312 6.144532-6.566407 7.003906-8.328126 17.25-4.476563 26.042968 3.851563 8.792969 12.574219 14.445313 22.171875 14.371094zm64-8c-4.417969 0-8-3.582031-8-8s3.582031-8 8-8 8 3.582031 8 8-3.582031 8-8 8zm-40-80h48v16h-48zm-24 56c4.417969 0 8 3.582031 8 8s-3.582031 8-8 8-8-3.582031-8-8 3.582031-8 8-8zm0 0"/></g></svg>