<svg height="482pt" viewBox="-1 0 482 482.10745" width="482pt" xmlns="http://www.w3.org/2000/svg"><path d="m441.253906 83.066406-171.359375-45.917968c1.453125 4.164062 2.183594 8.546874 2.160157 12.960937.007812 9.710937-3.519532 19.09375-9.921876 26.398437l168.722657 45.601563c10.667969 2.871094 21.644531-3.453125 24.519531-14.121094 2.871094-10.671875-3.449219-21.648437-14.121094-24.519531zm0 0" fill="#a8dba8"/><path d="m440.054688 82.109375c17.671874 0 32 14.324219 32 32v272c0 17.671875-14.328126 32-32 32-17.675782 0-32-14.328125-32-32v-272c0-17.675781 14.324218-32 32-32zm0 0" fill="#a8dba8"/><path d="m448.054688 114.109375c0 4.417969-3.582032 8-8 8-4.417969 0-8-3.582031-8-8 0-4.421875 3.582031-8 8-8 4.417968 0 8 3.578125 8 8zm0 0" fill="#3b8686"/><path d="m213.894531 212.027344c-4.507812 13.925781-16.261719 24.277344-30.644531 26.988281-14.382812 2.714844-29.097656-2.644531-38.367188-13.972656-9.269531-11.328125-11.613281-26.8125-6.109374-40.375" fill="#a8dba8"/><path d="m448.054688 306.109375c0 4.417969-3.582032 8-8 8-4.417969 0-8-3.582031-8-8v-152c0-4.421875 3.582031-8 8-8 4.417968 0 8 3.578125 8 8" fill="#3b8686"/><path d="m376.054688 346.109375c-26.511719 0-48 21.488281-48 48v80h144v-128zm0 0" fill="#a8dba8"/><path d="m16.054688 442.109375h136v16c0 8.835937-7.164063 16-16 16h-120c-4.417969 0-8-3.582031-8-8v-16c0-4.421875 3.582031-8 8-8zm0 0" fill="#79bd9a"/><path d="m288.054688 474.109375h-120c-8.835938 0-16-7.164063-16-16v-16h136c4.417968 0 8 3.578125 8 8v16c0 4.417969-3.582032 8-8 8zm0 0" fill="#79bd9a"/><path d="m24.054688 442.109375h128v-24l-109.121094-44.480469c-4.660156-.855468-9.457032.402344-13.101563 3.429688s-5.761719 7.511718-5.777343 12.25zm0 0" fill="#cff09e"/><path d="m280.054688 442.109375h-128v-24l109.117187-20.480469c4.71875-.863281 9.570313.429688 13.226563 3.53125 3.660156 3.097656 5.734374 7.675782 5.65625 12.46875zm0 0" fill="#cff09e"/><path d="m264.054688 74.109375c-30.929688 0-56-25.074219-56-56 0-.960937 0-1.921875 0-2.882813-6.691407 4.636719-11.777344 11.234376-14.5625 18.882813l-13.117188 36.078125c27.382812 1.027344 53.710938 10.8125 75.117188 27.921875zm0 0" fill="#cff09e"/><path d="m280.054688 194.109375c-77.28125 0-141.039063-50.082031-150.722657-114.800781-28.242187 11.109375-51.570312 31.96875-65.757812 58.800781-2.101563 4.042969-2.378907 8.796875-.757813 13.058594 1.617188 4.261719 4.980469 7.628906 9.238282 9.257812l208 75.839844c4.433593 1.636719 9.367187 1.226563 13.472656-1.117187 4.105468-2.347657 6.964844-6.386719 7.804687-11.039063 2.15625-10.523437 2.992188-21.273437 2.480469-32-7.863281 1.21875-15.800781 1.886719-23.757812 2zm0 0" fill="#cff09e"/><g fill="#3b8686"><path d="m440.054688 74.109375h-1.199219l-163.121094-43.683594c-7.304687-18.558593-25.324219-30.671875-45.265625-30.42187475-19.945312.24999975-37.660156 12.80468775-44.496094 31.54296875l-11.199218 30.800781c-56.589844.644532-106.867188 36.265625-126.238282 89.441406-.824218 1.96875-.824218 4.1875 0 6.160157.949219 1.902343 2.574219 3.386719 4.558594 4.160156l75.761719 27.519531c-4.21875 23.167969 9 45.976563 31.199219 53.839844 5.261718 1.882812 10.808593 2.859375 16.398437 2.878906 17.21875.066406 33.152344-9.089844 41.761719-24l75.839844 27.601563c.871093.316406 1.792968.476562 2.71875.476562 3.367187 0 6.375-2.109375 7.519531-5.277343 19.265625-53.203126 3.703125-112.777344-39.121094-149.761719l3.121094-8.71875 131.761719 35.441406v216h-24c-30.929688 0-56 25.070313-56 56v80c0 4.417969 3.582031 8 8 8h144c4.417968 0 8-3.582031 8-8v-360c0-22.09375-17.910157-40-40-40zm-250.160157 153.199219c-10.402343 4.875-22.617187 3.800781-32.007812-2.8125-9.394531-6.613282-14.519531-17.753906-13.433594-29.1875l58.242187 21.199218c-3.207031 4.695313-7.632812 8.429688-12.800781 10.800782zm95.199219-80c12.359375 26.320312 14.664062 56.253906 6.480469 84.160156l-150-54.320312-74.800781-27.199219c25.625-57.707031 91.582031-85.683594 150.878906-64 11.773437 4.304687 22.808594 10.402343 32.722656 18.078125l.878906.71875c14.425782 11.503906 26.007813 26.175781 33.839844 42.882812zm-62.238281-77.121094c-10.128907-3.675781-20.65625-6.148438-31.363281-7.359375l9.523437-26.082031c6.117187-16.589844 24.527344-25.078125 41.117187-18.957032 16.589844 6.117188 25.082032 24.527344 18.960938 41.117188l-5.039062 15.203125-4 10.878906c-9.140626-5.941406-18.941407-10.800781-29.199219-14.480469zm53.277343-6.078125c1.953126-5.304687 2.957032-10.910156 2.960938-16.5625l134.71875 36.082031c-6.445312 5.597656-10.929688 13.109375-12.796875 21.4375l-127.363281-33.757812zm139.921876 50c0-13.257813 10.746093-24 24-24 13.253906 0 24 10.742187 24 24v224h-48zm48 352h-128v-72c0-22.09375 17.90625-40 40-40h88zm0 0"/><path d="m296.054688 434.109375h-8v-20.800781c-.027344-7.105469-3.199219-13.835938-8.667969-18.375-5.464844-4.542969-12.664063-6.425782-19.652344-5.144532l-107.039063 20.320313-109.921874-39.523437c-2.710938-1.066407-5.785157-.578126-8.027344 1.277343-2.246094 1.855469-3.304688 4.785157-2.765625 7.644531.535156 2.863282 2.585937 5.207032 5.351562 6.121094l106.722657 38.078125v8l-126.160157-29.597656c-4.417969-1.019531-8.824219 1.738281-9.839843 6.15625-1.015626 4.421875 1.742187 8.824219 6.160156 9.84375l68.878906 16h-75.039062c-4.417969 0-8.0000005 3.578125-8.0000005 8v24c0 8.835937 7.1640625 16 16.0000005 16h120c5.917968-.039063 11.617187-2.257813 16-6.242187 4.378906 3.984374 10.078124 6.203124 16 6.242187h120c8.835937 0 16-7.164063 16-16v-24c0-4.421875-3.582032-8-8-8zm-152 24c0 4.417969-3.582032 8-8 8h-120v-16h128zm16-33.363281 102.640624-19.277344c2.34375-.40625 4.746094.253906 6.558594 1.800781 1.808594 1.546875 2.835938 3.816407 2.800782 6.199219v20.640625h-112zm8 41.363281c-4.417969 0-8-3.582031-8-8v-8h128v16zm0 0"/><path d="m99.972656 328.988281c1.234375.730469 2.644532 1.117188 4.082032 1.121094 2.824218-.003906 5.4375-1.492187 6.878906-3.921875l24-40c1.796875-2.46875 2.03125-5.746094.601562-8.445312-1.425781-2.699219-4.265625-4.351563-7.320312-4.257813-3.050782.097656-5.785156 1.921875-7.042969 4.703125l-24 40c-2.144531 3.765625-.902344 8.550781 2.800781 10.800781zm0 0"/><path d="m208.054688 330.109375h1.277343c2.136719-.316406 4.054688-1.476563 5.320313-3.226563 1.261718-1.746093 1.769531-3.929687 1.402344-6.054687l-8-48c-.707032-4.417969-4.863282-7.425781-9.28125-6.71875-4.417969.703125-7.425782 4.859375-6.71875 9.277344l8 48c.632812 3.914062 4.035156 6.773437 8 6.722656zm0 0"/><path d="m100.453125 218.988281-32 16c-3.921875 1.996094-5.496094 6.785157-3.519531 10.71875 1.355468 2.691407 4.109375 4.390625 7.121094 4.402344 1.253906.011719 2.492187-.289063 3.597656-.882813l32-16c3.589844-2.160156 4.90625-6.722656 3.015625-10.464843-1.890625-3.738281-6.347657-5.386719-10.214844-3.773438zm0 0"/></g></svg>