<svg height="479pt" viewBox="-47 0 479 479.30151" width="479pt" xmlns="http://www.w3.org/2000/svg"><path d="m264.152344 399.609375c0 39.765625-32.238282 72-72 72-39.765625 0-72-32.234375-72-72 0-39.761719 32.234375-72 72-72 39.761718 0 72 32.238281 72 72zm0 0" fill="#79bd9a"/><path d="m104.152344 343.609375h176c8.835937 0 16 7.164063 16 16s-7.164063 16-16 16h-176c-8.839844 0-16-7.164063-16-16s7.160156-16 16-16zm0 0" fill="#a8dba8"/><path d="m104.152344 375.609375h176c8.835937 0 16 7.164063 16 16s-7.164063 16-16 16h-176c-8.839844 0-16-7.164063-16-16s7.160156-16 16-16zm0 0" fill="#a8dba8"/><path d="m268.152344 295.609375c-62.875.0625-121.226563-32.6875-153.921875-86.394531-32.699219-53.703125-35.003907-120.578125-6.078125-176.40625-41.730469 27.691406-67.140625 74.15625-67.941406 124.230468-.800782 50.070313 23.117187 97.324219 63.941406 126.332032v28.238281c0 17.675781 14.324218 32 32 32h112c17.671875 0 32-14.324219 32-32v-16c-4 0-8 0-12 0zm0 0" fill="#cff09e"/><g fill="#3b8686"><path d="m64.152344 215.609375c0-4.417969-3.582032-8-8-8h-40v-56c0-4.417969-3.582032-8-8-8-4.417969 0-8 3.582031-8 8v64c0 4.417969 3.582031 8 8 8h48c4.417968 0 8-3.582031 8-8zm0 0"/><path d="m136.152344 159.609375c4.417968 0 8-3.582031 8-8s-3.582032-8-8-8h-48c-4.417969 0-8 3.582031-8 8v64c0 4.417969 3.582031 8 8 8h48c4.417968 0 8-3.582031 8-8s-3.582032-8-8-8h-40v-16h40c4.417968 0 8-3.582031 8-8s-3.582032-8-8-8h-40v-16zm0 0"/><path d="m216.152344 223.609375c4.417968 0 8-3.582031 8-8v-64c0-4.417969-3.582032-8-8-8h-48c-4.417969 0-8 3.582031-8 8v64c0 4.417969 3.582031 8 8 8 4.417968 0 8-3.582031 8-8v-24h32v24c0 4.417969 3.582031 8 8 8zm-40-48v-16h32v16zm0 0"/><path d="m304.152344 183.609375v-32c0-4.417969-3.582032-8-8-8h-48c-4.417969 0-8 3.582031-8 8v64c0 4.417969 3.582031 8 8 8 4.417968 0 8-3.582031 8-8v-24h4.71875l29.601562 29.679687c1.5 1.515626 3.546875 2.367188 5.679688 2.367188 2.132812 0 4.175781-.851562 5.679687-2.367188 1.511719-1.5 2.363281-3.546874 2.363281-5.679687s-.851562-4.175781-2.363281-5.679687l-18.402343-18.320313h12.722656c4.417968 0 8-3.582031 8-8zm-16-8h-32v-16h32zm0 0"/><path d="m376.152344 143.609375c-4.417969 0-8 3.582031-8 8v40l-33.601563-44.800781c-2.066406-2.753906-5.664062-3.875-8.929687-2.789063-3.265625 1.089844-5.46875 4.148438-5.46875 7.589844v64c0 4.417969 3.582031 8 8 8 4.417968 0 8-3.582031 8-8v-40l33.597656 44.800781c1.511719 2.015625 3.882812 3.199219 6.402344 3.199219.867187-.015625 1.726562-.148437 2.558594-.398437 3.257812-1.101563 5.449218-4.160157 5.441406-7.601563v-64c0-4.417969-3.582032-8-8-8zm0 0"/><path d="m232.152344 119.609375c0 4.417969 3.582031 8 8 8 4.417968 0 8-3.582031 8-8 0-13.253906-10.746094-24-24-24-5.910156.015625-11.609375 2.207031-16 6.160156-9.113282-8.148437-22.890625-8.148437-32 0-4.394532-3.953125-10.089844-6.144531-16-6.160156-13.257813 0-24 10.746094-24 24 0 4.417969 3.582031 8 8 8 4.417968 0 8-3.582031 8-8s3.582031-8 8-8c4.417968 0 8 3.582031 8 8s3.582031 8 8 8c4.417968 0 8-3.582031 8-8s3.582031-8 8-8c4.417968 0 8 3.582031 8 8s3.582031 8 8 8c4.417968 0 8-3.582031 8-8s3.582031-8 8-8c4.417968 0 8 3.582031 8 8zm0 0"/><path d="m41.910156 135.609375c2.082032.453125 4.253906.054687 6.039063-1.101563 1.789062-1.15625 3.039062-2.976562 3.480469-5.058593 14.378906-66.207031 72.96875-113.4375 140.722656-113.4375 67.75 0 126.339844 47.230469 140.71875 113.4375.804687 3.753906 4.164062 6.40625 8 6.320312h1.679687c2.082031-.441406 3.902344-1.691406 5.058594-3.480469 1.15625-1.785156 1.550781-3.960937 1.101563-6.039062-15.894532-73.664062-81.039063-126.25-156.398438-126.25-75.363281 0-140.503906 52.585938-156.402344 126.25-.847656 4.226562 1.804688 8.367188 6 9.359375zm0 0"/><path d="m325.511719 232.808594c-1.804688-1.125-3.980469-1.492188-6.050781-1.011719-2.074219.480469-3.867188 1.765625-4.988282 3.574219-10.097656 16.292968-23.339844 30.410156-38.960937 41.519531-2.097657 1.492187-3.347657 3.90625-3.359375 6.480469v28.238281c0 13.253906-10.746094 24-24 24h-8v-88c0-4.417969-3.582032-8-8-8-4.417969 0-8 3.582031-8 8v88h-64v-88c0-4.417969-3.582032-8-8-8-4.417969 0-8 3.582031-8 8v88h-8c-13.257813 0-24-10.746094-24-24v-28.238281c-.011719-2.574219-1.265625-4.988282-3.363282-6.480469-15.617187-11.109375-28.863281-25.226563-38.957031-41.519531-2.34375-3.777344-7.304687-4.941406-11.082031-2.601563-3.777344 2.34375-4.941406 7.304688-2.597656 11.082031 10.488281 16.949219 24.054687 31.792969 40 43.757813v24c-.046875 8.664063 2.761718 17.097656 8 24-13.257813 0-24 10.746094-24 24 .035156 5.921875 2.257812 11.621094 6.238281 16-3.980469 4.382813-6.203125 10.082031-6.238281 16 0 13.253906 10.742187 24 24 24h9.679687c7.722657 37.101563 40.421875 63.691406 78.320313 63.691406 37.894531 0 70.59375-26.589843 78.320312-63.691406h9.679688c13.253906 0 24-10.746094 24-24-.035156-5.917969-2.257813-11.617187-6.242188-16 3.984375-4.378906 6.207032-10.078125 6.242188-16 0-13.253906-10.746094-24-24-24 5.234375-6.902344 8.046875-15.335937 8-24v-24c15.925781-11.917969 29.492187-26.707031 40-43.597656 1.171875-1.828125 1.550781-4.050781 1.054687-6.160157-.496093-2.113281-1.832031-3.933593-3.695312-5.042968zm-133.359375 230.800781c-29.167969-.019531-54.628906-19.757813-61.921875-48h123.839843c-7.292968 28.242187-32.753906 47.980469-61.917968 48zm88-64h-176c-4.417969 0-8-3.582031-8-8s3.582031-8 8-8h176c4.417968 0 8 3.582031 8 8s-3.582032 8-8 8zm8-40c0 4.417969-3.582032 8-8 8h-176c-4.417969 0-8-3.582031-8-8s3.582031-8 8-8h176c4.417968 0 8 3.582031 8 8zm0 0"/></g></svg>