<svg height="480pt" viewBox="0 0 480.08936 480" width="480pt" xmlns="http://www.w3.org/2000/svg"><path d="m376 8.042969h-336c-17.671875 0-32 14.328125-32 32v208c0 17.675781 14.328125 32 32 32h113.039062l-1.519531-1.519531c-34.386719-34.359376-34.402343-90.089844-.035156-124.464844 34.371094-34.378906 90.101563-34.378906 124.46875 0 34.367187 34.375 34.355469 90.105468-.03125 124.464844l-1.523437 1.519531h101.601562c17.671875 0 32-14.324219 32-32v-208c0-17.671875-14.328125-32-32-32zm0 0" fill="#cff09e"/><path d="m270.289062 318.101562 45.253907-45.257812 16.96875 16.972656c6.25 6.246094 6.25 16.378906 0 22.625l-22.625 22.628906c-6.25 6.25-16.378907 6.25-22.628907 0zm0 0" fill="#a8dba8"/><path d="m309.902344 335.078125 22.628906-22.628906 33.941406 33.941406-22.628906 22.628906zm0 0" fill="#79bd9a"/><path d="m349.542969 360.871094 11.3125-11.316406c12.496093-12.496094 32.757812-12.496094 45.253906 0l56.570313 56.570312c12.496093 12.496094 12.496093 32.757812 0 45.253906l-11.3125 11.3125c-12.496094 12.5-32.757813 12.5-45.257813 0l-56.566406-56.566406c-12.496094-12.496094-12.496094-32.757812 0-45.253906zm0 0" fill="#a8dba8"/><path d="m400.398438 457.003906 5.679687 5.679688c12.492187 12.460937 32.710937 12.460937 45.203125 0l11.359375-11.359375c12.460937-12.488281 12.460937-32.710938 0-45.199219l-5.679687-5.679688zm0 0" fill="#79bd9a"/><path d="m184 184.042969h56c4.417969 0 8 3.582031 8 8v16c0 4.421875-3.582031 8-8 8h-56c-4.417969 0-8-3.578125-8-8v-16c0-4.417969 3.582031-8 8-8zm0 0" fill="#a8dba8"/><path d="m298.558594 131.40625c-46.871094-46.84375-122.835938-46.824219-169.6875.035156-46.847656 46.859375-46.847656 122.828125 0 169.6875 46.851562 46.859375 122.816406 46.875 169.6875.035156 46.902344-46.867187 46.902344-122.890624 0-169.757812zm-22.636719 147.117188c-34.371094 34.355468-90.082031 34.347656-124.441406-.019532-34.359375-34.363281-34.359375-90.074218 0-124.441406 34.359375-34.363281 90.070312-34.371094 124.441406-.019531 34.382813 34.371093 34.382813 90.113281 0 124.480469zm0 0" fill="#a8dba8"/><path d="m184 229.003906c-21.640625-21.636718-30.484375-52.960937-23.359375-82.71875-3.152344 2.445313-6.121094 5.117188-8.878906 8-26.667969 26.289063-33.777344 66.570313-17.722657 100.402344 16.054688 33.828125 51.761719 53.789062 88.988282 49.753906 37.226562-4.039062 67.824218-31.191406 76.253906-67.675781-34.984375 26.535156-84.171875 23.222656-115.28125-7.761719zm0 0" fill="#cff09e"/><path d="m104 440.042969c-30.929688 0-56-25.070313-56-56-.023438-5.195313.703125-10.367188 2.160156-15.359375-21.144531 13.300781-30.921875 38.992187-23.972656 62.984375 6.949219 23.992187 28.949219 40.480469 53.925781 40.417969 24.976563-.058594 46.894531-16.65625 53.726563-40.679688-8.933594 5.636719-19.277344 8.628906-29.839844 8.636719zm0 0" fill="#cff09e"/><g fill="#3b8686"><path d="m248 176.042969h-72c-4.417969 0-8 3.582031-8 8v32c0 4.421875 3.582031 8 8 8h72c4.417969 0 8-3.578125 8-8v-32c0-4.417969-3.582031-8-8-8zm-8 32h-56v-16h56zm0 0"/><path d="m224 240.042969h-32c-4.417969 0-8 3.582031-8 8 0 4.421875 3.582031 8 8 8h32c4.417969 0 8-3.578125 8-8 0-4.417969-3.582031-8-8-8zm0 0"/><path d="m240 64.042969h120c4.417969 0 8-3.578125 8-8 0-4.417969-3.582031-8-8-8h-120c-4.417969 0-8 3.582031-8 8 0 4.421875 3.582031 8 8 8zm0 0"/><path d="m360 88.042969h-32c-4.417969 0-8 3.582031-8 8 0 4.421875 3.582031 8 8 8h32c4.417969 0 8-3.578125 8-8 0-4.417969-3.582031-8-8-8zm0 0"/><path d="m360 128.042969h-16c-4.417969 0-8 3.582031-8 8 0 4.421875 3.582031 8 8 8h16c4.417969 0 8-3.578125 8-8 0-4.417969-3.582031-8-8-8zm0 0"/><path d="m104 64.042969h80c4.417969 0 8-3.578125 8-8 0-4.417969-3.582031-8-8-8h-80c-4.417969 0-8 3.582031-8 8 0 4.421875 3.582031 8 8 8zm0 0"/><path d="m56 104.042969h64c4.417969 0 8-3.578125 8-8 0-4.417969-3.582031-8-8-8h-64c-4.417969 0-8 3.582031-8 8 0 4.421875 3.582031 8 8 8zm0 0"/><path d="m80 128.042969h-24c-4.417969 0-8 3.582031-8 8 0 4.421875 3.582031 8 8 8h24c4.417969 0 8-3.578125 8-8 0-4.417969-3.582031-8-8-8zm0 0"/><path d="m64 232.042969c0 4.421875-3.582031 8-8 8s-8-3.578125-8-8c0-4.417969 3.582031-8 8-8s8 3.582031 8 8zm0 0"/><path d="m64 192.042969c0 4.421875-3.582031 8-8 8s-8-3.578125-8-8c0-4.417969 3.582031-8 8-8s8 3.582031 8 8zm0 0"/><path d="m141.519531 346.285156c-1.859375-1.875-4.523437-2.714844-7.121093-2.242187l-42.957032 8.882812c-3.777344-.652343-7.609375-.949219-11.441406-.882812-28.464844-.003907-53.511719 18.792969-61.464844 46.125s3.105469 56.628906 27.132813 71.894531c24.023437 15.265625 55.246093 12.828125 76.609375-5.980469 21.367187-18.8125 27.742187-49.46875 15.644531-75.238281l6.078125-35.4375c.414062-2.640625-.515625-5.3125-2.480469-7.121094zm-61.519531 117.757813c-26.507812 0-48-21.488281-48-48 0-26.507813 21.492188-48 48-48 3.308594-.011719 6.609375.335937 9.839844 1.042969 1.082031.226562 2.199218.226562 3.28125 0l33.039062-6.800782-4.480468 26.398438c-.289063 1.722656-.007813 3.492187.800781 5.042968 3.648437 6.871094 5.542969 14.539063 5.519531 22.316407 0 26.511719-21.492188 48-48 48zm0 0"/><path d="m96 416.042969h-40c-4.417969 0-8 3.582031-8 8 0 4.421875 3.582031 8 8 8h40c4.417969 0 8-3.578125 8-8 0-4.417969-3.582031-8-8-8zm0 0"/><path d="m88 392.042969c0 4.421875-3.582031 8-8 8s-8-3.578125-8-8c0-4.417969 3.582031-8 8-8s8 3.582031 8 8zm0 0"/><path d="m281.601562 284.125c32.484376-32.300781 37.625-83.050781 12.273438-121.207031s-74.132812-53.082031-116.496094-35.648438c-42.363281 17.433594-66.503906 62.371094-57.65625 107.320313 8.851563 44.949218 48.226563 77.378906 94.039063 77.453125 25.417969.042969 49.8125-9.996094 67.839843-27.917969zm-124.480468-11.28125c-31.21875-31.25-31.199219-81.886719.039062-113.113281 31.242188-31.230469 81.878906-31.230469 113.117188 0 31.242187 31.226562 31.257812 81.863281.042968 113.113281-15.003906 15.023438-35.367187 23.464844-56.601562 23.464844-21.230469 0-41.59375-8.441406-56.597656-23.464844zm0 0"/><path d="m480 422.765625c0-.640625 0-1.28125-.398438-1.921875.035157-.636719.035157-1.28125 0-1.917969-1.800781-6.976562-5.417968-13.355469-10.480468-18.480469l-5.679688-5.679687-51.761718-50.722656c-11.785157-11.65625-29.539063-14.839844-44.640626-8l-24-24c3.78125-7.722657 3.140626-16.875-1.679687-24h34.640625c22.089844 0 40-17.90625 40-40v-208c0-22.089844-17.910156-40.0000002-40-40.0000002h-336c-22.089844 0-40 17.9101562-40 40.0000002v208c0 22.09375 17.910156 40 40 40h67.679688c4.589843 6.703125 9.785156 12.96875 15.519531 18.722656 39.039062 39.191406 98.832031 48.871094 148.242187 24l10.160156 10.160156c4.507813 4.472657 10.605469 6.972657 16.957032 6.957031 3.574218.035157 7.105468-.761718 10.320312-2.316406l25.359375 25.277344c-4.742187 14.375-.964843 30.199219 9.761719 40.882812l50.640625 50.636719 5.679687 5.679688c15.621094 15.617187 40.941407 15.617187 56.558594 0l11.28125-11.359375c7.503906-7.359375 11.761719-17.40625 11.839844-27.917969.121094-2 .121094-4.003906 0-6zm-440-150.722656c-13.253906 0-24-10.742188-24-24v-208c0-13.253907 10.746094-24 24-24h336c13.253906 0 24 10.746093 24 24v208c0 13.257812-10.746094 24-24 24h-46.960938c25.917969-53.804688 11.179688-118.378907-35.511718-155.617188-46.6875-37.234375-112.925782-37.234375-159.617188 0-46.691406 37.238281-61.425781 101.8125-35.511718 155.617188zm94.558594 23.441406c-5.851563-5.847656-11.054688-12.3125-15.519532-19.28125l-.480468-.796875c-28.773438-46.402344-19.894532-106.789062 21.011718-142.945312 40.910157-36.15625 101.929688-37.550782 144.445313-3.292969 42.511719 34.253906 54.132813 94.171875 27.503906 141.835937-.214843.304688-.402343.625-.558593.960938-4.96875 8.578125-11.015626 16.484375-18 23.519531-7.027344 7.027344-14.964844 13.082031-23.601563 18l-.878906.558594c-43.761719 24.496093-98.46875 16.914062-133.921875-18.558594zm158.402344 33.921875-7.28125-7.203125c6.570312-4.570313 12.703124-9.738281 18.320312-15.4375 5.933594-5.699219 11.292969-11.972656 16-18.722656l7.28125 7.28125c3.101562 3.121093 3.101562 8.160156 0 11.28125l-23.28125 22.800781c-3.089844 2.945312-7.949219 2.945312-11.039062 0zm28.238281 5.679688 11.28125-11.359376 21.441406 21.4375-9.921875 10-1.199219 1.28125zm33.921875 31.4375 11.359375-11.359376c9.371093-9.359374 24.550781-9.359374 33.917969 0l45.28125 45.28125-45.28125 45.28125-45.277344-45.28125c-9.359375-9.371093-9.359375-24.550781 0-33.921874zm101.839844 79.203124-11.28125 11.277344c-4.496094 4.375-10.527344 6.816406-16.800782 6.800782h-1.519531c-5.996094-.1875-11.703125-2.613282-16-6.800782l45.28125-45.277344c4.519531 4.5 7.058594 10.617188 7.058594 17 0 6.378907-2.539063 12.496094-7.058594 17zm0 0"/></g></svg>