<svg height="480pt" viewBox="0 0 480 480.05075" width="480pt" xmlns="http://www.w3.org/2000/svg"><path d="m367.269531 163.652344c11.046875-19.132813 35.507813-25.6875 54.640625-14.640625l12-20.960938c1.066406-1.84375 1.355469-4.039062.800782-6.097656-.554688-2.054687-1.910157-3.808594-3.761719-4.863281l-69.28125-40c-3.824219-2.171875-8.683594-.847656-10.878907 2.960937l-76 131.601563 83.121094 48 24-41.601563c-18.988281-11.039062-25.523437-35.324219-14.640625-54.398437zm0 0" fill="#a8dba8"/><path d="m258.761719 239.613281 27.710937 16-16 27.714844c-4.417968 7.652344-14.203125 10.273437-21.855468 5.855469-7.652344-4.417969-10.273438-14.203125-5.855469-21.855469zm0 0" fill="#79bd9a"/><path d="m399.566406 43.714844 41.570313 24-24 41.570312-41.570313-24zm0 0" fill="#79bd9a"/><path d="m408.640625 12.003906 55.425781 32c3.824219 2.210938 5.136719 7.101563 2.925782 10.929688l-8 13.855468c-2.207032 3.828126-7.101563 5.136719-10.925782 2.929688l-55.425781-32c-3.828125-2.210938-5.136719-7.101562-2.929687-10.929688l8-13.855468c2.210937-3.828125 7.101562-5.136719 10.929687-2.929688zm0 0" fill="#cff09e"/><path d="m314.214844 271.605469 27.710937 16-16 27.714843c-4.417969 7.652344-14.203125 10.273438-21.855469 5.855469-7.652343-4.417969-10.277343-14.203125-5.855468-21.855469zm0 0" fill="#79bd9a"/><path d="m260.921875 203.839844 110.851563 64c3.828124 2.210937 5.136718 7.101562 2.929687 10.929687l-8 13.855469c-2.210937 3.824219-7.101563 5.136719-10.929687 2.929688l-110.851563-64c-3.824219-2.210938-5.136719-7.105469-2.925781-10.929688l8-13.855469c2.207031-3.828125 7.101562-5.140625 10.925781-2.929687zm0 0" fill="#cff09e"/><path d="m324.757812 125.289062 20.785157 12c3.828125 2.210938 5.136719 7.101563 2.929687 10.929688l-16 27.710938c-2.210937 3.828124-7.101562 5.140624-10.929687 2.929687l-20.785157-12zm0 0" fill="#cff09e"/><path d="m396.070312 202.691406c-18.425781-10.507812-25.445312-33.570312-16-52.5625-5.417968 3.390625-9.945312 8.027344-13.203124 13.523438-7.257813 12.382812-7.324219 27.703125-.175782 40.152344 7.148438 12.445312 20.417969 20.105468 34.773438 20.074218 14.351562-.03125 27.589844-7.75 34.683594-20.226562.328124-.652344.621093-1.320313.878906-2-12.425782 7.84375-28.148438 8.242187-40.957032 1.039062zm0 0" fill="#cff09e"/><path d="m302.550781 412.210938c5.828125 10.070312 9.09375 21.414062 9.519531 33.039062 34.222657 1.808594 68.050782-8.003906 96-27.839844v-42.398437c-26.886718 29.042969-66.367187 42.957031-105.519531 37.199219zm0 0" fill="#a8dba8"/><path d="m171.429688 244.851562-37.441407-42.082031c-38.734375-12.398437-67.703125-44.820312-75.679687-84.703125-7.976563-39.882812 6.292968-80.953125 37.28125-107.296875-49.363282 11.042969-85.199219 53.796875-87.445313 104.328125-2.246093 50.53125 29.65625 96.296875 77.84375 111.671875l74.960938 84.242188c2.269531 2.425781 5.804687 3.199219 8.878906 1.933593 3.078125-1.261718 5.050781-4.292968 4.960937-7.613281zm0 0" fill="#cff09e"/><path d="m160.070312 96.050781c0 17.671875-14.328124 32-32 32-17.675781 0-32-14.328125-32-32s14.324219-32 32-32c17.671876 0 32 14.328125 32 32zm0 0" fill="#cff09e"/><path d="m77.933594 138.148438 8 13.855468c4.417968 7.652344 1.796875 17.4375-5.859375 21.859375-7.652344 4.417969-17.4375 1.792969-21.855469-5.859375l-8-13.855468c-4.417969-7.652344-1.796875-17.4375 5.855469-21.855469 7.65625-4.417969 17.441406-1.796875 21.859375 5.855469zm0 0" fill="#a8dba8"/><path d="m193.640625 144.007812c4.417969 7.652344 1.796875 17.4375-5.855469 21.855469l-27.714844 16c-7.652343 4.421875-17.4375 1.796875-21.855468-5.855469-4.417969-7.652343-1.796875-17.4375 5.855468-21.855468l27.714844-16c7.652344-4.417969 17.4375-1.796875 21.855469 5.855468zm0 0" fill="#79bd9a"/><path d="m432.070312 392.050781v-46.960937c-14.121093 3.648437-23.992187 16.378906-24 30.960937v88c0 4.417969 3.582032 8 8 8h48c4.417969 0 8-3.582031 8-8v-12.640625c-24.1875-9.785156-40.011718-33.269531-40-59.359375zm0 0" fill="#cff09e"/><path d="m208.070312 416.050781c0-8.835937 7.164063-16 16-16h69.679688c-14.753906-16.585937-36.332031-25.441406-58.480469-24-38.472656 3.351563-67.808593 35.867188-67.199219 74.480469v13.519531c0 4.417969 3.582032 8 8 8h128c4.417969 0 8-3.582031 8-8v-16h-72c-17.675781 0-32-14.328125-32-32zm0 0" fill="#cff09e"/><g fill="#3b8686"><path d="m192.070312 172.851562c5.519532-3.179687 9.546876-8.425781 11.195313-14.578124 1.652344-6.152344.789063-12.707032-2.398437-18.222657-3.179688-5.519531-8.421876-9.546875-14.574219-11.199219-6.152344-1.648437-12.707031-.785156-18.222657 2.398438l-27.679687 16c-5.519531 3.179688-9.550781 8.425781-11.199219 14.578125-1.652344 6.152344-.789062 12.707031 2.398438 18.222656 3.179687 5.519531 8.421875 9.546875 14.574218 11.199219 6.152344 1.648438 12.710938.785156 18.226563-2.398438zm-46.640624-.800781c-1.070313-1.84375-1.355469-4.039062-.800782-6.097656.554688-2.054687 1.910156-3.808594 3.761719-4.863281l27.679687-16c1.855469-1.015625 4.023438-1.300782 6.078126-.800782 3.164062.816407 5.511718 3.472657 5.933593 6.714844.421875 3.238282-1.164062 6.40625-4.011719 8.007813l-27.679687 16c-1.871094 1.171875-4.144531 1.519531-6.28125.960937-2.136719-.5625-3.945313-1.980468-5-3.921875zm0 0"/><path d="m405.910156 176.769531c-2.480468-1.574219-5.625-1.664062-8.191406-.234375-2.566406 1.433594-4.140625 4.15625-4.101562 7.09375.039062 2.941406 1.6875 5.621094 4.292968 6.980469 3.796875 1.988281 8.488282.628906 10.632813-3.082031 2.144531-3.714844.984375-8.457032-2.632813-10.757813zm0 0"/><path d="m440.070312 368.050781c-4.417968 0-8 3.582031-8 8s3.582032 8 8 8c4.417969 0 8-3.582031 8-8s-3.582031-8-8-8zm0 0"/><path d="m176.070312 336.050781c1.046876.027344 2.089844-.191406 3.039063-.640625 3.210937-1.308594 5.214844-4.539062 4.960937-8l-5.679687-102.558594c49.535156-27.574218 73.015625-86.054687 56.300781-140.230468-16.714844-54.171875-69.058594-89.257813-125.519531-84.128906-56.464844 5.128906-101.632813 49.070312-108.3125 105.371093-6.675781 56.296875 26.957031 109.589844 80.648437 127.789063l88.5625 99.679687c1.515626 1.726563 3.699219 2.714844 6 2.71875zm-84.082031-114.640625c-.964843-1.050781-2.171875-1.84375-3.519531-2.320312-47.414062-15.074219-77.511719-61.621094-71.800781-111.046875 5.710937-49.425781 45.625-87.882813 95.230469-91.75 49.601562-3.867188 94.996093 27.941406 108.296874 75.886719 13.300782 47.941406-9.21875 98.589843-53.726562 120.832031-2.851562 1.429687-4.578125 4.414062-4.398438 7.597656l4.71875 84.960937zm0 0"/><path d="m168.070312 96.050781c0-22.089843-17.910156-40-40-40-22.09375 0-40 17.910157-40 40 0 22.089844 17.90625 40 40 40 22.089844 0 40-17.910156 40-40zm-40 24c-13.257812 0-24-10.746093-24-24 0-13.253906 10.742188-24 24-24 13.253907 0 24 10.746094 24 24 0 13.253907-10.746093 24-24 24zm0 0"/><path d="m136.070312 96.050781c0 4.417969-3.582031 8-8 8-4.417968 0-8-3.582031-8-8s3.582032-8 8-8c4.417969 0 8 3.582031 8 8zm0 0"/><path d="m84.867188 134.210938c-6.625-11.488282-21.3125-15.425782-32.796876-8.800782-11.488281 6.628906-15.429687 21.3125-8.800781 32.800782l8 13.839843c4.839844 8.429688 14.289063 13.105469 23.925781 11.84375 9.640626-1.261719 17.566407-8.210937 20.074219-17.605469 1.652344-6.15625.789063-12.71875-2.402343-18.238281zm-4.796876 27.917968c-.554687 2.066406-1.90625 3.824219-3.761718 4.882813-1.84375 1.066406-4.039063 1.355469-6.09375.800781-2.058594-.554688-3.808594-1.910156-4.867188-3.761719l-8-13.839843c-2.207031-3.84375-.882812-8.75 2.960938-10.960938 3.84375-2.207031 8.75-.882812 10.960937 2.960938l8 13.839843c1.0625 1.839844 1.351563 4.027344.800781 6.078125zm0 0"/><path d="m45.667969 105.089844c2.433593-.011719 4.730469-1.128906 6.242187-3.039063l20.160156-25.039062c2.300782-3.460938 1.566407-8.105469-1.6875-10.691407-3.25-2.585937-7.941406-2.25-10.792968.769532l-20.160156 25.039062c-2.722657 3.453125-2.152344 8.453125 1.28125 11.203125 1.40625 1.128907 3.152343 1.75 4.957031 1.757813zm0 0"/><path d="m200.070312 96.050781c0 4.417969-3.582031 8-8 8-4.417968 0-8-3.582031-8-8s3.582032-8 8-8c4.417969 0 8 3.582031 8 8zm0 0"/><path d="m120.070312 200.050781c0 4.417969-3.582031 8-8 8-4.417968 0-8-3.582031-8-8s3.582032-8 8-8c4.417969 0 8 3.582031 8 8zm0 0"/><path d="m96.070312 48.050781c0 4.417969-3.582031 8-8 8-4.417968 0-8-3.582031-8-8s3.582032-8 8-8c4.417969 0 8 3.582031 8 8zm0 0"/><path d="m469.667969 349.410156c19.191406-51.066406 10.953125-108.402344-21.839844-152 2.5625-8.519531 2.644531-17.59375.242187-26.160156-2.625-9.640625-8.222656-18.207031-16-24.480469l4.398438-7.597656c3.1875-5.515625 4.050781-12.074219 2.398438-18.226563-1.648438-6.152343-5.679688-11.394531-11.199219-14.574218l16.722656-29.039063c1.414063.34375 2.863281.53125 4.320313.558594 10.871093.011719 20.394531-7.289063 23.207031-17.789063 2.8125-10.503906-1.785157-21.585937-11.207031-27.011718l-41.523438-24c-5.519531-3.191406-12.082031-4.054688-18.238281-2.398438-12.789063 3.46875-20.347657 16.648438-16.878907 29.4375.886719 3.449219 2.585938 6.628906 4.957032 9.28125l-16.71875 28.960938c-5.515625-3.1875-12.070313-4.050782-18.222656-2.398438-6.152344 1.648438-11.398438 5.679688-14.578126 11.199219l-22 38.078125-20 34.640625-25.4375 45.039063c-11.53125-6.625-26.253906-2.652344-32.882812 8.882812-6.625 11.53125-2.648438 26.25 8.882812 32.878906l-12 20.800782c-3.1875 5.515624-4.050781 12.070312-2.398437 18.222656 1.648437 6.152344 5.679687 11.394531 11.195313 14.574218 3.628906 2.089844 7.738281 3.191407 11.921874 3.203126 2.132813.007812 4.257813-.261719 6.320313-.800782 6.144531-1.65625 11.382813-5.683594 14.558594-11.199218l12-20.800782 13.839843 8-12 20.800782c-6.511718 11.367187-2.703124 25.863281 8.5625 32.558593 3.625 2.085938 7.734376 3.191407 11.917969 3.199219 2.105469.015625 4.207031-.253906 6.242188-.800781 6.175781-1.632813 11.445312-5.664063 14.636719-11.199219l12-20.800781c11.269531 5.292969 24.710937 1.089843 30.957031-9.679688 6.25-10.765625 3.226562-24.519531-6.957031-31.679687l16-28.320313c5.320312 2.019531 10.953124 3.074219 16.640624 3.121094 3.585938-.027344 7.152344-.457031 10.640626-1.28125 22.414062 32.65625 25.765624 74.769531 8.800781 110.5625-11.328125 6.085937-19.039063 17.25-20.71875 30-24.203125 25.199219-58.828125 37.582031-93.519531 33.4375-4.953126-7.898437-11.261719-14.859375-18.640626-20.558594h32c4.417969 0 8-3.582031 8-8s-3.582031-8-8-8h-160c-4.417968 0-8 3.582031-8 8s3.582032 8 8 8h32c-20.144531 15.109375-32 38.820313-32 64v24c0 4.417969 3.582032 8 8 8 4.417969 0 8-3.582031 8-8v-24c0-35.347656 28.652344-64 64-64 35.34375 0 64 28.652344 64 64v24c0 4.417969 3.582032 8 8 8 4.417969 0 8-3.582031 8-8v-18.71875c28.0625-.011719 55.640626-7.34375 80-21.28125v40c0 4.417969 3.582032 8 8 8 4.417969 0 8-3.582031 8-8v-96s0-1.039062 0-1.28125c.351563-13.253906 11.382813-23.710937 24.640626-23.359375 13.253906.355469 23.710937 11.386719 23.359374 24.640625v96c0 4.417969 3.582032 8 8 8 4.417969 0 8-3.582031 8-8v-96c-.066406-9.859375-3.769531-19.34375-10.402343-26.640625zm-69.597657 63.519532c-23.964843 15.824218-52.085937 24.175781-80.800781 24-.757812-5.453126-2.070312-10.8125-3.921875-16h4.722656c29.089844-.023438 57.308594-9.953126 80-28.160157zm.558594-387.039063c1.074219-1.824219 2.832032-3.148437 4.878906-3.679687.6875-.121094 1.394532-.121094 2.082032 0 1.378906.027343 2.730468.414062 3.917968 1.121093l41.601563 24c3.625 2.183594 4.921875 6.808594 2.960937 10.558594-1.0625 1.855469-2.816406 3.207031-4.882812 3.761719-2.054688.507812-4.226562.222656-6.078125-.800782l-41.601563-24c-1.835937-1.070312-3.171874-2.828124-3.714843-4.882812-.539063-2.054688-.238281-4.242188.835937-6.078125zm1.839844 28.800781 27.679688 16-16 27.679688-27.679688-16zm-74.398438 81.359375 6.957032 4c1.851562 1.054688 3.207031 2.804688 3.761718 4.863281.558594 2.058594.269532 4.253907-.800781 6.097657l-8 13.839843c-1.039062 1.835938-2.765625 3.1875-4.800781 3.757813-2.054688.511719-4.226562.226563-6.078125-.796875l-6.960937-4zm-64 143.121094c-1.0625 1.851563-2.816406 3.207031-4.882812 3.757813-2.0625.527343-4.25.210937-6.078125-.878907-1.839844-1.039062-3.191406-2.765625-3.761719-4.800781-.550781-2.050781-.261718-4.238281.800782-6.078125l12-20.800781 13.839843 8zm55.359376 32c-2.226563 3.777344-7.078126 5.0625-10.878907 2.878906-1.839843-1.039062-3.191406-2.765625-3.761719-4.800781-.550781-2.050781-.265624-4.238281.800782-6.078125l12-20.800781 13.839844 8zm44.800781-29.601563c-1.058594 1.851563-2.808594 3.207032-4.867188 3.761719-2.054687.554688-4.25.265625-6.09375-.800781l-6.878906-4-13.839844-8-76.480469-43.839844c-2.605468-1.363281-4.253906-4.042968-4.292968-6.980468-.039063-2.9375 1.535156-5.664063 4.101562-7.09375 2.566406-1.433594 5.710938-1.34375 8.191406.234374l3.359376 1.917969 3.597656 2.082031 32 18.71875 34.402344 19.839844 20.320312 11.679688 2.640625 1.601562c1.941406.984375 3.394531 2.71875 4.03125 4.804688.632813 2.082031.390625 4.335937-.671875 6.234375zm-8.800781-32.800781-69.28125-40 17.921874-30.957031 6.957032 4c3.628906 2.085938 7.738281 3.1875 11.921875 3.199219 2.132812.007812 4.257812-.261719 6.320312-.800781 6.144531-1.65625 11.382813-5.683594 14.558594-11.199219l8-13.839844c3.1875-5.515625 4.050781-12.074219 2.398437-18.226563-1.648437-6.152343-5.679687-11.394531-11.199218-14.574218l-6.957032-4 18-31.199219c1.074219-1.824219 2.828126-3.148437 4.878907-3.679687 2.050781-.554688 4.238281-.265626 6.078125.796874l55.441406 32c3.78125 2.226563 5.066406 7.078126 2.878906 10.882813l-4.320312 7.597656c-22.210938-8.488281-47.289063.5625-58.957032 21.28125-11.746093 20.292969-7.113281 46.101563 10.957032 61.039063zm55.199218-34.320312c-8.109375 2.121093-16.726562.96875-24-3.199219-15.28125-8.558594-20.84375-27.808594-12.480468-43.199219 8.847656-15.273437 28.390624-20.5 43.679687-11.679687 7.339844 4.25 12.695313 11.242187 14.882813 19.441406 1.789062 6.363281 1.566406 13.125-.640626 19.359375v1.199219c0 .878906-.722656 1.679687-1.121093 2.558594l-.398438.722656c-4.457031 7.574218-11.835937 12.984375-20.402343 14.957031zm45.441406 125.121093c-5.027343-2.28125-10.484374-3.453124-16-3.441406 13.367188-37.320312 8.542969-78.746094-13.042968-112 4.601562-2.902344 8.660156-6.585937 12-10.878906 25.023437 37.164062 31.320312 83.855469 17.042968 126.320312zm0 0"/></g></svg>