<svg height="480pt" viewBox="0 0 480 479" width="480pt" xmlns="http://www.w3.org/2000/svg"><path d="m80 264.082031h368c13.253906 0 24 10.746094 24 24v48c0 13.253907-10.746094 24-24 24h-368c-13.253906 0-24-10.746093-24-24v-48c0-13.253906 10.746094-24 24-24zm0 0" fill="#cff09e"/><path d="m400 288.082031h24c4.417969 0 8 3.582031 8 8v32c0 4.417969-3.582031 8-8 8h-24c-4.417969 0-8-3.582031-8-8v-32c0-4.417969 3.582031-8 8-8zm0 0" fill="#79bd9a"/><path d="m40 360.082031h352c17.671875 0 32 14.328125 32 32v48c0 17.671875-14.328125 32-32 32h-352c-17.671875 0-32-14.328125-32-32v-48c0-17.671875 14.328125-32 32-32zm0 0" fill="#79bd9a"/><path d="m64 388.082031h80c4.417969 0 8 3.582031 8 8v40c0 4.417969-3.582031 8-8 8h-80c-4.417969 0-8-3.582031-8-8v-40c0-4.417969 3.582031-8 8-8zm0 0" fill="#a8dba8"/><path d="m242.960938 168.082031c-1.921876.640625-4 .640625-5.921876 0l-157.039062-53.359375v127.277344c.046875 12.96875 7.914062 24.625 19.921875 29.523438l110.078125 44.476562c19.242188 7.785156 40.757812 7.785156 60 0l110.078125-44.476562c12.007813-4.898438 19.875-16.554688 19.921875-29.523438v-127.277344zm0 0" fill="#a8dba8"/><path d="m364 232.082031c0 11.046875-8.953125 20-20 20s-20-8.953125-20-20 8.953125-20 20-20 20 8.953125 20 20zm0 0" fill="#79bd9a"/><path d="m466.078125 77.042969-38.15625-11.601563-61.203125 20.71875c-66.636719 22.640625-138.882812 22.640625-205.519531 0l-83.839844-28.480468-63.4375 19.363281c-3.285156 1.078125-5.503906 4.144531-5.503906 7.597656 0 3.457031 2.21875 6.523437 5.503906 7.601563l223.117187 75.839843c1.921876.640625 4 .640625 5.921876 0l223.359374-75.761719c3.332032-1.089843 5.5625-4.222656 5.507813-7.726562s-2.382813-6.566406-5.75-7.550781zm0 0" fill="#cff09e"/><g fill="#3b8686"><path d="m296 400.082031c-4.417969 0-8 3.582031-8 8v16c0 4.417969 3.582031 8 8 8s8-3.582031 8-8v-16c0-4.417969-3.582031-8-8-8zm0 0"/><path d="m328 384.082031c-4.417969 0-8 3.582031-8 8v48c0 4.417969 3.582031 8 8 8s8-3.582031 8-8v-48c0-4.417969-3.582031-8-8-8zm0 0"/><path d="m368 384.082031c-4.417969 0-8 3.582031-8 8v48c0 4.417969 3.582031 8 8 8s8-3.582031 8-8v-48c0-4.417969-3.582031-8-8-8zm0 0"/><path d="m136 384.082031h-64c-13.253906 0-24 10.746094-24 24v16c0 13.253907 10.746094 24 24 24h64c13.253906 0 24-10.746093 24-24v-16c0-13.253906-10.746094-24-24-24zm8 40c0 4.417969-3.582031 8-8 8h-64c-4.417969 0-8-3.582031-8-8v-16c0-4.417969 3.582031-8 8-8h64c4.417969 0 8 3.582031 8 8zm0 0"/><path d="m264 384.082031c-4.417969 0-8 3.582031-8 8v48c0 4.417969 3.582031 8 8 8s8-3.582031 8-8v-48c0-4.417969-3.582031-8-8-8zm0 0"/><path d="m448 256.082031h-42.640625c1.734375-4.492187 2.632813-9.265625 2.640625-14.082031v-121.519531l60.878906-20.640625c6.535156-2.257813 10.878906-8.460938 10.769532-15.371094-.109376-6.914062-4.644532-12.976562-11.25-15.027344l-223.359376-68.160156c-3.277343-1.042969-6.800781-1.042969-10.078124 0l-223.359376 68.160156c-6.605468 2.050782-11.140624 8.113282-11.25 15.027344-.109374 6.910156 4.234376 13.113281 10.769532 15.371094l60.878906 20.640625v121.519531c.007812 4.816406.90625 9.589844 2.640625 14.082031h-2.640625c-13.253906 0-24 10.746094-24 24v64c-.003906 2.722657.457031 5.429688 1.359375 8h-9.359375c-22.089844 0-40 17.910157-40 40v48c0 22.089844 17.910156 40 40 40h352c22.089844 0 40-17.910156 40-40v-48c0-8.65625-2.808594-17.078125-8-24h24c17.671875 0 32-14.328125 32-32v-48c0-17.671875-14.328125-32-32-32zm-296-40c4.417969 0 8-3.582031 8-8v-57.761719l74.480469 25.28125c3.585937 1.171876 7.453125 1.171876 11.039062 0l90.480469-30.71875v64.640626c-11.019531 3.894531-17.632812 15.164062-15.65625 26.683593s11.96875 19.941407 23.65625 19.941407 21.679688-8.421876 23.65625-19.941407-4.636719-22.789062-15.65625-26.683593v-70l40-13.601563v116.078125c-.101562 5.953125-2.410156 11.65625-6.480469 16-2.277343 2.347656-4.996093 4.222656-8 5.523438l-110.558593 45.039062c-17.285157 7.042969-36.636719 7.042969-53.921876 0l-110.160156-44.480469c-8.960937-3.683593-14.832031-12.390625-14.878906-22.082031v-116.078125l56 18.960937v63.199219c0 4.417969 3.582031 8 8 8zm192 8c4.417969 0 8 3.582031 8 8s-3.582031 8-8 8-8-3.582031-8-8 3.582031-8 8-8zm-328-139.359375 224-68.160156 224 68.160156-121.921875 41.199219-98.316406-52.878906c-3.839844-1.722657-8.351563-.179688-10.335938 3.527343-1.980469 3.710938-.75 8.320313 2.8125 10.550782l85.121094 45.839844-81.359375 27.121093zm400 355.359375c0 13.253907-10.746094 24-24 24h-352c-13.253906 0-24-10.746093-24-24v-48c0-13.253906 10.746094-24 24-24h352c13.253906 0 24 10.746094 24 24zm48-104c0 8.835938-7.164062 16-16 16h-376c-4.417969 0-8-3.582031-8-8v-64c0-4.417969 3.582031-8 8-8h14c3.324219 2.863281 7.074219 5.183594 11.121094 6.878907l110.160156 44.402343c21.121094 8.640625 44.796875 8.640625 65.917969 0l62.800781-25.441406v30.160156c0 4.417969 3.582031 8 8 8s8-3.582031 8-8v-32c-.046875-1.453125-.492188-2.863281-1.28125-4.082031l32-13.039062c4.195312-1.636719 8.089844-3.960938 11.519531-6.878907h53.761719c8.835938 0 16 7.164063 16 16zm0 0"/><path d="m96 296.082031c-4.417969 0-8 3.582031-8 8v24c0 4.417969 3.582031 8 8 8s8-3.582031 8-8v-24c0-4.417969-3.582031-8-8-8zm0 0"/><path d="m420 280.082031h-16c-13.253906 0-24 10.746094-24 24v16c0 13.253907 10.746094 24 24 24h16c13.253906 0 24-10.746093 24-24v-16c0-13.253906-10.746094-24-24-24zm8 40c0 4.417969-3.582031 8-8 8h-16c-4.417969 0-8-3.582031-8-8v-16c0-4.417969 3.582031-8 8-8h16c4.417969 0 8 3.582031 8 8zm0 0"/></g></svg>