<svg height="471pt" viewBox="-67 0 471 471.87768" width="471pt" xmlns="http://www.w3.org/2000/svg"><path d="m138.277344 188.960938c-7.371094-4.238282-12.75-11.230469-14.957032-19.441407-2.207031-8.210937-1.054687-16.960937 3.199219-24.320312l-16 27.761719-92.082031 159.519531c-8.710938 15.253906-3.496094 34.675781 11.679688 43.519531l138.722656 80c7.644531 4.410156 17.414062 1.796875 21.839844-5.839844l100-173.199218zm0 0" fill="#a8dba8"/><path d="m177.957031 301.519531c-5.660156-3.28125-12.09375-4.992187-18.636719-4.960937-6.652343-11.566406-18.976562-18.699219-32.320312-18.699219s-25.671875 7.132813-32.320312 18.699219c-10.320313 17.839844-20.082032 68.160156-2.242188 78.480468 5.703125 3.257813 12.15625 4.964844 18.722656 4.960938 3.226563 5.695312 7.921875 10.417969 13.597656 13.679688 17.921876 10.320312 56.5625-23.28125 66.882813-41.121094 4.976563-8.574219 6.332031-18.78125 3.761719-28.359375-2.566406-9.582031-8.84375-17.742188-17.445313-22.679688zm0 0" fill="#cff09e"/><path d="m219.96875 274.839844c-4.417969-7.652344-17.304688-8.484375-28.78125-1.855469-11.480469 6.628906-17.203125 18.203125-12.785156 25.855469 4.417968 7.652344 17.304687 8.484375 28.785156 1.855468 11.476562-6.625 17.199219-18.203124 12.78125-25.855468zm0 0" fill="#79bd9a"/><path d="m315.878906 217.601562-13.039062-7.523437-4.160156 7.121094c-8.820313 15.304687-28.371094 20.566406-43.679688 11.761719l-123.519531-71.359376c-2.933594-1.617187-5.628907-3.636718-8-6-4.132813 14.84375 2.492187 30.578126 16 38l151.199219 87.359376 28.078124-48.640626c2.078126-3.765624.808594-8.503906-2.878906-10.71875zm0 0" fill="#cff09e"/><g fill="#3b8686"><path d="m115.238281 271.359375c-11.621093 3.09375-21.527343 10.695313-27.519531 21.121094-7.132812 14.15625-11.449219 29.558593-12.71875 45.359375-2.082031 22.558594 2.558594 37.761718 13.4375 44.082031 5.589844 3.222656 11.816406 5.1875 18.242188 5.757813 3.605468 5.230468 8.300781 9.625 13.757812 12.878906 3.617188 2.015625 7.703125 3.039062 11.839844 2.960937 12.101562-1.046875 23.613281-5.703125 33.042968-13.359375 13.035157-9.015625 24.226563-20.449218 32.957032-33.679687 8-13.667969 8.332031-30.507813.882812-44.480469 4.207032-.941406 8.25-2.503906 12-4.640625 6.601563-3.730469 11.992188-9.285156 15.519532-16 3.734374-6.429687 3.703124-14.378906-.078126-20.78125s-10.726562-10.265625-18.164062-10.097656c-7.585938-.324219-15.097656 1.597656-21.597656 5.519531-8.242188 4.449219-14.457032 11.894531-17.359375 20.800781l4.878906-34.082031c.640625-4.417969-2.421875-8.519531-6.839844-9.160156s-8.519531 2.421875-9.160156 6.839844l-4.160156 28.882812c-1.617188-1.210938-3.300781-2.335938-5.039063-3.359375-10.265625-5.925781-22.457031-7.5625-33.921875-4.5625zm80 8.480469c3.492188-2.078125 7.457031-3.234375 11.519531-3.359375h1.042969c2.023438-.097657 3.976563.761719 5.277344 2.320312.71875 1.910157.480469 4.050781-.640625 5.757813-2.121094 3.863281-5.316406 7.03125-9.199219 9.121094-3.734375 2.335937-8.078125 3.503906-12.480469 3.359374-2.039062.140626-4.027343-.6875-5.359374-2.238281-1.679688-2.878906 1.28125-10.082031 9.761718-14.800781zm-35.839843 24.71875c5.132812-.035156 10.1875 1.289062 14.640624 3.839844 13.96875 8.113281 18.757813 25.988281 10.71875 40-7.5625 11.210937-17.136718 20.921874-28.238281 28.640624-14.71875 10.320313-24 11.601563-27.679687 9.601563-4.449219-2.570313-8.164063-6.230469-10.800782-10.640625-1.421874-2.460938-4.039062-3.984375-6.878906-4-5.175781-.007812-10.253906-1.390625-14.722656-4-3.519531-2-7.117188-10.800781-5.519531-28.71875 1.128906-13.480469 4.734375-26.632812 10.640625-38.800781 5.21875-9.101563 14.910156-14.714844 25.398437-14.714844 10.492188 0 20.183594 5.613281 25.402344 14.714844 1.414063 2.515625 4.074219 4.074219 6.960937 4.078125zm0 0"/><path d="m133.640625 345.921875-5.761719-4.960937c-3.335937-2.84375-5.015625-7.171876-4.480468-11.519532 0 0 0-.5625 0-.800781.464843-4.417969-2.742188-8.375-7.160157-8.839844-4.417969-.464843-8.375 2.742188-8.839843 7.160157-1.445313 9.792968 2.242187 19.640624 9.761718 26.078124l5.839844 5.039063c3.355469 2.875 8.40625 2.480469 11.277344-.878906 2.875-3.355469 2.480468-8.40625-.878906-11.277344zm0 0"/><path d="m326.679688 214.558594-152.402344-88c-19.128906-11.042969-43.59375-4.488282-54.636719 14.640625l-16 27.761719-92.082031 159.519531c-10.84375 19.039062-4.351563 43.257812 14.558594 54.320312l152.5625 88c1.84375 1.066407 4.039062 1.355469 6.09375.800781 2.058593-.554687 3.808593-1.910156 4.867187-3.761718l108-187.039063 32-55.441406c1.0625-1.839844 1.351563-4.027344.796875-6.078125-.585938-2.003906-1.9375-3.699219-3.757812-4.722656zm-172.402344-77.359375c4.222656-.011719 8.371094 1.121093 12 3.28125l145.441406 84-8 13.839843-69.28125-40c-3.800781-2.183593-8.65625-.898437-10.878906 2.878907-1.074219 1.835937-1.375 4.023437-.835938 6.078125.542969 2.058594 1.878906 3.8125 3.714844 4.882812l69.28125 40-8 13.839844-145.441406-84c-.371094-.164062-.722656-.382812-1.039063-.640625-9.402343-6.167969-13.257812-18.039063-9.28125-28.558594v-.5625l1.363281-2.71875c4.234376-7.601562 12.253907-12.316406 20.957032-12.320312zm25.441406 315.839843-145.601562-84.078124c-11.273438-6.640626-15.152344-21.085938-8.71875-32.480469l92.082031-159.519531c2.398437 5.816406 6.15625 10.972656 10.957031 15.039062l.640625.558594.878906.640625h.402344l.878906.640625 1.199219.800781 1.28125.71875 146 84.640625zm0 0"/><path d="m157.160156 172.160156 27.757813 16c1.21875.691406 2.597656 1.050782 4 1.039063 3.589843-.035157 6.714843-2.457031 7.644531-5.921875.933594-3.464844-.558594-7.125-3.644531-8.957032l-27.757813-16c-3.804687-2.183593-8.65625-.898437-10.882812 2.878907-1.074219 1.835937-1.375 4.023437-.832032 6.078125.539063 2.058594 1.875 3.8125 3.714844 4.882812zm0 0"/><path d="m16.4375 288v-112c0-4.417969-3.582031-8-8-8s-8 3.582031-8 8v112c0 4.417969 3.582031 8 8 8s8-3.582031 8-8zm0 0"/><path d="m64.4375 160c4.417969 0 8-3.582031 8-8v-112c0-4.417969-3.582031-8-8-8s-8 3.582031-8 8v112c0 4.417969 3.582031 8 8 8zm0 0"/><path d="m144.4375 88c4.417969 0 8-3.582031 8-8v-64c0-4.417969-3.582031-8-8-8s-8 3.582031-8 8v64c0 4.417969 3.582031 8 8 8zm0 0"/><path d="m240.4375 136c4.417969 0 8-3.582031 8-8v-96c0-4.417969-3.582031-8-8-8s-8 3.582031-8 8v96c0 4.417969 3.582031 8 8 8zm0 0"/><path d="m328.4375 104c-4.417969 0-8 3.582031-8 8v80c0 4.417969 3.582031 8 8 8s8-3.582031 8-8v-80c0-4.417969-3.582031-8-8-8zm0 0"/><path d="m288.4375 72c4.417969 0 8-3.582031 8-8v-56c0-4.417969-3.582031-8-8-8s-8 3.582031-8 8v56c0 4.417969 3.582031 8 8 8zm0 0"/></g></svg>