<svg height="480pt" viewBox="0 0 480 480" width="480pt" xmlns="http://www.w3.org/2000/svg"><path d="m208 344-20.480469 18.160156c-16.992187 15.226563-41.613281 18.40625-61.917969 8-42.8125-21.949218-69.699218-66.050781-69.601562-114.160156v-192h-16c-17.671875 0-32 14.328125-32 32v304c0 17.671875 14.328125 32 32 32h224c14.582031-.011719 27.3125-9.878906 30.960938-24h1.039062v-64zm0 0" fill="#cff09e"/><path d="m224 64v32c0 4.417969-3.582031 8-8 8h-48v-8c0-4.417969-3.582031-8-8-8h-32c-4.417969 0-8 3.582031-8 8v8h-48c-4.417969 0-8-3.582031-8-8v-32h-16v32c0 13.253906 10.746094 24 24 24h56c4.417969 0 8-3.582031 8-8v-8h16v8c0 4.417969 3.582031 8 8 8h56c13.253906 0 24-10.746094 24-24v-32zm0 0" fill="#cff09e"/><path d="m213.921875 428.640625-5.921875 3.359375h56c17.671875 0 32-14.328125 32-32v-48c-21.039062 31.570312-49.140625 57.8125-82.078125 76.640625zm0 0" fill="#79bd9a"/><path d="m296 352h-88v80l5.921875-3.359375c32.9375-18.828125 61.039063-45.070313 82.078125-76.640625zm0 0" fill="#a8dba8"/><path d="m120 8h64c8.835938 0 16 7.164062 16 16s-7.164062 16-16 16h-64c-8.835938 0-16-7.164062-16-16s7.164062-16 16-16zm0 0" fill="#79bd9a"/><path d="m304 104h-8v296c0 17.671875-14.328125 32-32 32h-216v8c0 17.671875 14.328125 32 32 32h224c17.671875 0 32-14.328125 32-32v-304c0-17.671875-14.328125-32-32-32zm0 0" fill="#a8dba8"/><path d="m64 152h48c8.835938 0 16 7.164062 16 16v48c0 8.835938-7.164062 16-16 16h-48c-8.835938 0-16-7.164062-16-16v-48c0-8.835938 7.164062-16 16-16zm0 0" fill="#a8dba8"/><path d="m384 120h48c4.417969 0 8 3.582031 8 8v224c0 4.417969-3.582031 8-8 8h-48c-4.417969 0-8-3.582031-8-8v-224c0-4.417969 3.582031-8 8-8zm0 0" fill="#a8dba8"/><path d="m384 360h48v32c0 13.253906-10.746094 24-24 24s-24-10.746094-24-24zm0 0" fill="#cff09e"/><path d="m376 152h96v32h-96c-4.417969 0-8-3.582031-8-8v-16c0-4.417969 3.582031-8 8-8zm0 0" fill="#cff09e"/><path d="m400 72h16c4.417969 0 8 3.582031 8 8v40h-32v-40c0-4.417969 3.582031-8 8-8zm0 0" fill="#cff09e"/><path d="m408 416c-5.921875-.035156-11.617188-2.257812-16-6.238281v22.238281c0 8.835938 7.164062 16 16 16s16-7.164062 16-16v-22.238281c-4.382812 3.980469-10.078125 6.203125-16 6.238281zm0 0" fill="#79bd9a"/><g fill="#3b8686"><path d="m304 96c0-22.089844-17.910156-40-40-40h-16v-16c0-13.253906-10.746094-24-24-24h-17.359375c-3.390625-9.59375-12.464844-16.00390625-22.640625-16h-64c-10.175781-.00390625-19.25 6.40625-22.640625 16h-17.359375c-13.253906 0-24 10.746094-24 24v16h-16c-22.089844 0-40 17.910156-40 40v304c0 22.089844 17.910156 40 40 40 0 22.089844 17.910156 40 40 40h224c22.089844 0 40-17.910156 40-40v-304c0-22.089844-17.910156-40-40-40zm-16 280v24c0 13.253906-10.746094 24-24 24h-27.761719c19.378907-13.546875 36.792969-29.699219 51.761719-48zm-72 41.839844v-57.839844h64.480469c-17.746094 23.152344-39.605469 42.839844-64.480469 58.078125zm-96-401.839844h64c4.417969 0 8 3.582031 8 8s-3.582031 8-8 8h-64c-4.417969 0-8-3.582031-8-8s3.582031-8 8-8zm-48 24c0-4.417969 3.582031-8 8-8h17.359375c3.390625 9.59375 12.464844 16.003906 22.640625 16h64c10.175781.003906 19.25-6.40625 22.640625-16h17.359375c4.417969 0 8 3.582031 8 8v16h-160zm96 40h-32c-4.417969 0-8 3.582031-8 8v8h-48c-4.417969 0-8-3.582031-8-8v-16h160v16c0 4.417969-3.582031 8-8 8h-48v-8c0-4.417969-3.582031-8-8-8zm-152 320v-304c0-13.253906 10.746094-24 24-24h16v16c0 13.253906 10.746094 24 24 24h56c4.417969 0 8-3.582031 8-8v-8h16v8c0 4.417969 3.582031 8 8 8h56c13.253906 0 24-10.746094 24-24v-16h16c13.253906 0 24 10.746094 24 24v248h-80c-4.417969 0-8 3.582031-8 8v72h-160c-13.253906 0-24-10.746094-24-24zm312 40c0 13.253906-10.746094 24-24 24h-224c-13.253906 0-24-10.746094-24-24h208c22.089844 0 40-17.910156 40-40v-288c13.253906 0 24 10.746094 24 24zm0 0"/><path d="m64 240h48c13.253906 0 24-10.746094 24-24v-48c0-13.253906-10.746094-24-24-24h-48c-13.253906 0-24 10.746094-24 24v48c0 13.253906 10.746094 24 24 24zm-8-72c0-4.417969 3.582031-8 8-8h48c4.417969 0 8 3.582031 8 8v48c0 4.417969-3.582031 8-8 8h-48c-4.417969 0-8-3.582031-8-8zm0 0"/><path d="m200 168h48c4.417969 0 8-3.582031 8-8s-3.582031-8-8-8h-48c-4.417969 0-8 3.582031-8 8s3.582031 8 8 8zm0 0"/><path d="m168 200h80c4.417969 0 8-3.582031 8-8s-3.582031-8-8-8h-80c-4.417969 0-8 3.582031-8 8s3.582031 8 8 8zm0 0"/><path d="m168 240h80c4.417969 0 8-3.582031 8-8s-3.582031-8-8-8h-80c-4.417969 0-8 3.582031-8 8s3.582031 8 8 8zm0 0"/><path d="m56 272c0 4.417969 3.582031 8 8 8h184c4.417969 0 8-3.582031 8-8s-3.582031-8-8-8h-184c-4.417969 0-8 3.582031-8 8zm0 0"/><path d="m64 312h48c4.417969 0 8-3.582031 8-8s-3.582031-8-8-8h-48c-4.417969 0-8 3.582031-8 8s3.582031 8 8 8zm0 0"/><path d="m176 328h-112c-4.417969 0-8 3.582031-8 8s3.582031 8 8 8h112c4.417969 0 8-3.582031 8-8s-3.582031-8-8-8zm0 0"/><path d="m152 360h-40c-4.417969 0-8 3.582031-8 8s3.582031 8 8 8h40c4.417969 0 8-3.582031 8-8s-3.582031-8-8-8zm0 0"/><path d="m472 144h-24v-24c0-4.417969-3.582031-8-8-8h-8v-40c0-4.417969-3.582031-8-8-8h-32c-4.417969 0-8 3.582031-8 8v40h-8c-4.417969 0-8 3.582031-8 8v240c0 4.417969 3.582031 8 8 8v24c.011719 7.777344 2.855469 15.285156 8 21.121094v18.878906c0 13.253906 10.746094 24 24 24s24-10.746094 24-24v-18.878906c5.144531-5.835938 7.988281-13.34375 8-21.121094v-24c4.417969 0 8-3.582031 8-8v-168h16v88c0 4.417969 3.582031 8 8 8s8-3.582031 8-8v-128c0-4.417969-3.582031-8-8-8zm-72-64h16v32h-16zm32 48v16h-48v-16zm-48 32h48v16h-48zm24 280c-4.417969 0-8-3.582031-8-8v-9.039062c2.605469.714843 5.296875 1.0625 8 1.039062 2.703125.019531 5.394531-.332031 8-1.039062v9.039062c0 4.417969-3.582031 8-8 8zm16-48c.003906 4.226562-1.664062 8.28125-4.640625 11.28125l-.71875.558594c-6.066406 5.402344-15.214844 5.402344-21.28125 0l-.71875-.558594c-2.976563-3-4.644531-7.054688-4.640625-11.28125v-24h32zm8-40h-48v-160h48zm16-176v-16h16v16zm0 0"/></g></svg>