<svg height="480pt" viewBox="0 0 480 480.00001" width="480pt" xmlns="http://www.w3.org/2000/svg"><path d="m176 376h128v40h-128zm0 0" fill="#79bd9a"/><path d="m176 136h128v240h-128zm0 0" fill="#cff09e"/><path d="m176 416h128v16c0 22.089844-17.910156 40-40 40h-48c-22.089844 0-40-17.910156-40-40zm0 0" fill="#a8dba8"/><path d="m225.761719 16.71875-49.761719 119.28125h128l-49.761719-119.28125c-2.734375-5.34375-8.234375-8.703125-14.238281-8.703125s-11.503906 3.359375-14.238281 8.703125zm0 0" fill="#a8dba8"/><path d="m206.078125 64 19.683594-47.28125c2.734375-5.34375 8.234375-8.703125 14.238281-8.703125s11.503906 3.359375 14.238281 8.703125l19.683594 47.28125zm0 0" fill="#79bd9a"/><path d="m216 136h48v240h-48zm0 0" fill="#a8dba8"/><path d="m304 368v-232h56v232zm0 0" fill="#79bd9a"/><path d="m312 432c-2.679688-.039062-5.355469-.277344-8-.71875v-63.28125h56v16c0 26.507812-21.492188 48-48 48zm0 0" fill="#cff09e"/><path d="m304 136-17.359375-41.601562 18.480469-34.078126c1.441406-2.429687 4.054687-3.917968 6.878906-3.917968s5.4375 1.488281 6.878906 3.917968l41.121094 75.679688zm0 0" fill="#a8dba8"/><path d="m176 376v55.28125c-2.644531.441406-5.320312.679688-8 .71875-26.507812 0-48-21.492188-48-48v-16h56zm0 0" fill="#cff09e"/><path d="m120 368v-232h56v232zm0 0" fill="#79bd9a"/><path d="m176 136h-56l41.121094-75.679688c1.441406-2.429687 4.054687-3.917968 6.878906-3.917968s5.4375 1.488281 6.878906 3.917968l18.480469 34.078126zm0 0" fill="#a8dba8"/><path d="m192.71875 96h-50.957031l19.359375-35.679688c1.441406-2.429687 4.054687-3.917968 6.878906-3.917968s5.4375 1.488281 6.878906 3.917968l18.480469 34.078126zm0 0" fill="#79bd9a"/><path d="m287.28125 96-.640625-1.601562 18.480469-34.078126c1.441406-2.429687 4.054687-3.917968 6.878906-3.917968s5.4375 1.488281 6.878906 3.917968l19.359375 35.679688zm0 0" fill="#79bd9a"/><path d="m448 320c-35.347656 0-64-28.652344-64-64v-40h-24v128h104c4.417969 0 8-3.582031 8-8v-16zm0 0" fill="#cff09e"/><path d="m32 320c35.347656 0 64-28.652344 64-64v-40h24v128h-104c-4.417969 0-8-3.582031-8-8v-16zm0 0" fill="#cff09e"/><path d="m472 208h-104v-72c.050781-.128906.050781-.269531 0-.398438v-.5625c.039062-.128906.039062-.269531 0-.398437.035156-.320313.035156-.640625 0-.960937.035156-.15625.035156-.320313 0-.480469v-.480469l-42.078125-76.238281c-2.84375-5.011719-8.160156-8.113281-13.921875-8.113281s-11.078125 3.101562-13.921875 8.113281l-10.558594 19.359375-6.078125-14.640625-20-48c-4.082031-8.09375-12.375-13.20312525-21.441406-13.199219h-1.679688c-8.390624.597656-15.859374 5.542969-19.679687 13.039062v.5625l-20 47.359376-6.242187 14.878906-10.476563-19.359375c-2.84375-5.011719-8.160156-8.113281-13.921875-8.113281s-11.078125 3.101562-13.921875 8.113281l-41.117187 75.679687v.480469c-.035157.15625-.035157.320313 0 .480469-.035157.316406-.035157.640625 0 .957031-.039063.132813-.039063.269531 0 .402344v.558593c-.265626-.265624-.695313-.265624-.960938 0-.265625.265626-.265625.695313 0 .960938v72h-104c-4.417969 0-8 3.582031-8 8v128c0 4.417969 3.582031 8 8 8h104v32c0 30.929688 25.070312 56 56 56h.640625c3.90625 23.105469 23.925781 40.015625 47.359375 40h48c23.433594.015625 43.453125-16.894531 47.359375-40h.640625c30.929688 0 56-25.070312 56-56v-32h104c4.417969 0 8-3.582031 8-8v-128c0-4.417969-3.582031-8-8-8zm-344-64h40v216h-40zm168 224h-24v-224h24zm-112 0v-224h24v224zm40-224h32v224h-32zm55.199219-46.71875 12.800781 30.71875h-104l12.800781-30.558594 10.558594-25.441406h57.28125zm-95.199219 286.71875h112v24h-112zm128-240h40v216h-40zm-2.640625-16-10.078125-24h34.238281l13.039063 24zm15.441406-40h-25.679687l12.878906-24zm-78-68.160156 15.121094 36.160156h-43.84375l14.960937-35.839844h6.960938c2.085938-1.183594 4.613281-1.304687 6.800781-.320312zm-66 68.160156h-25.761719l12.960938-24zm-34.480469 16h34.398438l-10.078125 24h-37.28125zm-58.320312 232v-32c0-4.417969-3.582031-8-8-8s-8 3.582031-8 8v32h-24v-24c0-4.417969-3.582031-8-8-8s-8 3.582031-8 8v24h-16v-112h32v16c0 4.417969 3.582031 8 8 8s8-3.582031 8-8v-16h48v112zm40 48v-8h40v48c-22.089844 0-40-17.910156-40-40zm168 48c0 17.671875-14.328125 32-32 32h-48c-17.671875 0-32-14.328125-32-32v-8h112zm56-48c0 22.089844-17.910156 40-40 40v-48h40zm112-48h-16v-24c0-4.417969-3.582031-8-8-8s-8 3.582031-8 8v24h-24v-32c0-4.417969-3.582031-8-8-8s-8 3.582031-8 8v32h-24v-112h48v16c0 4.417969 3.582031 8 8 8s8-3.582031 8-8v-16h32zm0 0" fill="#3b8686"/></svg>