<svg height="480pt" viewBox="-24 0 480 480.00004" width="480pt" xmlns="http://www.w3.org/2000/svg"><path d="m8 189.839844v154.160156l56 35.039062v-119.4375c-22.605469-19.796874-41.558594-43.410156-56-69.761718zm0 0" fill="#cff09e"/><path d="m8 352c0 17.671875 14.328125 32 32 32h32l-64-40zm0 0" fill="#79bd9a"/><path d="m24 48c0-17.671875 14.328125-32 32-32 0 0 266.160156-1.359375 344 0 8.207031.671875 15.808594 4.589844 21.121094 10.878906-5.15625-11.464844-16.546875-18.851562-29.121094-18.878906h-352c-17.671875 0-32 14.328125-32 32v304l16 10" fill="#cff09e"/><path d="m224 296c8.65625 0 17.078125 2.808594 24 8v-40c0-8.835938-7.164062-16-16-16h-40c12.375-16.503906 10.175781-39.710938-5.085938-53.589844-15.257812-13.878906-38.570312-13.878906-53.828124 0-15.261719 13.878906-17.460938 37.085938-5.085938 53.589844h-40c-8.835938 0-16 7.164062-16 16v144c0 8.835938 7.164062 16 16 16h144c8.835938 0 16-7.164062 16-16v-40c-13.921875 10.441406-33 10.683594-47.183594.597656-14.183594-10.085937-20.214844-28.1875-14.921875-44.765625 5.296875-16.578125 20.703125-27.832031 38.105469-27.832031zm0 0" fill="#cff09e"/><path d="m296 272c0-8.65625 2.808594-17.074219 8-24h-40c-8.835938 0-16 7.164062-16 16v40c-16.503906-12.375-39.710938-10.175781-53.589844 5.085938-13.878906 15.257812-13.878906 38.570312 0 53.828124 13.878906 15.261719 37.085938 17.460938 53.589844 5.085938v40c0 8.835938 7.164062 16 16 16h144c8.835938 0 16-7.164062 16-16v-144c0-8.835938-7.164062-16-16-16h-40c10.441406 13.921875 10.683594 33 .597656 47.183594-10.085937 14.183594-28.1875 20.214844-44.765625 14.921875-16.578125-5.296875-27.832031-20.703125-27.832031-38.105469zm0 0" fill="#79bd9a"/><path d="m272 120c-8.65625 0-17.074219 2.808594-24 8v-40c0-8.835938-7.164062-16-16-16h-144c-8.835938 0-16 7.164062-16 16v144c0 8.835938 7.164062 16 16 16h40c-12.375-16.503906-10.175781-39.710938 5.085938-53.589844 15.257812-13.878906 38.570312-13.878906 53.828124 0 15.261719 13.878906 17.460938 37.085938 5.085938 53.589844h40c8.835938 0 16-7.164062 16-16v-40c13.921875 10.441406 33 10.683594 47.183594.597656 14.183594-10.085937 20.214844-28.1875 14.921875-44.765625-5.296875-16.578125-20.703125-27.832031-38.105469-27.832031zm0 0" fill="#79bd9a"/><path d="m392 72h-128c-8.835938 0-16 7.164062-16 16v40c16.503906-12.375 39.710938-10.175781 53.589844 5.085938 13.878906 15.257812 13.878906 38.570312 0 53.828124-13.878906 15.261719-37.085938 17.460938-53.589844 5.085938v40c0 8.835938 7.164062 16 16 16h40c-12.375 16.503906-10.175781 39.710938 5.085938 53.589844 15.257812 13.878906 38.570312 13.878906 53.828124 0 15.261719-13.878906 17.460938-37.085938 5.085938-53.589844h40c8.835938 0 16-7.164062 16-16v-192c0 17.671875-14.328125 32-32 32zm0 0" fill="#a8dba8"/><path d="m172 40h-68c19.921875 0 36 12.078125 36 32v70.238281c-.042969 1.652344.929688 3.160157 2.453125 3.796875 1.523437.636719 3.28125.273438 4.425781-.914062l22.242188-22.242188c1.589844-1.585937 4.167968-1.585937 5.757812 0l22.242188 22.242188c1.144531 1.1875 2.902344 1.550781 4.425781.914062 1.523437-.636718 2.496094-2.144531 2.453125-3.796875v-70.238281c0-17.671875-14.328125-32-32-32zm0 0" fill="#a8dba8"/><path d="m136 424v44c-.003906 1.382812.707031 2.667969 1.878906 3.398438 1.171875.734374 2.640625.808593 3.882813.203124l24.476562-12.242187c1.109375-.554687 2.414063-.554687 3.523438 0l24.476562 12.640625c1.308594.648438 2.867188.535156 4.066407-.296875 1.199218-.832031 1.847656-2.25 1.695312-3.703125v-44zm0 0" fill="#a8dba8"/><g fill="#3b8686"><path d="m432 40c0-22.089844-17.910156-40-40-40h-352c-22.089844 0-40 17.910156-40 40v328c0 13.253906 10.746094 24 24 24h40v16c0 13.253906 10.746094 24 24 24h40v40c.007812 2.773438 1.453125 5.34375 3.816406 6.792969 2.363282 1.453125 5.308594 1.574219 7.785156.328125l28.398438-14.160156 28.398438 14.160156c1.117187.570312 2.347656.871094 3.601562.878906 1.496094.003906 2.96875-.410156 4.238281-1.199219 2.34375-1.464843 3.765625-4.035156 3.761719-6.800781v-40h24c5.910156-.011719 11.605469-2.207031 16-6.160156 4.394531 3.953125 10.089844 6.148437 16 6.160156h144c13.253906 0 24-10.746094 24-24v-144c-.011719-5.910156-2.207031-11.605469-6.160156-16 3.953125-4.394531 6.148437-10.089844 6.160156-16zm-70.558594 212.800781c4.242188 5.5 6.546875 12.25 6.558594 19.199219 0 17.671875-14.328125 32-32 32s-32-14.328125-32-32c.011719-6.949219 2.316406-13.699219 6.558594-19.199219 1.835937-2.449219 2.117187-5.726562.722656-8.449219-1.394531-2.726562-4.222656-4.414062-7.28125-4.351562h-40c-4.417969 0-8-3.582031-8-8v-26.800781c5.132812 1.851562 10.542969 2.800781 16 2.800781 26.507812 0 48-21.492188 48-48s-21.492188-48-48-48c-5.457031 0-10.867188.949219-16 2.800781v-26.800781c0-4.417969 3.582031-8 8-8h135.441406l1.917969-.480469h1.761719c4.734375-1.660156 9.105468-4.210937 12.878906-7.519531v160c0 4.417969-3.582031 8-8 8h-40c-3.03125 0-5.800781 1.710938-7.15625 4.421875s-1.0625 5.953125.757812 8.378906zm-201.441406-76.800781c-26.507812 0-48 21.492188-48 48 0 5.457031.949219 10.867188 2.800781 16h-26.800781c-4.417969 0-8-3.582031-8-8v-144c0-4.417969 3.582031-8 8-8h44v72c.015625 3.230469 1.972656 6.132812 4.960938 7.359375 2.976562 1.253906 6.417968.589844 8.71875-1.679687l26.320312-26.398438 26.320312 26.398438h.398438c1.882812 1.109374 4.140625 1.398437 6.242188.800781h.878906c3.179687-.703125 5.617187-3.265625 6.160156-6.480469v-72h20c4.417969 0 8 3.582031 8 8v40c0 3.03125 1.710938 5.800781 4.421875 7.15625s5.953125 1.0625 8.378906-.757812c5.523438-4.183594 12.269531-6.433594 19.199219-6.398438 17.671875 0 32 14.328125 32 32s-14.328125 32-32 32c-6.949219-.011719-13.699219-2.316406-19.199219-6.558594-2.449219-1.835937-5.726562-2.117187-8.449219-.722656-2.726562 1.394531-4.414062 4.222656-4.351562 7.28125v40c0 4.417969-3.582031 8-8 8h-26.800781c1.851562-5.132812 2.800781-10.542969 2.800781-16 0-26.507812-21.492188-48-48-48zm-12-104c.109375-8.671875-2.710938-17.128906-8-24h28c13.921875 0 28 7.441406 28 24v60.71875l-18.320312-18.398438c-1.5-1.515624-3.546876-2.367187-5.679688-2.367187s-4.179688.851563-5.679688 2.367187l-18.320312 18.398438zm-108-56h352c13.253906 0 24 10.746094 24 24s-10.746094 24-24 24h-128c-5.910156.011719-11.605469 2.207031-16 6.160156-4.394531-3.953125-10.089844-6.148437-16-6.160156h-20.800781c-3.679688-18.960938-20.71875-32-43.199219-32h-64c-4.417969 0-8 3.582031-8 8s3.582031 8 8 8c11.414062-.945312 22.164062 5.492188 26.71875 16h-42.71875c-13.253906 0-24 10.746094-24 24v144c.011719 5.910156 2.207031 11.605469 6.160156 16-3.953125 4.394531-6.148437 10.089844-6.160156 16v105.601562l-16-9.601562v-136c0-4.417969-3.582031-8-8-8s-8 3.582031-8 8v125.601562l-16-10v-299.601562c0-13.253906 10.746094-24 24-24zm-24 352v-9.601562l28.078125 17.601562h-20.078125c-4.417969 0-8-3.582031-8-8zm176 91.039062-20.398438-10.160156c-2.265624-1.140625-4.9375-1.140625-7.203124 0l-20.398438 10.160156v-27.039062h48zm40-43.039062h-144c-4.417969 0-8-3.582031-8-8v-144c0-4.417969 3.582031-8 8-8h40c3.03125 0 5.800781-1.710938 7.15625-4.421875s1.0625-5.953125-.757812-8.378906c-4.183594-5.523438-6.433594-12.269531-6.398438-19.199219 0-17.671875 14.328125-32 32-32s32 14.328125 32 32c-.011719 6.949219-2.316406 13.699219-6.558594 19.199219-1.835937 2.449219-2.117187 5.726562-.722656 8.449219 1.394531 2.726562 4.222656 4.414062 7.28125 4.351562h40c4.417969 0 8 3.582031 8 8v26.800781c-5.132812-1.851562-10.542969-2.800781-16-2.800781-26.507812 0-48 21.492188-48 48s21.492188 48 48 48c5.457031 0 10.867188-.949219 16-2.800781v26.800781c0 4.417969-3.582031 8-8 8zm184-8c0 4.417969-3.582031 8-8 8h-144c-4.417969 0-8-3.582031-8-8v-40c.019531-3.042969-1.683594-5.832031-4.398438-7.199219h-7.203124c-5.734376 4.730469-12.960938 7.28125-20.398438 7.199219-17.671875 0-32-14.328125-32-32s14.328125-32 32-32c6.949219.011719 13.699219 2.316406 19.199219 6.558594 2.421875 1.84375 5.675781 2.152344 8.402343.800781 2.765626-1.394531 4.480469-4.261719 4.398438-7.359375v-40c0-4.417969 3.582031-8 8-8h26.800781c-1.851562 5.132812-2.800781 10.542969-2.800781 16 0 26.507812 21.492188 48 48 48s48-21.492188 48-48c0-5.457031-.949219-10.867188-2.800781-16h26.800781c4.417969 0 8 3.582031 8 8zm0 0"/><path d="m272 48h88c4.417969 0 8-3.582031 8-8s-3.582031-8-8-8h-88c-4.417969 0-8 3.582031-8 8s3.582031 8 8 8zm0 0"/><path d="m40 160c4.417969 0 8-3.582031 8-8v-96c0-4.417969 3.582031-8 8-8h8c4.417969 0 8-3.582031 8-8s-3.582031-8-8-8h-8c-13.253906 0-24 10.746094-24 24v96c0 4.417969 3.582031 8 8 8zm0 0"/><path d="m400 176c-.011719-5.910156-2.207031-11.605469-6.160156-16 3.953125-4.394531 6.148437-10.089844 6.160156-16 0-13.253906-10.746094-24-24-24h-32c-4.417969 0-8 3.582031-8 8v64c0 4.417969 3.582031 8 8 8h32c13.253906 0 24-10.746094 24-24zm-24-40c4.417969 0 8 3.582031 8 8s-3.582031 8-8 8h-24v-16zm-24 32h24c4.417969 0 8 3.582031 8 8s-3.582031 8-8 8h-24zm0 0"/><path d="m128 304c-17.671875 0-32 14.328125-32 32v40c0 4.417969 3.582031 8 8 8s8-3.582031 8-8v-16h32v16c0 4.417969 3.582031 8 8 8s8-3.582031 8-8v-40c0-17.671875-14.328125-32-32-32zm-16 40v-8c0-8.835938 7.164062-16 16-16s16 7.164062 16 16v8zm0 0"/></g></svg>