<svg height="480pt" viewBox="0 0 480 480.29871" width="480pt" xmlns="http://www.w3.org/2000/svg"><path d="m216.140625 424.296875c-20.8125.0625-39.292969-13.292969-45.761719-33.070313-6.472656-19.78125.539063-41.476562 17.359375-53.726562 22.445313-16.707031 48.707031-27.539062 76.402344-31.519531-48.253906-6.964844-97.152344 7.371093-134 39.292969-36.847656 31.921874-58.011719 78.273437-58 127.023437h336c.027344-16.25-2.316406-32.421875-6.960937-48zm0 0" fill="#cff09e"/><path d="m351.019531 346.296875c-10.878906 18.722656-22.878906 38-22.878906 38l-40-8-16 48-24 16 40 8 72-8 34.320313-34.316406c-9.902344-22.855469-24.734376-43.238281-43.441407-59.683594zm0 0" fill="#a8dba8"/><path d="m84.859375 408.296875 19.28125 16 40 8 56-8 16-48-32-32-14-24.558594c-38.597656 17.683594-69.066406 49.324219-85.28125 88.558594zm0 0" fill="#79bd9a"/><path d="m186.699219 289.578125 25.359375 30.71875c3.332031 4.066406 8.449218 6.234375 13.6875 5.804687 5.238281-.429687 9.929687-3.40625 12.554687-7.960937l158.160157-273.921875c2.484374-4.28125 2.847656-9.46875.984374-14.054688-1.859374-4.585937-5.742187-8.050781-10.503906-9.386718l-37.523437-10.71875c-3.929688-1.117188-8.136719-.6875-11.757813 1.199218l-86.878906 45.039063-72 124.640625 4.316406 99.359375c.144532 3.40625 1.410156 6.671875 3.601563 9.28125zm0 0" fill="#cff09e"/><path d="m358.699219 109.578125-80 138.5625-158.238281-109.84375 64-110.878906zm0 0" fill="#a8dba8"/><path d="m62.378906 30.859375c-6.238281 11.519531 20.960938 86 44.242188 99.4375l20.71875 12 64-110.878906-20.71875-12c-23.28125-13.4375-101.601563 0-108.242188 11.441406zm0 0" fill="#a8dba8"/><path d="m267.578125 130.859375c0 17.671875-14.324219 32-32 32-17.671875 0-32-14.328125-32-32s14.328125-32 32-32c17.675781 0 32 14.328125 32 32zm0 0" fill="#79bd9a"/><path d="m378.460938 139.417969-64 110.878906-43.761719 11.683594 96-166.242188zm0 0" fill="#a8dba8"/><path d="m314.441406 250.28125 64-110.851562 27.714844 16-64 110.851562zm0 0" fill="#a8dba8"/><path d="m460.140625 272.296875c-37.796875 1-73.007813-19.105469-91.359375-52.15625l-26.640625 46.15625 20.800781 12c19.597656 11.363281 78.558594 3.523437 100.398438-6.078125zm0 0" fill="#cff09e"/><path d="m399.5 232.296875c-13.199219 2.34375-26.601562 3.335937-40 2.960937l28.800781-49.917968c7.078125 11.464844 12.953125 23.636718 17.519531 36.320312.816407 2.25.582032 4.753906-.640624 6.816406-1.226563 2.058594-3.308594 3.460938-5.679688 3.820313zm0 0" fill="#79bd9a"/><path d="m50.859375 220.859375 10 14.640625c.535156.746094 1.289063 1.304688 2.160156 1.597656l16.960938 4.960938c1.261719.390625 2.257812 1.367187 2.671875 2.621094.414062 1.257812.191406 2.636718-.59375 3.699218l-10.800782 14c-.570312.730469-.878906 1.632813-.878906 2.558594l.480469 17.679688c.054687 1.3125-.550781 2.566406-1.609375 3.335937-1.0625.773437-2.441406.960937-3.671875.503906l-16.71875-6.160156c-.851563-.316406-1.789063-.316406-2.640625 0l-16.71875 5.921875c-1.199219.472656-2.554688.328125-3.625-.390625s-1.71875-1.917969-1.734375-3.210937l.480469-17.679688c.117187-.882812-.050782-1.777344-.480469-2.558594l-11.121094-14.082031c-.785156-1.0625-1.003906-2.441406-.59375-3.695313.414063-1.253906 1.410157-2.234374 2.671875-2.621093l17.042969-4.882813c.867187-.292968 1.625-.851562 2.160156-1.597656l10-14.640625c.785157-1.011719 1.996094-1.601563 3.277344-1.601563s2.492187.589844 3.28125 1.601563zm0 0" fill="#cff09e"/><g fill="#3b8686"><path d="m255.578125 96.296875c-19.128906-11.042969-43.59375-4.488281-54.636719 14.640625-5.359375 9.160156-6.800781 20.089844-4 30.320312 2.8125 10.140626 9.507813 18.765626 18.636719 24 6.046875 3.523438 12.921875 5.375 19.921875 5.359376 3.511719.027343 7.011719-.429688 10.398438-1.359376 10.140624-2.8125 18.765624-9.511718 24-18.640624 5.359374-9.15625 6.800781-20.085938 4-30.320313-2.734376-10.085937-9.3125-18.699219-18.320313-24zm.800781 46.640625c-4.839844 8.429688-14.289062 13.109375-23.925781 11.847656-9.640625-1.261718-17.566406-8.214844-20.074219-17.605468-1.652344-6.160157-.789062-12.722657 2.402344-18.242188 6.625-11.484375 21.3125-15.425781 32.796875-8.796875 11.488281 6.625 15.429687 21.3125 8.800781 32.796875zm0 0"/><path d="m467.660156 214.859375c-5.441406-13.121094-19.519531-44.5625-36.71875-54.5625l-20.800781-12-24.882813-14.398437-9.917968-37.039063 38.320312-66.402344c1.242188-2.144531 1.417969-4.742187.480469-7.039062-.933594-2.257813-2.851563-3.96875-5.199219-4.640625l-63.441406-18.480469c-1.976562-.539063-4.082031-.3398438-5.921875.5625l-91.4375 47.917969-59.921875-28.398438-13.597656-8c-26.242188-14.960937-109.679688-1.921875-119.203125 14.480469-9.4375 16.398437 20.960937 95.28125 47.203125 110.398437l13.519531 8 54.71875 37.921876 4.398437 102.71875c.070313 1.757812.71875 3.445312 1.839844 4.800781l11.121094 13.597656c-73.898438 22.488281-124.320312 90.757813-124.078125 168 0 4.421875 3.582031 8 8 8h336c4.417969 0 8-3.578125 8-8 .386719-89.832031-67.238281-165.402344-156.5625-174.957031l16-28.480469 37.28125-10 24.878906 14.398437 20.800781 12c11.65625 5.085938 24.34375 7.359376 37.039063 6.640626 33.839844 0 75.519531-9.679688 82.082031-21.039063 6.558594-11.359375-4.640625-43.039063-10-56zm-114.320312-16 28-48.480469 13.839844 8-12.160157 21.121094c-.71875.621094-1.339843 1.351562-1.839843 2.160156l-29.039063 49.917969c-.472656.816406-.800781 1.710937-.960937 2.640625l-12.238282 21.121094-13.84375-8zm27.757812 16 7.28125-12.640625c3.441406 6.960938 6.960938 14.878906 9.839844 22.558594-8 1.28125-16.71875 2.242187-24 2.722656zm-104.957031 21.757813-138.480469-96 57.28125-99.199219 152.476563 72-35.277344 61.441406zm68-219.757813 50.558594 14.480469-34.558594 60.320312-4.320313 7.4375-89.28125-41.757812zm-274.722656 18.078125c9.28125-8 77.761719-19.757812 97.203125-8.558594l13.839844 8-56 96.960938-13.839844-8c-19.441406-11.042969-43.363282-76.402344-41.203125-88.402344zm198.722656 216-4.320313 7.441406-23.679687 41.121094c-.339844.476562-.636719.984375-.882813 1.519531l-13.359374 23.199219-34.398438-41.839844-3.839844-88zm-101.28125 80 10.320313 18.082031 1.28125 1.679688 28.558593 28.480469-12.878906 37.917968-50 7.199219-36.640625-7.359375-12.878906-11.039062c14.878906-32.632813 40.332031-59.296876 72.238281-75.679688zm218.082031 73.28125-28.480468 28.078125-68.320313 8-19.839844-4 8-5.277344c1.488281-.96875 2.613281-2.402343 3.199219-4.082031l13.757812-41.359375 33.28125 6.71875c3.277344.675781 6.628907-.757813 8.402344-3.597656 0 0 8.71875-14 17.917969-29.519531 13.191406 13.066406 24.042969 28.300781 32.082031 45.039062zm-44-56.480469c-6.480468 11.121094-13.042968 21.761719-16.640625 27.601563l-34.5625-7.042969c-3.960937-.816406-7.90625 1.449219-9.199219 5.28125l-15.121093 45.441406-21.679688 14.480469c-2.625 1.753906-3.972656 4.886719-3.4375 8 .609375 3.171875 3.074219 5.667969 6.238281 6.320312l40 8h2.480469l72-8c1.808594-.179687 3.5-.972656 4.800781-2.242187l25.757813-25.757813c4.902344 14.355469 7.785156 29.328126 8.5625 44.476563h-320c.71875-14.5625 3.410156-28.957031 8-42.796875l10.71875 8.957031c1.015625.84375 2.226563 1.421875 3.519531 1.683594l40 8h2.71875l56-8c3.003906-.417969 5.511719-2.492187 6.480469-5.363281l16-48c.886719-2.816406.148437-5.890625-1.917969-8l-31.28125-31.199219-9.121094-16c5.859376-2.265625 11.839844-4.1875 17.921876-5.757813l21.199218 25.757813c1.523438 1.828125 3.78125 2.882813 6.160156 2.878906h.640626c2.636718-.203125 5.003906-1.703125 6.320312-4l17.199219-30.160156c33.023437 2.199219 64.550781 14.582031 90.242187 35.441406zm.71875-192.558593 22.320313-38.722657 5.839843 21.839844-9.679687 16.402344-51.199219 88.71875-21.84375 5.839843zm122.480469 107.597656c-9.359375 8-77.839844 19.761718-97.199219 8.5625l-13.84375-8 11.28125-19.601563h1.121094c15.140625-.242187 30.222656-1.929687 45.039062-5.039062 2.195313-.492188 4.085938-1.886719 5.199219-3.839844 1.101563-1.949219 1.332031-4.273437.640625-6.402344-4.757812-14.753906-11.003906-28.984375-18.640625-42.476562l11.359375-19.601563 13.84375 8c19.359375 11.199219 43.359375 76.398438 41.199219 88.398438zm0 0"/><path d="m74.378906 294.9375c2.136719-1.558594 3.367188-4.074219 3.28125-6.71875l-.5625-22.078125 13.441406-17.84375c1.617188-2.089844 2.097657-4.84375 1.28125-7.359375-.820312-2.511719-2.824218-4.457031-5.359374-5.199219l-21.203126-6.238281-12.476562-17.921875c-1.492188-2.175781-3.960938-3.476563-6.601562-3.476563-2.640626 0-5.109376 1.300782-6.601563 3.476563l-12.480469 18.242187-21.199218 6.238282c-2.535157.742187-4.539063 2.6875-5.359376 5.199218-.816406 2.515626-.335937 5.269532 1.28125 7.359376l13.4375 17.523437-.558593 22.15625c-.152344 2.671875 1.042969 5.242187 3.179687 6.847656 2.136719 1.609375 4.9375 2.042969 7.460938 1.152344l20.878906-8 20.800781 7.441406c.847657.308594 1.738281.46875 2.640625.480469 1.667969.078125 3.316406-.371094 4.71875-1.28125zm-11.679687-36.320312c-1.136719 1.460937-1.730469 3.273437-1.679688 5.121093v13.28125l-12.160156-4.722656c-.875-.144531-1.765625-.144531-2.640625 0-.925781.003906-1.847656.164063-2.71875.480469l-12.480469 4.480468v-13.277343c.097657-1.859375-.5-3.683594-1.679687-5.121094l-7.761719-10.5625 12.800781-3.757813c1.765625-.535156 3.292969-1.667968 4.320313-3.199218l7.519531-10.960938 7.441406 10.960938c1.074219 1.519531 2.621094 2.644531 4.398438 3.199218l12.722656 3.757813zm0 0"/><path d="m56.140625 184.296875c0 4.421875-3.582031 8-8 8s-8-3.578125-8-8c0-4.417969 3.582031-8 8-8s8 3.582031 8 8zm0 0"/><path d="m144.140625 272.296875c0 4.421875-3.582031 8-8 8s-8-3.578125-8-8c0-4.417969 3.582031-8 8-8s8 3.582031 8 8zm0 0"/><path d="m48.140625 384.296875c0 4.421875-3.582031 8-8 8s-8-3.578125-8-8c0-4.417969 3.582031-8 8-8s8 3.582031 8 8zm0 0"/></g></svg>