<svg height="480pt" viewBox="0 0 480 480.0401" width="480pt" xmlns="http://www.w3.org/2000/svg"><path d="m272.019531 440c0 17.671875-14.328125 32-32 32s-32-14.328125-32-32 14.328125-32 32-32 32 14.328125 32 32zm0 0" fill="#79bd9a"/><path d="m400.019531 440c0 17.671875-14.328125 32-32 32s-32-14.328125-32-32 14.328125-32 32-32 32 14.328125 32 32zm0 0" fill="#79bd9a"/><g fill="#cff09e"><path d="m344.019531 408c-70.691406 0-128-57.308594-128-128v-24c-.027343-9.082031 1.910157-18.058594 5.679688-26.320312-22.929688 10.34375-37.671875 33.164062-37.679688 58.320312v136c0 8.835938 7.164063 16 16 16h208c8.835938 0 16-7.164062 16-16v-16zm0 0"/><path d="m314.820312 321.921875 69.199219-50.402344v-42.800781c-7.617187-3.121094-15.769531-4.722656-24-4.71875h-112c-14.546875.011719-28.652343 4.976562-40 14.078125v33.441406l69.199219 50.402344c11.214844 8.136719 26.390625 8.136719 37.601562 0zm0 0"/><path d="m256.019531 328h-8v-56c0-4.417969-3.582031-8-8-8s-8 3.582031-8 8v56h-8c-4.417969 0-8 3.582031-8 8s3.582031 8 8 8h8v8c0 4.417969 3.582031 8 8 8s8-3.582031 8-8v-8h8c4.417969 0 8-3.582031 8-8s-3.582031-8-8-8zm0 0"/><path d="m368.019531 328h-8v-56c0-4.417969-3.582031-8-8-8s-8 3.582031-8 8v56h-8c-4.417969 0-8 3.582031-8 8s3.582031 8 8 8h8v8c0 4.417969 3.582031 8 8 8s8-3.582031 8-8v-8h8c4.417969 0 8-3.582031 8-8s-3.582031-8-8-8zm0 0"/></g><path d="m256.019531 48h96c4.417969 0 8 3.582031 8 8v24h-112v-24c0-4.417969 3.582031-8 8-8zm0 0" fill="#79bd9a"/><path d="m385.460938 260.800781-62.640626 45.519531c-11.210937 8.140626-26.386718 8.140626-37.601562 0l-62.640625-45.519531c-4.085937-2.988281-6.519531-7.738281-6.558594-12.800781v-56c0-17.671875 14.328125-32 32-32h112c17.671875 0 32 14.328125 32 32v56c-.035156 5.0625-2.46875 9.8125-6.558593 12.800781zm0 0" fill="#79bd9a"/><path d="m280.019531 360h48c8.835938 0 16 7.164062 16 16v16c0 8.835938-7.164062 16-16 16h-48c-8.835937 0-16-7.164062-16-16v-16c0-8.835938 7.164063-16 16-16zm0 0" fill="#79bd9a"/><path d="m280.019531 200h48c8.835938 0 16 7.164062 16 16v16c0 8.835938-7.164062 16-16 16h-48c-8.835937 0-16-7.164062-16-16v-16c0-8.835938 7.164063-16 16-16zm0 0" fill="#a8dba8"/><path d="m424.019531 304h16c17.671875 0 32 14.328125 32 32v64c0 8.835938-7.164062 16-16 16h-32zm0 0" fill="#a8dba8"/><path d="m424.019531 304h16c17.671875 0 32 14.328125 32 32v8h-48zm0 0" fill="#79bd9a"/><path d="m184.019531 416h-32c-8.835937 0-16-7.164062-16-16v-64c0-17.671875 14.328125-32 32-32h16zm0 0" fill="#a8dba8"/><path d="m184.019531 344h-48v-8c0-17.671875 14.328125-32 32-32h16zm0 0" fill="#79bd9a"/><path d="m8.019531 208h72v224h-72" fill="#a8dba8"/><path d="m8.019531 472h128v-8c0-17.671875-14.328125-32-32-32h-96" fill="#79bd9a"/><path d="m170.179688 104h-82.160157c-35.347656 0-64-28.652344-64-64v-32h-16v48c0 35.347656 28.652344 64 64 64h82.160157c2.855468 4.945312 8.128906 7.996094 13.839843 8h32c8.835938 0 16-7.164062 16-16h-32c-5.710937-.003906-10.984375-3.054688-13.839843-8zm0 0" fill="#cff09e"/><path d="m8.019531 8h64v32h-64zm0 0" fill="#79bd9a"/><path d="m72.019531 8h32v56h-32zm0 0" fill="#a8dba8"/><path d="m8.019531 56v168h64c17.671875 0 32-14.328125 32-32v-72h-32c-35.347656 0-64-28.652344-64-64zm0 0" fill="#a8dba8"/><path d="m160.019531 24c-.015625-2.265625.476563-4.507812 1.441407-6.558594-5.734376 2.574219-9.429688 8.273438-9.441407 14.558594v24h32v-8c-13.253906 0-24-10.746094-24-24zm0 0" fill="#cff09e"/><path d="m352.019531 240v-16c0-13.253906-10.746093-24-24-24h-48c-13.253906 0-24 10.746094-24 24v16c0 13.253906 10.746094 24 24 24h48c13.253907 0 24-10.746094 24-24zm-80 0v-16c0-4.417969 3.582031-8 8-8h48c4.417969 0 8 3.582031 8 8v16c0 4.417969-3.582031 8-8 8h-48c-4.417969 0-8-3.582031-8-8zm0 0" fill="#3b8686"/><path d="m440.019531 296h-8v-8c-.089843-23.953125-12.082031-46.292969-32-59.601562v-36.398438c.003907-19.011719-13.371093-35.398438-32-39.199219v-88.800781c0-13.253906-10.746093-24-24-24h-80c-13.253906 0-24 10.746094-24 24v88.800781c-18.625 3.800781-32.003906 20.1875-32 39.199219v36.398438c-19.914062 13.308593-31.910156 35.648437-32 59.601562v8h-8c-22.089843 0-40 17.910156-40 40v64c0 13.253906 10.746094 24 24 24h24c0 13.253906 10.746094 24 24 24h.800781c3.785157 18.644531 20.175782 32.039062 39.199219 32.039062 19.023438 0 35.414063-13.394531 39.199219-32.039062h49.601562c3.785157 18.644531 20.175782 32.039062 39.199219 32.039062 19.023438 0 35.414063-13.394531 39.199219-32.039062h.800781c13.253907 0 24-10.746094 24-24h24c13.253907 0 24-10.746094 24-24v-64c0-22.089844-17.90625-40-40-40zm-184-232c0-4.417969 3.582031-8 8-8h80c4.417969 0 8 3.582031 8 8v8h-96zm0 24h96v64h-96zm-32 104c0-13.253906 10.746094-24 24-24h112c13.253907 0 24 10.746094 24 24v59.921875l-65.917969 48c-8.402343 6.082031-19.761718 6.082031-28.160156 0l-65.921875-48zm-56 120h8v24h-32c0-13.253906 10.746094-24 24-24zm-16 96c-4.417969 0-8-3.582031-8-8v-48h32v56zm88 56c-10.144531-.027344-19.175781-6.433594-22.558593-16h45.117187c-3.378906 9.566406-12.410156 15.972656-22.558594 16zm128 0c-10.144531-.027344-19.175781-6.433594-22.558593-16h45.117187c-3.378906 9.566406-12.410156 15.972656-22.558594 16zm48-40c0 4.417969-3.582031 8-8 8h-208c-4.417969 0-8-3.582031-8-8v-136c.039063-14.601562 5.78125-28.609375 16-39.039062v7.039062c-.007812 2.558594 1.214844 4.96875 3.28125 6.480469l28.71875 20.878906v36.640625h-8c-4.417969 0-8 3.582031-8 8s3.582031 8 8 8h8v8c0 4.417969 3.582031 8 8 8s8-3.582031 8-8v-8h8c4.417969 0 8-3.582031 8-8s-3.582031-8-8-8h-8v-25.039062l24.558594 17.839843c6.757813 5.109375 14.972656 7.914063 23.441406 8 8.492188-.101562 16.726563-2.90625 23.519531-8l24.480469-17.839843v25.039062h-8c-4.417969 0-8 3.582031-8 8s3.582031 8 8 8h8v8c0 4.417969 3.582031 8 8 8s8-3.582031 8-8v-8h8c4.417969 0 8-3.582031 8-8s-3.582031-8-8-8h-8v-36.640625l28.71875-20.878906c2.070313-1.511719 3.289063-3.921875 3.28125-6.480469v-7.039062c10.21875 10.429687 15.960938 24.4375 16 39.039062zm48-24c0 4.417969-3.582031 8-8 8h-24v-56h32zm-32-64v-24h8c13.253907 0 24 10.746094 24 24zm0 0" fill="#3b8686"/><path d="m104.019531 424h-16v-195.359375c14.570313-6.359375 23.992188-20.742187 24-36.640625v-64h38.242188c4.519531 5.058594 10.972656 7.964844 17.757812 8h32c13.253907 0 24-10.746094 24-24v-40c0-13.253906-10.746093-24-24-24h-8v-16c0-13.253906-10.746093-24-24-24-13.253906 0-24 10.746094-24 24v24h-32v-48c0-4.417969-3.582031-8-8-8s-8 3.582031-8 8v48h-16v-48c0-4.417969-3.582031-8-8-8s-8 3.582031-8 8v24h-48v-24c0-4.417969-3.582031-8-8-8s-7.9999998 3.582031-7.9999998 8v48c0 39.765625 32.2343748 72 71.9999998 72h24v64c0 13.253906-10.746093 24-24 24h-64c-4.417969 0-7.9999998 3.582031-7.9999998 8s3.5820308 8 7.9999998 8h64v192h-64c-4.417969 0-7.9999998 3.582031-7.9999998 8s3.5820308 8 7.9999998 8h96c13.253907 0 24 10.746094 24 24h-120c-4.417969 0-7.9999998 3.582031-7.9999998 8s3.5820308 8 7.9999998 8h128c4.417969 0 8-3.582031 8-8v-8c0-22.089844-17.90625-40-40-40zm56-392c0-4.417969 3.582031-8 8-8s8 3.582031 8 8v16h-16zm0 32h40c4.417969 0 8 3.582031 8 8v40c0 4.417969-3.582031 8-8 8h-32c-4.417969 0-8-3.582031-8-8zm-88 48c-30.925781 0-56-25.070312-56-56v-8h48v16c0 4.417969 3.582031 8 8 8h72v40zm0 0" fill="#3b8686"/><path d="m328.019531 352h-48c-13.253906 0-24 10.746094-24 24v16c0 13.253906 10.746094 24 24 24h48c13.253907 0 24-10.746094 24-24v-16c0-13.253906-10.746093-24-24-24zm8 40c0 4.417969-3.582031 8-8 8h-48c-4.417969 0-8-3.582031-8-8v-16c0-4.417969 3.582031-8 8-8h48c4.417969 0 8 3.582031 8 8zm0 0" fill="#3b8686"/></svg>