<svg height="480pt" viewBox="0 0 480 480" width="480pt" xmlns="http://www.w3.org/2000/svg"><path d="m264 184c0 26.507812-21.492188 48-48 48s-48-21.492188-48-48 21.492188-48 48-48 48 21.492188 48 48zm0 0" fill="#cff09e"/><path d="m104 144h272v32h-272zm0 0" fill="#cff09e"/><path d="m328 408c-106.039062 0-192-85.960938-192-192v-72h-32v296h272v-32zm0 0" fill="#cff09e"/><path d="m80 312v-64h24v192h-64v-50c25.117188-18.039062 40.007812-47.074219 40-78zm0 0" fill="#a8dba8"/><path d="m400 312v-64h-24v192h64v-50c-25.117188-18.039062-40.007812-47.074219-40-78zm0 0" fill="#a8dba8"/><path d="m232 344h16c17.671875 0 32 14.328125 32 32v64h-80v-64c0-17.671875 14.328125-32 32-32zm0 0" fill="#a8dba8"/><path d="m310.320312 56h-70.320312v-48h70.320312c1.636719-.011719 3.113282.976562 3.730469 2.492188.613281 1.515624.246094 3.253906-.929687 4.386718l-14.320313 14.320313c-1.523437 1.554687-1.523437 4.046875 0 5.601562l14.320313 14.320313c1.175781 1.132812 1.542968 2.871094.929687 4.386718-.617187 1.515626-2.09375 2.503907-3.730469 2.492188zm0 0" fill="#cff09e"/><path d="m80 104h320c4.417969 0 8 3.582031 8 8v24c0 4.417969-3.582031 8-8 8h-320c-4.417969 0-8-3.582031-8-8v-24c0-4.417969 3.582031-8 8-8zm0 0" fill="#79bd9a"/><path d="m376 216h72c4.417969 0 8 3.582031 8 8v16c0 4.417969-3.582031 8-8 8h-72zm0 0" fill="#79bd9a"/><path d="m32 216h72v32h-72c-4.417969 0-8-3.582031-8-8v-16c0-4.417969 3.582031-8 8-8zm0 0" fill="#79bd9a"/><path d="m152 240h48c4.417969 0 8 3.582031 8 8v16c0 4.417969-3.582031 8-8 8h-48c-4.417969 0-8-3.582031-8-8v-16c0-4.417969 3.582031-8 8-8zm0 0" fill="#79bd9a"/><path d="m280 240h48c4.417969 0 8 3.582031 8 8v16c0 4.417969-3.582031 8-8 8h-48c-4.417969 0-8-3.582031-8-8v-16c0-4.417969 3.582031-8 8-8zm0 0" fill="#79bd9a"/><path d="m288 160c0 26.507812-21.492188 48-48 48s-48-21.492188-48-48 21.492188-48 48-48 48 21.492188 48 48zm0 0" fill="#a8dba8"/><g fill="#79bd9a"><path d="m72 456c-4.417969 0-8-3.582031-8-8v-76c0-4.417969 3.582031-8 8-8s8 3.582031 8 8v76c0 4.417969-3.582031 8-8 8zm0 0"/><path d="m104 344c0 17.671875-14.328125 32-32 32s-32-14.328125-32-32 14.328125-32 32-32 32 14.328125 32 32zm0 0"/><path d="m136 456c-4.417969 0-8-3.582031-8-8v-76c0-4.417969 3.582031-8 8-8s8 3.582031 8 8v76c0 4.417969-3.582031 8-8 8zm0 0"/><path d="m168 344c0 17.671875-14.328125 32-32 32s-32-14.328125-32-32 14.328125-32 32-32 32 14.328125 32 32zm0 0"/><path d="m344 456c-4.417969 0-8-3.582031-8-8v-76c0-4.417969 3.582031-8 8-8s8 3.582031 8 8v76c0 4.417969-3.582031 8-8 8zm0 0"/><path d="m376 344c0 17.671875-14.328125 32-32 32s-32-14.328125-32-32 14.328125-32 32-32 32 14.328125 32 32zm0 0"/><path d="m408 456c-4.417969 0-8-3.582031-8-8v-76c0-4.417969 3.582031-8 8-8s8 3.582031 8 8v76c0 4.417969-3.582031 8-8 8zm0 0"/><path d="m440 344c0 17.671875-14.328125 32-32 32s-32-14.328125-32-32 14.328125-32 32-32 32 14.328125 32 32zm0 0"/><path d="m24 440h432c8.835938 0 16 7.164062 16 16v16h-464v-16c0-8.835938 7.164062-16 16-16zm0 0"/></g><path d="m456 432h-8v-176h8c4.417969 0 8-3.582031 8-8v-32c0-4.417969-3.582031-8-8-8h-72v-56h8c13.253906 0 24-10.746094 24-24v-8c0-13.253906-10.746094-24-24-24h-144v-32h72c3.230469-.015625 6.132812-1.972656 7.359375-4.960938 1.253906-2.976562.589844-6.417968-1.679687-8.71875l-18.398438-18.320312 18.398438-18.320312c2.269531-2.300782 2.933593-5.742188 1.679687-8.71875-1.226563-2.988282-4.128906-4.945313-7.359375-4.960938h-80c-4.417969 0-8 3.582031-8 8v88h-144c-13.253906 0-24 10.746094-24 24v8c0 13.253906 10.746094 24 24 24h8v56h-72c-4.417969 0-8 3.582031-8 8v32c0 4.417969 3.582031 8 8 8h8v176h-8c-13.253906 0-24 10.746094-24 24v16c0 4.417969 3.582031 8 8 8h464c4.417969 0 8-3.582031 8-8v-16c0-13.253906-10.746094-24-24-24zm-208-416h52.71875l-10.398438 10.320312c-1.515624 1.5-2.367187 3.546876-2.367187 5.679688s.851563 4.179688 2.367187 5.679688l10.398438 10.320312h-52.71875zm0 320h-16c-22.089844 0-40 17.910156-40 40v56h-48v-48.800781c20.140625-4.089844 33.902344-22.773438 31.835938-43.21875-2.0625-20.445313-19.285157-36-39.835938-35.980469-8.664062-.046875-17.097656 2.765625-24 8v-160h72.640625c-.414063 2.648438-.628906 5.320312-.640625 8 0 30.929688 25.070312 56 56 56s56-25.070312 56-56c-.011719-2.679688-.226562-5.351562-.640625-8h72.640625v160c-6.902344-5.234375-15.335938-8.046875-24-8-20.550781-.019531-37.773438 15.535156-39.835938 35.980469-2.066406 20.445312 11.695313 39.128906 31.835938 43.21875v48.800781h-48v-56c0-22.089844-17.910156-40-40-40zm24 40v56h-64v-56c0-13.253906 10.746094-24 24-24h16c13.253906 0 24 10.746094 24 24zm-136-8c-13.253906 0-24-10.746094-24-24s10.746094-24 24-24 24 10.746094 24 24-10.746094 24-24 24zm184-24c0-13.253906 10.746094-24 24-24s24 10.746094 24 24-10.746094 24-24 24-24-10.746094-24-24zm32 39.199219c9.589844-1.957031 18.128906-7.367188 24-15.199219 5.828125 7.921875 14.375 13.417969 24 15.441406v48.558594h-48zm32-39.199219c0-13.253906 10.746094-24 24-24s24 10.746094 24 24-10.746094 24-24 24-24-10.746094-24-24zm48-32c-6.925781-5.191406-15.34375-8-24-8-8.664062-.046875-17.097656 2.765625-24 8v-56h48zm-16 71.199219c5.796875-1.199219 11.257812-3.65625 16-7.199219v56h-16zm32-159.199219v16h-64v-16zm-56-112c4.417969 0 8 3.582031 8 8v8c0 4.417969-3.582031 8-8 8h-101.519531c-4.730469-9.96875-12.300781-18.320312-21.761719-24zm-152 8c22.089844 0 40 17.910156 40 40s-17.910156 40-40 40-40-17.910156-40-40 17.910156-40 40-40zm-152 16c-4.417969 0-8-3.582031-8-8v-8c0-4.417969 3.582031-8 8-8h123.28125c-9.460938 5.679688-17.03125 14.03125-21.761719 24zm16 232c5.828125 7.921875 14.375 13.417969 24 15.441406v48.558594h-48v-48.800781c9.589844-1.957031 18.128906-7.367188 24-15.199219zm-56 8c4.742188 3.542969 10.203125 6 16 7.199219v48.800781h-16zm0-32c0-13.253906 10.746094-24 24-24s24 10.746094 24 24-10.746094 24-24 24-24-10.746094-24-24zm0-32v-56h48v56c-6.902344-5.234375-15.335938-8.046875-24-8-8.65625 0-17.074219 2.808594-24 8zm-16-88h64v16h-64zm432 240h-448v-8c0-4.417969 3.582031-8 8-8h432c4.417969 0 8 3.582031 8 8zm0 0" fill="#3b8686"/><path d="m344 272v-32c0-4.417969-3.582031-8-8-8h-64c-4.417969 0-8 3.582031-8 8v32c0 4.417969 3.582031 8 8 8h64c4.417969 0 8-3.582031 8-8zm-16-8h-48v-16h48zm0 0" fill="#3b8686"/><path d="m240 168h16c4.417969 0 8-3.582031 8-8s-3.582031-8-8-8h-8v-8c0-4.417969-3.582031-8-8-8s-8 3.582031-8 8v16c0 4.417969 3.582031 8 8 8zm0 0" fill="#3b8686"/><path d="m208 232h-64c-4.417969 0-8 3.582031-8 8v32c0 4.417969 3.582031 8 8 8h64c4.417969 0 8-3.582031 8-8v-32c0-4.417969-3.582031-8-8-8zm-8 32h-48v-16h48zm0 0" fill="#3b8686"/></svg>