<svg height="480pt" viewBox="0 0 480 480" width="480pt" xmlns="http://www.w3.org/2000/svg"><path d="m256 160v-24h-56v112h112v-24.480469c-32.007812-4.03125-56.011719-31.257812-56-63.519531zm0 0" fill="#cff09e"/><path d="m312 248h80c44.183594 0 80 35.816406 80 80v80h-160zm0 0" fill="#a8dba8"/><path d="m200 248h112v160h-112zm0 0" fill="#a8dba8"/><path d="m368 408c0 30.929688-25.070312 56-56 56s-56-25.070312-56-56 25.070312-56 56-56 56 25.070312 56 56zm0 0" fill="#cff09e"/><path d="m8 136h352v-32c0-17.671875-14.328125-32-32-32h-320" fill="#a8dba8"/><g fill="#cff09e"><path d="m176 360c-70.691406 0-128-57.308594-128-128v-96h-40v272h192v-48zm0 0"/><path d="m432 304c0 17.671875 14.328125 32 32 32 2.703125-.042969 5.390625-.417969 8-1.121094v-6.878906c-.027344-19.738281-7.347656-38.773438-20.558594-53.441406-11.792968 5.035156-19.445312 16.621094-19.441406 29.441406zm0 0"/><path d="m284 8h12c8.835938 0 16 7.164062 16 16v48h-44v-48c0-8.835938 7.164062-16 16-16zm0 0"/><path d="m8 72h120v-16c0-13.253906-10.746094-24-24-24h-96"/></g><path d="m336 408c0 13.253906-10.746094 24-24 24s-24-10.746094-24-24 10.746094-24 24-24 24 10.746094 24 24zm0 0" fill="#79bd9a"/><path d="m200 136h32v112h-32zm0 0" fill="#a8dba8"/><path d="m136 264c0 17.671875-14.328125 32-32 32s-32-14.328125-32-32 14.328125-32 32-32 32 14.328125 32 32zm0 0" fill="#a8dba8"/><path d="m72 296h64v64h-64zm0 0" fill="#79bd9a"/><path d="m72 360v80h28v-48c0-2.210938 1.789062-4 4-4s4 1.789062 4 4v48h28v-80zm0 0" fill="#79bd9a"/><path d="m136 296h16c8.835938 0 16 7.164062 16 16v48c0 8.835938-7.164062 16-16 16s-16-7.164062-16-16zm0 0" fill="#a8dba8"/><path d="m56 296h16v64c0 8.835938-7.164062 16-16 16s-16-7.164062-16-16v-48c0-8.835938 7.164062-16 16-16zm0 0" fill="#a8dba8"/><path d="m100 472h-52v-16c0-8.835938 7.164062-16 16-16h36zm0 0" fill="#a8dba8"/><path d="m108 472h52v-16c0-8.835938-7.164062-16-16-16h-36zm0 0" fill="#a8dba8"/><path d="m457.121094 269.039062c-16.636719-18.433593-40.289063-28.980468-65.121094-29.039062h-24v-136c0-22.089844-17.910156-40-40-40h-8v-40c0-13.253906-10.746094-24-24-24h-12c-13.253906 0-24 10.746094-24 24v40h-124v-8c0-17.671875-14.328125-32-32-32h-96c-4.417969 0-8 3.582031-8 8s3.582031 8 8 8h96c8.835938 0 16 7.164062 16 16v8h-112c-4.417969 0-8 3.582031-8 8s3.582031 8 8 8h320c13.253906 0 24 10.746094 24 24v24h-344c-4.417969 0-8 3.582031-8 8s3.582031 8 8 8h184v256h-48v-16h24c4.417969 0 8-3.582031 8-8v-64c0-13.253906-10.746094-24-24-24h-16c5.234375-6.902344 8.046875-15.335938 8-24 0-22.089844-17.910156-40-40-40s-40 17.910156-40 40c-.046875 8.664062 2.765625 17.097656 8 24h-16c-13.253906 0-24 10.746094-24 24v64c0 4.417969 3.582031 8 8 8h24v16h-56c-4.417969 0-8 3.582031-8 8s3.582031 8 8 8h56v16c-13.253906 0-24 10.746094-24 24v16c0 4.417969 3.582031 8 8 8h112c4.417969 0 8-3.582031 8-8v-16c0-13.253906-10.746094-24-24-24v-16h104.558594c4.234375 31.800781 31.359375 55.550781 63.441406 55.550781s59.207031-23.75 63.441406-55.550781h96.558594c4.417969 0 8-3.582031 8-8v-80c-.003906-21.820312-8.164062-42.851562-22.878906-58.960938zm-153.121094-205.039062h-28v-40c0-4.417969 3.582031-8 8-8h12c4.417969 0 8 3.582031 8 8zm-160 240h8c4.417969 0 8 3.582031 8 8v56h-16zm-40-64c13.253906 0 24 10.746094 24 24s-10.746094 24-24 24-24-10.746094-24-24 10.746094-24 24-24zm-24 64h48v48h-48zm-32 64v-56c0-4.417969 3.582031-8 8-8h8v64zm48 96h-40v-8c0-4.417969 3.582031-8 8-8h32zm8-88c-4.417969 0-8 3.582031-8 8v48h-16v-64h48v64h-16v-48c0-4.417969-3.582031-8-8-8zm48 80v8h-40v-16h32c4.417969 0 8 3.582031 8 8zm200-312v96h-32v-96zm-144 0h96v96h-96zm104 312c-26.507812 0-48-21.492188-48-48s21.492188-48 48-48 48 21.492188 48 48-21.492188 48-48 48zm152-56h-88.558594c-4.234375-31.800781-31.359375-55.550781-63.441406-55.550781s-59.207031 23.75-63.441406 55.550781h-40.558594v-144h184c17.078125-.015625 33.59375 6.085938 46.558594 17.199219-12.96875 10.75-17.816406 28.472656-12.121094 44.328125 5.695312 15.851562 20.714844 26.4375 37.5625 26.472656zm-24-96c.007812-7.511719 3.527344-14.585938 9.519531-19.121094 9.359375 12.433594 14.441407 27.5625 14.480469 43.121094-13.253906 0-24-10.746094-24-24zm0 0" fill="#3b8686"/><path d="m312 312c-36.042969.019531-69.039062 20.222656-85.441406 52.320312-.972656 1.898438-1.148438 4.105469-.488282 6.132813.660157 2.027344 2.105469 3.707031 4.007813 4.667969 3.914063 1.984375 8.695313.453125 10.722656-3.441406 13.6875-26.71875 41.179688-43.523438 71.199219-43.523438s57.511719 16.804688 71.199219 43.523438c1.378906 2.660156 4.125 4.328124 7.121093 4.320312 1.253907-.007812 2.484376-.308594 3.601563-.878906 1.902344-.960938 3.347656-2.640625 4.007813-4.667969.660156-2.027344.484374-4.234375-.488282-6.132813-16.402344-32.097656-49.398437-52.300781-85.441406-52.320312zm0 0" fill="#3b8686"/><path d="m312 376c-17.671875 0-32 14.328125-32 32s14.328125 32 32 32 32-14.328125 32-32-14.328125-32-32-32zm0 48c-8.835938 0-16-7.164062-16-16s7.164062-16 16-16 16 7.164062 16 16-7.164062 16-16 16zm0 0" fill="#3b8686"/><path d="m272 208h-24c-4.417969 0-8-3.582031-8-8v-16c0-4.417969-3.582031-8-8-8s-8 3.582031-8 8v16c0 13.253906 10.746094 24 24 24h24c4.417969 0 8-3.582031 8-8s-3.582031-8-8-8zm0 0" fill="#3b8686"/></svg>