<svg height="479pt" viewBox="-30 0 479 479.4" width="479pt" xmlns="http://www.w3.org/2000/svg"><path d="m307.699219 112.300781c-17.597657 0-32-14.300781-32-32 0-4.5 1-9 2.800781-13.199219-12.898438 5.898438-20.398438 19.597657-18.398438 33.597657s13 25.101562 27.097657 27.101562c14 2 27.699219-5.5 33.601562-18.402343-4.101562 1.902343-8.5 2.902343-13.101562 2.902343zm0 0" fill="#cff09e"/><path d="m227.800781 144.199219c-13.199219 0-24-10.699219-24-24 0-2.398438.398438-4.699219 1-6.898438-11 3.300781-18 13.898438-16.902343 25.300781 1.101562 11.398438 10.101562 20.398438 21.5 21.5 11.402343 1.097657 22-6 25.300781-16.902343-2.199219.699219-4.5 1-6.898438 1zm0 0" fill="#cff09e"/><path d="m219.800781 208.199219c-8.101562.101562-14.902343-5.898438-16-13.898438-5 2.898438-8 8.199219-8 13.898438 0 8.800781 7.199219 16 16 16s16-7.199219 16-16c0-.699219 0-1.398438 0-2.097657-2.402343 1.398438-5.199219 2.097657-8 2.097657zm0 0" fill="#cff09e"/><path d="m76 96.300781c-14.898438 0-28.601562-8.300781-35.5-21.5s-5.800781-29.199219 2.800781-41.402343c-17.402343 3.902343-30.101562 18.902343-31.101562 36.703124-1 17.796876 9.902343 34.097657 26.699219 40 16.800781 5.898438 35.5-.101562 45.800781-14.703124-2.800781.601562-5.800781.902343-8.699219.902343zm0 0" fill="#cff09e"/><g fill="#a8dba8"><path d="m307.699219 248.101562h32c8.800781 0 16 7.199219 16 16v32c0 8.796876-7.199219 16-16 16h-32c-8.800781 0-16-7.203124-16-16v-32c0-8.800781 7.199219-16 16-16zm0 0"/><path d="m84 248.101562h32c8.800781 0 16 7.199219 16 16v32c0 8.796876-7.199219 16-16 16h-32c-8.800781 0-16-7.203124-16-16v-32c0-8.800781 7.199219-16 16-16zm0 0"/><path d="m307.699219 375.898438h32c8.800781 0 16 7.203124 16 16v32c0 8.800781-7.199219 16-16 16h-32c-8.800781 0-16-7.199219-16-16v-32c0-8.796876 7.199219-16 16-16zm0 0"/><path d="m84 375.898438h32c8.800781 0 16 7.203124 16 16v32c0 8.800781-7.199219 16-16 16h-32c-8.800781 0-16-7.199219-16-16v-32c0-8.796876 7.199219-16 16-16zm0 0"/><path d="m179.898438 232.101562h63.902343c8.800781 0 16 7.199219 16 16v87.898438c0 4.398438-3.601562 8-8 8h-79.902343c-4.398438 0-8-3.601562-8-8v-87.898438c0-8.800781 7.203124-16 16-16zm0 0"/><path d="m171.898438 344h79.902343v95.898438h-79.902343zm0 0"/></g><path d="m163.898438 439.898438h95.902343c4.398438 0 8 3.601562 8 8v16c0 4.402343-3.601562 8-8 8h-95.902343c-4.398438 0-8-3.597657-8-8v-16c0-4.5 3.601562-8 8-8zm0 0" fill="#79bd9a"/><path d="m163.898438 272.101562h95.902343v32h-95.902343zm0 0" fill="#cff09e"/><path d="m219.800781 407.898438c0 4.402343-3.601562 8-8 8-4.402343 0-8-3.597657-8-8 0-4.398438 3.597657-8 8-8 4.398438 0 8 3.601562 8 8zm0 0" fill="#3b8686"/><path d="m219.800781 375.898438c0 4.402343-3.601562 8-8 8-4.402343 0-8-3.597657-8-8 0-4.398438 3.597657-8 8-8 4.398438 0 8 3.601562 8 8zm0 0" fill="#3b8686"/><path d="m344.300781 367.898438c45.898438-38.199219 75.199219-95.699219 75.199219-159.898438 0-114.699219-93.300781-208-208-208-44.5 0-86.5 13.699219-122.101562 39.601562-9.398438-11.902343-23.699219-19-39.199219-19-27.597657 0-50 22.398438-50 50 0 18.398438 10 34.898438 25.601562 43.699219-14.601562 28.898438-22.300781 61.097657-22.300781 93.699219 0 64.101562 29.101562 121.398438 74.800781 159.601562-10.902343 2.699219-18.5 12.5-18.199219 23.796876v32c0 13.203124 10.699219 24 24 24h32c13.199219 0 24-10.699219 24-24v-20.097657c7.796876 2.898438 15.796876 5.300781 24 7.199219v20.898438h-8c-4.402343 0-8 3.601562-8 8v32c0 4.402343 3.597657 8 8 8h111.898438c4.398438 0 8-3.597657 8-8v-32c0-4.398438-3.601562-8-8-8h-8v-21.097657c8.199219-2 16.199219-4.402343 24-7.300781v20.398438c0 13.203124 10.699219 24 24 24h32c13.199219 0 24-10.699219 24-24v-32c-.300781-11.5-8.398438-21.296876-19.699219-23.5zm-294.101562-331.296876c12.699219 0 24.199219 7 30.101562 18.199219 2.597657 4.898438 3.898438 10.199219 3.898438 15.800781 0 18.699219-15.300781 34-34 34-3.699219 0-7.300781-.601562-10.800781-1.800781-13.898438-4.601562-23.199219-17.601562-23.199219-32.199219 0-18.800781 15.199219-34 34-34zm-9.300781 83.097657c3 .601562 6.101562.902343 9.203124.902343 27.597657 0 50-22.402343 50-50 0-5.800781-1-11.5-3-16.902343 33.199219-24.699219 72.597657-37.699219 114.296876-37.699219 105.902343 0 192 86.101562 192 192 0 58.5-26.296876 111-67.699219 146.199219-1.398438 1.101562-2.699219 2.101562-4 3.199219v-37.898438h8c13.199219 0 24-10.699219 24-24v-32c0-8.699219-4.699219-16.699219-12.300781-20.898438 10.902343-43.300781 1-89.203124-26.699219-124.203124 12.101562-17.898438 7.800781-42.199219-9.800781-54.796876-17.597657-12.601562-42-9-55.097657 8.296876-50-17.699219-105.699219-6.5-144.902343 29.300781-39.199219 35.800781-55.597657 90.101562-42.597657 141.5-7.5 4.101562-12.199219 12.199219-12.199219 20.800781v32c0 13.199219 10.699219 24 24 24h8v38.699219c-44.203124-35.199219-72.5-89.398438-72.5-150.199219-.101562-30.800781 7.296876-61.199219 21.296876-88.300781zm251.101562 16h6.101562c5.398438-.800781 10.597657-2.699219 15.296876-5.699219 17.101562 22.300781 26.300781 49.5 26.402343 77.601562 0 10.796876-1.300781 21.5-4 32h-28c-13.199219 0-24 10.699219-24 24v32c0 5.199219 1.699219 10.199219 4.800781 14.398438-6.5 4.898438-13.5 9.199219-20.800781 12.699219v-57.898438c19-18.601562 27.5-45.402343 22.699219-71.5-4.800781-26.101562-22.300781-48.199219-46.601562-58.800781 0-17.601562-14.296876-32-32-32-17.699219 0-32 14.300781-32 32-24.398438 10.601562-41.796876 32.699219-46.597657 58.800781-4.800781 26.097657 3.699219 52.898438 22.699219 71.5v57.898438c-7.300781-3.5-14.300781-7.800781-20.800781-12.699219 3.101562-4.199219 4.800781-9.199219 4.800781-14.398438v-32c0-13.203124-10.699219-24-24-24h-28c-2.699219-10.402343-4-21.203124-4-32 0-70.601562 57.199219-127.800781 127.800781-127.800781 13.898438 0 27.800781 2.199219 41 6.699219-.402343 1.699219-.699219 3.398438-.800781 5.101562v4.199219c.101562 22 17.898438 39.898438 40 39.898438zm-24.199219-39.898438v-2.300781c1.398438-12.300781 11.898438-21.601562 24.300781-21.300781 12.398438.199219 22.597657 9.902343 23.398438 22.300781.898438 12.398438-7.800781 23.398438-20.101562 25.300781h-3.699219c-13.199219-.101562-23.898438-10.800781-23.898438-24zm-95.902343 199.699219v-16h79.902343v16zm79.902343 16v24h-79.902343v-24zm-79.902343-48v-16c0-4.398438 3.601562-8 8-8h63.902343c4.398438 0 8 3.601562 8 8v16zm32-55.898438c0-4.402343 3.601562-8 8-8 4.402343 0 8 3.597657 8 8 0 4.398438-3.597657 8-8 8-4.398438 0-8-3.601562-8-8zm39.902343 16h-14.101562c3.902343-4.402343 6.101562-10.101562 6.199219-16 0-13.203124-10.699219-24-24-24-13.296876 0-24 10.699219-24 24 0 5.898438 2.203124 11.597657 6.203124 16h-14.101562c-10.5 0-19.699219 6.796876-22.800781 16.898438-9.199219-15.300781-11.5-33.699219-6.5-50.800781 5-17.097657 16.902343-31.398438 32.902343-39.300781 5.5 10.703124 16.5 17.402343 28.398438 17.402343s23-6.699219 28.398438-17.402343c16 7.902343 27.902343 22.203124 32.902343 39.300781 5 17.101562 2.597657 35.5-6.5 50.800781-3.199219-10.101562-12.5-16.898438-23-16.898438zm-47.902343-87.902343c0-8.800781 7.203124-16 16-16 8.800781 0 16 7.199219 16 16v2.5c-1.296876 7.601562-8 13.199219-15.699219 13.199219-7.800781 0-14.398438-5.597657-15.699219-13.199219-.300781-.800781-.5-1.597657-.601562-2.5zm63.902343 215.699219h55.898438v16h-8c-10.800781 0-20.199219 7.203124-23.097657 17.703124-8.101562 3.296876-16.402343 5.898438-24.800781 8zm18-15.898438c8.898438-4.601562 17.300781-10.101562 25.097657-16.5v-.101562c1.601562.300781 3.203124.5 4.902343.601562h8v16zm29.898438-32c-4.398438 0-8-3.601562-8-8v-8h47.902343v8c0 4.398438-3.601562 8-8 8zm-7.898438-32v-8c0-4.398438 3.597657-8 8-8h33c4 .5 7 4 7 8v8zm-153.800781 64h-37.898438v-16h8c1.597657 0 3.296876-.199219 4.898438-.5 7.601562 6.398438 16 11.898438 25 16.5zm-30-79.898438c4.398438 0 8 3.597657 8 8v8h-47.898438v-8c0-4 2.898438-7.5 7-8zm8 31.898438v8c0 4.398438-3.601562 8-8 8h-32c-4.398438 0-8-3.601562-8-8v-8zm-16 63.898438h55.898438v41.902343c-8.5-2.101562-16.796876-4.902343-24.796876-8.199219-2.800781-10.402343-12.300781-17.601562-23.101562-17.703124h-8zm71.898438 0h63.902343v45.800781c-10.5 1.800781-21.300781 2.699219-32.300781 2.699219-10.800781 0-21.300781-.898438-31.601562-2.597657zm-55.898438 71.902343c0 4.398438-3.601562 8-8 8h-32c-4.398438 0-8-3.601562-8-8v-8h47.898438v8zm0-23.902343h-47.898438v-8c0-4.398438 3.597657-8 8-8h15.898438c7.699219 4.902343 15.699219 9.300781 24.101562 13.203124v2.796876zm135.800781 63.902343h-95.902343v-16h95.902343zm-16-32h-63.902343v-17.800781c10.300781 1.601562 20.800781 2.398438 31.601562 2.398438 11 0 21.800781-.898438 32.300781-2.5zm103.898438-8c0 4.398438-3.597657 8-8 8h-32c-4.398438 0-8-3.601562-8-8v-8h47.902343v8zm0-23.902343h-47.898438v-3.097657c8.097657-3.800781 15.898438-8.101562 23.300781-12.902343h16.597657c4.402343 0 8 3.601562 8 8zm0 0" fill="#3b8686"/></svg>