<svg height="480pt" viewBox="0 0 480 480" width="480pt" xmlns="http://www.w3.org/2000/svg"><path d="m264 240c-106.039062 0-192-85.960938-192-192v-40h-16c-17.671875 0-32 14.328125-32 32v216c0 17.671875 14.328125 32 32 32h384c17.671875 0 32-14.328125 32-32v-16zm0 0" fill="#cff09e"/><path d="m136 48h208c4.417969 0 8 3.582031 8 8v16c0 4.417969-3.582031 8-8 8h-208c-4.417969 0-8-3.582031-8-8v-16c0-4.417969 3.582031-8 8-8zm0 0" fill="#79bd9a"/><path d="m232 120h32c4.417969 0 8 3.582031 8 8v32c0 4.417969-3.582031 8-8 8h-32c-4.417969 0-8-3.582031-8-8v-32c0-4.417969 3.582031-8 8-8zm0 0" fill="#a8dba8"/><path d="m392 232c-35.347656 0-64 28.652344-64 64v104h128v-104c0-35.347656-28.652344-64-64-64zm0 0" fill="#79bd9a"/><path d="m440 200c0 26.507812-21.492188 48-48 48s-48-21.492188-48-48 21.492188-48 48-48 48 21.492188 48 48zm0 0" fill="#79bd9a"/><path d="m216 328h240c8.835938 0 16 7.164062 16 16v40c0 8.835938-7.164062 16-16 16h-240c-8.835938 0-16-7.164062-16-16v-40c0-8.835938 7.164062-16 16-16zm0 0" fill="#cff09e"/><path d="m240 216h104c8.835938 0 16 7.164062 16 16v96h-120c-8.835938 0-16-7.164062-16-16v-80c0-8.835938 7.164062-16 16-16zm0 0" fill="#a8dba8"/><path d="m360 296h56c4.417969 0 8 3.582031 8 8v16c0 4.417969-3.582031 8-8 8h-56zm0 0" fill="#a8dba8"/><path d="m312 276c0 11.046875-8.953125 20-20 20s-20-8.953125-20-20 8.953125-20 20-20 20 8.953125 20 20zm0 0" fill="#cff09e"/><path d="m392 472c0-17.671875-14.328125-32-32-32s-32 14.328125-32 32c0-17.671875-14.328125-32-32-32s-32 14.328125-32 32c0-17.671875-14.328125-32-32-32s-32 14.328125-32 32c0-17.671875-14.328125-32-32-32s-32 14.328125-32 32c0-17.671875-14.328125-32-32-32s-32 14.328125-32 32c0-17.671875-14.328125-32-32-32s-32 14.328125-32 32" fill="#a8dba8"/><g fill="#3b8686"><path d="m292 248c-15.464844 0-28 12.535156-28 28s12.535156 28 28 28 28-12.535156 28-28-12.535156-28-28-28zm0 40c-6.628906 0-12-5.371094-12-12s5.371094-12 12-12 12 5.371094 12 12-5.371094 12-12 12zm0 0"/><path d="m168 112h-80c-4.417969 0-8 3.582031-8 8s3.582031 8 8 8h80c4.417969 0 8-3.582031 8-8s-3.582031-8-8-8zm0 0"/><path d="m64 168h40c4.417969 0 8-3.582031 8-8s-3.582031-8-8-8h-40c-4.417969 0-8 3.582031-8 8s3.582031 8 8 8zm0 0"/><path d="m168 184h-104c-4.417969 0-8 3.582031-8 8s3.582031 8 8 8h104c4.417969 0 8-3.582031 8-8s-3.582031-8-8-8zm0 0"/><path d="m104 216h-40c-4.417969 0-8 3.582031-8 8s3.582031 8 8 8h40c4.417969 0 8-3.582031 8-8s-3.582031-8-8-8zm0 0"/><path d="m168 152h-24c-4.417969 0-8 3.582031-8 8s3.582031 8 8 8h24c4.417969 0 8-3.582031 8-8s-3.582031-8-8-8zm0 0"/><path d="m328 112h-24c-4.417969 0-8 3.582031-8 8s3.582031 8 8 8h24c4.417969 0 8-3.582031 8-8s-3.582031-8-8-8zm0 0"/><path d="m312 144h-8c-4.417969 0-8 3.582031-8 8s3.582031 8 8 8h8c4.417969 0 8-3.582031 8-8s-3.582031-8-8-8zm0 0"/><path d="m408 40c-4.417969 0-8 3.582031-8 8v48c0 4.417969 3.582031 8 8 8s8-3.582031 8-8v-48c0-4.417969-3.582031-8-8-8zm0 0"/><path d="m480 256v-216c0-22.089844-17.910156-40-40-40h-384c-22.089844 0-40 17.910156-40 40v216c0 22.089844 17.910156 40 40 40h160v16c.023438 2.730469.507812 5.433594 1.441406 8h-1.441406c-13.253906 0-24 10.746094-24 24v40c0 13.253906 10.746094 24 24 24h240c13.253906 0 24-10.746094 24-24v-40c-.027344-10.144531-6.433594-19.179688-16-22.558594v-25.441406c-.015625-2.675781-.203125-5.347656-.558594-8 10.28125-7.4375 16.425782-19.308594 16.558594-32zm-248 56v-80c0-4.417969 3.582031-8 8-8h104c4.417969 0 8 3.582031 8 8v88h-112c-4.417969 0-8-3.582031-8-8zm120-112c0-18.550781 12.753906-34.667969 30.808594-38.929688 18.054687-4.261718 36.671875 4.449219 44.96875 21.042969 8.296875 16.589844 4.09375 36.710938-10.148438 48.597657-14.242187 11.886718-34.789062 12.417968-49.628906 1.289062-.058594-9.554688-5.777344-18.164062-14.558594-21.921875-.929687-3.277344-1.414062-6.667969-1.441406-10.078125zm96 96v24h-16v-16c0-8.835938-7.164062-16-16-16h-48v-37.441406c16.835938 8.03125 36.582031 7.070312 52.558594-2.558594 17.03125 9.984375 27.480468 28.257812 27.441406 48zm-80 24v-16h48v16zm96 64c0 4.417969-3.582031 8-8 8h-240c-4.417969 0-8-3.582031-8-8v-40c0-4.417969 3.582031-8 8-8h240c4.417969 0 8 3.582031 8 8zm0-128c0 5.179688-1.714844 10.21875-4.878906 14.320312-5.039063-13.28125-13.921875-24.757812-25.519532-32.960937 16.734376-18.574219 19.132813-45.992187 5.875-67.1875-13.257812-21.195313-38.964843-31.035156-62.988281-24.109375-24.023437 6.925781-40.546875 28.9375-40.488281 53.9375.042969 2.679688.28125 5.355469.71875 8h-96.71875c-13.253906 0-24 10.746094-24 24v48h-160c-13.253906 0-24-10.746094-24-24v-216c0-13.253906 10.746094-24 24-24h384c13.253906 0 24 10.746094 24 24zm0 0"/><path d="m360 432c-12.589844 0-24.445312 5.929688-32 16-7.554688-10.070312-19.410156-16-32-16s-24.445312 5.929688-32 16c-7.554688-10.070312-19.410156-16-32-16s-24.445312 5.929688-32 16c-7.554688-10.070312-19.410156-16-32-16s-24.445312 5.929688-32 16c-7.554688-10.070312-19.410156-16-32-16s-24.445312 5.929688-32 16c-10.332031-13.773438-28.316406-19.390625-44.648438-13.949219-16.335937 5.445313-27.351562 20.730469-27.351562 37.949219 0 4.417969 3.582031 8 8 8s8-3.582031 8-8c0-13.253906 10.746094-24 24-24s24 10.746094 24 24c0 4.417969 3.582031 8 8 8s8-3.582031 8-8c0-13.253906 10.746094-24 24-24s24 10.746094 24 24c0 4.417969 3.582031 8 8 8s8-3.582031 8-8c0-13.253906 10.746094-24 24-24s24 10.746094 24 24c0 4.417969 3.582031 8 8 8s8-3.582031 8-8c0-13.253906 10.746094-24 24-24s24 10.746094 24 24c0 4.417969 3.582031 8 8 8s8-3.582031 8-8c0-13.253906 10.746094-24 24-24s24 10.746094 24 24c0 4.417969 3.582031 8 8 8s8-3.582031 8-8c0-13.253906 10.746094-24 24-24s24 10.746094 24 24c0 4.417969 3.582031 8 8 8s8-3.582031 8-8c0-22.089844-17.910156-40-40-40zm0 0"/><path d="m344 88h-208c-8.835938 0-16-7.164062-16-16v-16c0-8.835938 7.164062-16 16-16h208c8.835938 0 16 7.164062 16 16v16c0 8.835938-7.164062 16-16 16zm-208-32v16h208v-16zm0 0"/><path d="m264 176h-32c-8.835938 0-16-7.164062-16-16v-32c0-8.835938 7.164062-16 16-16h32c8.835938 0 16 7.164062 16 16v32c0 8.835938-7.164062 16-16 16zm-32-48v32h32v-32zm0 0"/></g></svg>