<svg height="480pt" viewBox="0 0 480 480.02386" width="480pt" xmlns="http://www.w3.org/2000/svg"><path d="m130.09375 112.023438h27.839844l13.4375-32h-54.71875zm0 0" fill="#a8dba8"/><path d="m264.011719 80.023438h-40v32h40c8.835937 0 16-7.164063 16-16 0-8.835938-7.164063-16-16-16zm0 0" fill="#a8dba8"/><path d="m64.011719 80.023438h-40c-8.835938 0-16 7.164062-16 16 0 8.835937 7.164062 16 16 16h40zm0 0" fill="#a8dba8"/><path d="m72.011719 264.023438v104c0 4.417968 3.582031 8 8 8h48c4.417969 0 8-3.582032 8-8v-48c0-4.417969 3.582031-8 8-8s8 3.582031 8 8v48c0 4.417968 3.582031 8 8 8h48c4.417969 0 8-3.582032 8-8v-104zm0 0" fill="#a8dba8"/><path d="m64.011719 232.023438h160v32c0 8.835937-7.164063 16-16 16h-128c-8.835938 0-16-7.164063-16-16zm0 0" fill="#79bd9a"/><path d="m64.011719 152.023438v-24.71875c0 6.625-5.371094 12-12 12-6.628907 0-12 5.371093-12 12v64.71875c0 17.671874 14.328125 32 32 32h144c17.671875 0 32-14.328126 32-32h-120c-35.347657 0-64-28.652344-64-64zm0 0" fill="#cff09e"/><path d="m168.011719 160.023438v6.800781c-.222657 10.542969 7.476562 19.582031 17.921875 21.039062 5.625.589844 11.238281-1.234375 15.445312-5.015625 4.207032-3.78125 6.617188-9.167968 6.632813-14.824218v-8c0-4.417969-3.582031-8-8-8h-24c-4.417969 0-8 3.582031-8 8zm0 0" fill="#a8dba8"/><path d="m68.011719 424.023438c-2.191407.042968-3.957031 1.808593-4 4v12c-16.007813-.167969-29.679688 11.519531-32 27.359374-.160157 1.164063.1875 2.335938.953125 3.226563.765625.886719 1.875 1.402344 3.046875 1.414063h84c4.417969 0 8-3.582032 8-8v-36c-.042969-2.191407-1.808594-3.957032-4-4zm0 0" fill="#79bd9a"/><path d="m220.011719 424.023438c2.191406.042968 3.957031 1.808593 4 4v12c16.007812-.167969 29.679687 11.519531 32 27.359374.160156 1.164063-.183594 2.335938-.949219 3.226563-.765625.886719-1.878906 1.402344-3.050781 1.414063h-84c-4.417969 0-8-3.582032-8-8v-36c.042969-2.191407 1.808593-3.957032 4-4zm0 0" fill="#79bd9a"/><path d="m408.011719 296.023438c-35.347657 0-64 28.652343-64 64 0 8.800781 28.640625 16 64 16s64-7.199219 64-16c0-35.347657-28.652344-64-64-64zm0 0" fill="#cff09e"/><path d="m408.011719 296.023438c-13.121094 0-24 43.679687-24 78.800781 15.960937 1.597656 32.039062 1.597656 48 0 0-35.121094-10.878907-78.800781-24-78.800781zm0 0" fill="#a8dba8"/><path d="m344.011719 360.023438c-.003907-8.230469 1.597656-16.382813 4.71875-24h-24.71875c-9.554688-.019532-18.722657 3.765624-25.480469 10.519531-6.753906 6.757812-10.539062 15.925781-10.519531 25.480469 0 2.210937 1.792969 4 4 4h116c-35.359375 0-64-7.199219-64-16zm0 0" fill="#a8dba8"/><path d="m360.011719 88.023438-16 94.082031c-.222657 1.207031.132812 2.449219.960937 3.359375l27.679688 31.117187c.757812.890625 1.871094 1.402344 3.039062 1.402344 1.167969 0 2.28125-.511719 3.039063-1.402344l27.679687-31.117187c.832032-.910156 1.1875-2.152344.960938-3.359375l-15.359375-94.082031zm0 0" fill="#79bd9a"/><path d="m352.011719 80.023438-32-64h32l8 40" fill="#79bd9a"/><path d="m400.011719 80.023438 32-64h-32l-8 40" fill="#79bd9a"/><path d="m360.011719 56.023438h32c8.835937 0 16 7.164062 16 16 0 8.835937-7.164063 16-16 16h-32c-8.835938 0-16-7.164063-16-16 0-8.835938 7.164062-16 16-16zm0 0" fill="#a8dba8"/><g fill="#3b8686"><path d="m208.011719 144.023438h-40c-4.417969 0-8 3.582031-8 8v16c0 15.464843 12.535156 28 28 28 15.464843 0 28-12.535157 28-28v-16c0-4.417969-3.582031-8-8-8zm-8 24c0 6.628906-5.371094 12-12 12-6.628907 0-12-5.371094-12-12v-8h24zm0 0"/><path d="m288.011719 96.023438c0-13.253907-10.746094-24-24-24h-32v-6.878907c.117187-3.742187-2.375-7.066406-6-8-3.269531-.8125-6.632813-1.1875-10-1.121093h-30c-7.300781.007812-14.015625 3.996093-17.519531 10.402343-.03125.238281-.03125.480469 0 .71875l-2.082032 4.878907h-14.398437v-9.039063c16.105469-4.160156 26.339843-19.960937 23.546875-36.355469-2.792969-16.398437-17.683594-27.921875-34.253906-26.515625-16.574219 1.410157-29.304688 15.277344-29.292969 31.910157 0 4.417968 3.582031 8 8 8s8-3.582032 8-8c0-8.835938 7.164062-16 16-16 8.835937 0 16 7.164062 16 16 0 8.835937-7.164063 16-16 16-4.417969 0-8 3.582031-8 8v16h-14.078125l-1.921875-4.878907c.03125-.238281.03125-.480469 0-.71875-3.585938-6.558593-10.527344-10.570312-18-10.402343h-30c-3.378907.011718-6.742188.46875-10 1.359374-3.625.933594-6.117188 4.257813-6 8v6.640626h-32c-13.253907 0-24.0000002 10.746093-24.0000002 24 0 13.253906 10.7460932 24 24.0000002 24h32v7.28125c0 2.207031-1.789063 4-4 4-11.027344.042968-19.957031 8.972656-20 20v64.71875c.007812 15.898437 9.429687 30.28125 24 36.640624v11.359376c.015625 6.8125 2.921875 13.296874 8 17.839843v94.160157c0 4.417968 3.582031 8 8 8h144c4.417969 0 8-3.582032 8-8v-94.160157c5.078125-4.542969 7.988281-11.027343 8-17.839843v-11.359376c14.570312-6.359374 23.992187-20.742187 24-36.640624v-64.71875c-.042969-11.027344-8.972657-19.957032-20-20-2.207031 0-4-1.792969-4-4v-7.28125h32c13.253906 0 24-10.746094 24-24zm-128.640625-8-12 28.402343c-.722656 1.152344-1.996094 1.851563-3.359375 1.839844-1.367188.027344-2.648438-.671875-3.359375-1.839844l-12-28.402343zm-135.359375 16c-4.417969 0-8-3.582032-8-8 0-4.417969 3.582031-8 8-8h32v16zm184 264h-56v-48c0-4.417969-3.582031-8-8-8s-8 3.582031-8 8v48h-56v-80h128zm8-104c0 4.417968-3.582031 8-8 8h-128c-4.417969 0-8-3.582032-8-8v-8h144zm20-116.71875c2.210937 0 4 1.789062 4 4v64.71875c0 13.253906-10.746094 24-24 24h-144c-13.253907 0-24-10.746094-24-24v-64.71875c0-2.210938 1.792969-4 4-4 11.046875 0 20-8.957032 20-20v-55.28125h30c1.351562.03125 2.605469.71875 3.359375 1.839843l20.722656 49.28125v.71875c3.480469 6.433594 10.203125 10.441407 17.519531 10.441407 7.3125 0 14.039063-4.007813 17.519531-10.441407v-.71875l20.71875-49.28125c.753907-1.121093 2.007813-1.808593 3.359376-1.839843h30.800781v55.28125c0 11.042968 8.953125 20 20 20zm28-43.28125h-32v-16h32c4.417969 0 8 3.582031 8 8 0 4.417968-3.582031 8-8 8zm0 0"/><path d="m128.011719 416.023438h-64c-4.417969 0-8 3.582031-8 8v8.800781c-18.625 3.800781-32.003907 20.1875-32 39.199219 0 4.417968 3.582031 8 8 8h88c8.835937 0 16-7.164063 16-16v-40c0-4.417969-3.582031-8-8-8zm-8 48h-78.640625c3.394531-9.59375 12.464844-16.003907 22.640625-16 4.417969 0 8-3.582032 8-8v-8h48zm0 0"/><path d="m232.011719 432.824219v-8.800781c0-4.417969-3.582031-8-8-8h-64c-4.417969 0-8 3.582031-8 8v40c0 8.835937 7.164062 16 16 16h88c4.417969 0 8-3.582032 8-8 .003906-19.011719-13.375-35.398438-32-39.199219zm-64 31.199219v-32h48v8c0 4.417968 3.582031 8 8 8 10.175781-.003907 19.25 6.40625 22.640625 16zm0 0"/><path d="m120.011719 152.023438h-32c-4.417969 0-8 3.582031-8 8 0 4.417968 3.582031 8 8 8h32c4.417969 0 8-3.582032 8-8 0-4.417969-3.582031-8-8-8zm0 0"/><path d="m112.011719 192.023438c0 4.417968-3.582031 8-8 8s-8-3.582032-8-8c0-4.417969 3.582031-8 8-8s8 3.582031 8 8zm0 0"/><path d="m408.011719 288.023438c-27.34375.007812-52.328125 15.503906-64.480469 40h-23.519531c-22.089844 0-40 17.910156-40 40v8c0 4.417968 3.582031 8 8 8h120c12 0 72-1.121094 72-24 0-39.765626-32.234375-72-72-72zm-21.601563 20.320312c-6.859375 18.375-10.382812 37.828125-10.398437 57.441406-8.40625-.695312-16.574219-3.121094-24-7.121094 0 0 0-.878906 0-1.359374 0 0 0-.5625 0-.878907v-.5625c.039062-.238281.039062-.480469 0-.71875v-1.28125s0-.558593 0-.878906c-.039063-.371094-.039063-.75 0-1.121094.648437-4.140625 1.777343-8.195312 3.359375-12.078125v-.5625c5.726562-14.078125 16.933594-25.222656 31.039062-30.878906zm-66.398437 35.679688h17.761719c0 1.921874-.722657 3.839843-1.042969 5.839843v2.160157 1.359374.640626 1.28125 9.757812c.242187.273438.453125.570312.640625.882812h-41.359375c1.082031-12.4375 11.515625-21.96875 24-21.921874zm72 23.519531c0-36.558594 11.199219-61.917969 16-63.519531 4.878906 1.519531 16 26.960937 16 63.519531-4.960938 0-10.238281.480469-16 .480469s-11.039063 0-16-.480469zm48-1.757813c-.003907-19.625-3.554688-39.082031-10.480469-57.441406 20.421875 8.492188 33.933594 28.210938 34.480469 50.320312-7.429688 3.988282-15.597657 6.410157-24 7.121094zm0 0"/><path d="m336.570312 66.984375c-.390624 1.648437-.578124 3.34375-.558593 5.039063.015625 9.71875 5.890625 18.46875 14.878906 22.160156l-14.878906 88.558594c-.375 2.367187.332031 4.773437 1.921875 6.5625l32 36c1.515625 1.726562 3.699218 2.714843 6 2.71875 2.296875-.003907 4.480468-.992188 6-2.71875l32-36c1.585937-1.789063 2.292968-4.195313 1.917968-6.5625l-14.71875-88.558594c8.988282-3.691406 14.863282-12.441406 14.878907-22.160156.019531-1.695313-.167969-3.390626-.558594-5.039063l24-47.359375c1.273437-2.527344 1.121094-5.542969-.410156-7.925781-1.527344-2.382813-4.203125-3.78125-7.03125-3.675781h-32c-3.863281-.078126-7.226563 2.617187-8 6.402343l-6.558594 33.597657h-18.882813l-6.558593-33.597657c-.773438-3.785156-4.136719-6.480469-8-6.402343h-32c-2.773438.007812-5.34375 1.453124-6.792969 3.816406-1.453125 2.363281-1.574219 5.308594-.328125 7.785156zm55.441407-2.960937c4.417969 0 8 3.582031 8 8 0 4.417968-3.582031 8-8 8h-32c-4.417969 0-8-3.582032-8-8 0-4.417969 3.582031-8 8-8zm-6.480469 32 6.480469 40h-32l6.71875-40zm-9.519531 112-23.441407-26.480469 4.882813-29.519531h37.117187l4.882813 29.519531zm43.039062-184-13.917969 27.921874c-1.183593-.792968-2.445312-1.464843-3.761718-2l5.199218-25.921874zm-73.597656 0 5.199219 25.921874c-1.316406.535157-2.578125 1.207032-3.761719 2l-13.917969-27.921874zm0 0"/></g></svg>