<svg height="480pt" viewBox="0 0 480 480.0001" width="480pt" xmlns="http://www.w3.org/2000/svg"><path d="m184 184c-70.691406 0-128-57.308594-128-128v-48h-16c-17.671875 0-32 14.328125-32 32v160c0 17.671875 14.328125 32 32 32h400c17.671875 0 32-14.328125 32-32v-16zm0 0" fill="#cff09e"/><path d="m104 88c0 17.671875-14.328125 32-32 32s-32-14.328125-32-32 14.328125-32 32-32 32 14.328125 32 32zm0 0" fill="#cff09e"/><path d="m205.359375 88c0 17.671875-14.328125 32-32 32s-32-14.328125-32-32 14.328125-32 32-32 32 14.328125 32 32zm0 0" fill="#cff09e"/><path d="m306.640625 88c0 17.671875-14.328125 32-32 32s-32-14.328125-32-32 14.328125-32 32-32 32 14.328125 32 32zm0 0" fill="#cff09e"/><path d="m408 88c0 17.671875-14.328125 32-32 32s-32-14.328125-32-32 14.328125-32 32-32 32 14.328125 32 32zm0 0" fill="#cff09e"/><path d="m104 184c0 17.671875-14.328125 32-32 32s-32-14.328125-32-32 14.328125-32 32-32 32 14.328125 32 32zm0 0" fill="#cff09e"/><path d="m205.359375 184c0 17.671875-14.328125 32-32 32s-32-14.328125-32-32 14.328125-32 32-32 32 14.328125 32 32zm0 0" fill="#cff09e"/><path d="m306.640625 184c0 17.671875-14.328125 32-32 32s-32-14.328125-32-32 14.328125-32 32-32 32 14.328125 32 32zm0 0" fill="#cff09e"/><path d="m408 184c0 17.671875-14.328125 32-32 32s-32-14.328125-32-32 14.328125-32 32-32 32 14.328125 32 32zm0 0" fill="#cff09e"/><path d="m120 72c0 17.671875-14.328125 32-32 32s-32-14.328125-32-32 14.328125-32 32-32 32 14.328125 32 32zm0 0" fill="#a8dba8"/><path d="m221.359375 72c0 17.671875-14.328125 32-32 32s-32-14.328125-32-32 14.328125-32 32-32 32 14.328125 32 32zm0 0" fill="#cff09e"/><path d="m322.640625 72c0 17.671875-14.328125 32-32 32s-32-14.328125-32-32 14.328125-32 32-32 32 14.328125 32 32zm0 0" fill="#79bd9a"/><path d="m424 72c0 17.671875-14.328125 32-32 32s-32-14.328125-32-32 14.328125-32 32-32 32 14.328125 32 32zm0 0" fill="#a8dba8"/><path d="m120 168c0 17.671875-14.328125 32-32 32s-32-14.328125-32-32 14.328125-32 32-32 32 14.328125 32 32zm0 0" fill="#a8dba8"/><path d="m221.359375 168c0 17.671875-14.328125 32-32 32s-32-14.328125-32-32 14.328125-32 32-32 32 14.328125 32 32zm0 0" fill="#79bd9a"/><path d="m322.640625 168c0 17.671875-14.328125 32-32 32s-32-14.328125-32-32 14.328125-32 32-32 32 14.328125 32 32zm0 0" fill="#a8dba8"/><path d="m424 168c0 17.671875-14.328125 32-32 32s-32-14.328125-32-32 14.328125-32 32-32 32 14.328125 32 32zm0 0" fill="#a8dba8"/><path d="m104 336h-80v-58.238281c-.050781-2.433594 1.007812-4.753907 2.875-6.308594 1.871094-1.558594 4.34375-2.179687 6.726562-1.691406l64 12.796875c3.816407.738281 6.550782 4.113281 6.476563 8zm0 0" fill="#a8dba8"/><path d="m24 336h80v48h-80zm0 0" fill="#79bd9a"/><path d="m32 472-8-88h80l-8 88" fill="#a8dba8"/><path d="m224 432h-48l-16-96h80zm0 0" fill="#a8dba8"/><path d="m168 264h64c4.417969 0 8 3.582031 8 8v64h-80v-64c0-4.417969 3.582031-8 8-8zm0 0" fill="#cff09e"/><path d="m176 472v-40h48v40" fill="#79bd9a"/><path d="m280 472v-96h32v96" fill="#cff09e"/><path d="m280 336h32v40h-32zm0 0" fill="#79bd9a"/><path d="m312 336h-32l12.078125-54.558594c0-2.210937 1.792969-4 4-4 2.210937 0 4 1.789063 4 4zm0 0" fill="#a8dba8"/><path d="m440 376h32v96h-32zm0 0" fill="#79bd9a"/><path d="m472 376h-32l12-90.238281c0-2.210938 1.789062-4 4-4s4 1.789062 4 4zm0 0" fill="#cff09e"/><path d="m440 432h32v40h-32zm0 0" fill="#a8dba8"/><path d="m360 272h40c4.417969 0 8 3.582031 8 8v64h-56v-64c0-4.417969 3.582031-8 8-8zm0 0" fill="#a8dba8"/><path d="m352 344h56v48h-56zm0 0" fill="#cff09e"/><path d="m400 472 8-80h-56l8 80" fill="#79bd9a"/><g fill="#3b8686"><path d="m440 0h-400c-22.089844 0-40 17.910156-40 40v160c0 22.089844 17.910156 40 40 40h400c22.089844 0 40-17.910156 40-40v-160c0-22.089844-17.910156-40-40-40zm24 200c0 13.253906-10.746094 24-24 24h-400c-13.253906 0-24-10.746094-24-24v-160c0-13.253906 10.746094-24 24-24h400c13.253906 0 24 10.746094 24 24zm0 0"/><path d="m189.359375 32c-22.089844 0-40 17.910156-40 40s17.910156 40 40 40c22.09375 0 40-17.910156 40-40s-17.90625-40-40-40zm0 64c-13.253906 0-24-10.746094-24-24s10.746094-24 24-24 24 10.746094 24 24-10.746094 24-24 24zm0 0"/><path d="m290.640625 32c-22.09375 0-40 17.910156-40 40s17.90625 40 40 40c22.089844 0 40-17.910156 40-40s-17.910156-40-40-40zm0 64c-13.253906 0-24-10.746094-24-24s10.746094-24 24-24 24 10.746094 24 24-10.746094 24-24 24zm0 0"/><path d="m392 32c-22.089844 0-40 17.910156-40 40s17.910156 40 40 40 40-17.910156 40-40-17.910156-40-40-40zm0 64c-13.253906 0-24-10.746094-24-24s10.746094-24 24-24 24 10.746094 24 24-10.746094 24-24 24zm0 0"/><path d="m88 128c-22.089844 0-40 17.910156-40 40s17.910156 40 40 40 40-17.910156 40-40-17.910156-40-40-40zm0 64c-13.253906 0-24-10.746094-24-24s10.746094-24 24-24 24 10.746094 24 24-10.746094 24-24 24zm0 0"/><path d="m392 128c-22.089844 0-40 17.910156-40 40s17.910156 40 40 40 40-17.910156 40-40-17.910156-40-40-40zm0 64c-13.253906 0-24-10.746094-24-24s10.746094-24 24-24 24 10.746094 24 24-10.746094 24-24 24zm0 0"/><path d="m105.601562 276.160156-80-16c-2.355468-.464844-4.792968.152344-6.640624 1.679688-1.859376 1.507812-2.945313 3.765625-2.960938 6.160156v116l8 88c.398438 4.417969 4.300781 7.675781 8.71875 7.28125 4.417969-.398438 7.679688-4.304688 7.28125-8.722656l-7.199219-78.558594h62.398438l-7.199219 79.28125c-.199219 2.121094.457031 4.238281 1.824219 5.875 1.367187 1.636719 3.332031 2.660156 5.457031 2.84375h.71875c4.152344.015625 7.625-3.144531 8-7.28125l8-88v-100.71875c0-3.800781-2.675781-7.078125-6.398438-7.839844zm-73.601562 1.601563 16 3.199219v23.039062c0 4.417969 3.582031 8 8 8s8-3.582031 8-8v-19.839844l32 6.398438v37.441406h-64zm0 98.238281v-32h64v32zm0 0"/><path d="m240 256h-80c-4.417969 0-8 3.582031-8 8v72c-.035156.210938-.035156.429688 0 .640625v.640625l16 95.359375v39.359375c0 4.417969 3.582031 8 8 8s8-3.582031 8-8v-32h32v32c0 4.417969 3.582031 8 8 8s8-3.582031 8-8v-39.359375l16-95.359375s0 0 0-.640625c.035156-.210937.035156-.429687 0-.640625v-72c0-4.417969-3.582031-8-8-8zm-72 16h16v32c0 4.417969 3.582031 8 8 8s8-3.582031 8-8v-32h32v56h-64zm14.800781 152-13.359375-80h61.117188l-13.359375 80zm0 0"/><path d="m320 334.238281-16-72c0-4.417969-3.582031-8-8-8s-8 3.582031-8 8l-16 72c.039062.265625.039062.535157 0 .800781v.960938 136c0 4.417969 3.582031 8 8 8s8-3.582031 8-8v-88h16v88c0 4.417969 3.582031 8 8 8s8-3.582031 8-8v-136s0-.640625 0-.960938c-.039062-.265624-.039062-.535156 0-.800781zm-24-33.359375 6 27.121094h-12zm-8 67.121094v-24h16v24zm0 0"/><path d="m480 374.960938-16-120c0-4.417969-3.582031-8-8-8s-8 3.582031-8 8l-16 120v.480468.558594 96c0 4.417969 3.582031 8 8 8s8-3.582031 8-8v-32h16v32c0 4.417969 3.582031 8 8 8s8-3.582031 8-8v-96s0 0 0-.558594zm-24-58.402344 6.878906 51.441406h-13.757812zm-8 107.441406v-40h16v40zm0 0"/><path d="m408 264h-56c-4.417969 0-8 3.582031-8 8v120 .398438l8 80c.441406 4.417968 4.382812 7.644531 8.800781 7.203124 4.417969-.445312 7.640625-4.382812 7.199219-8.800781l-7.199219-70.800781h38.398438l-7.199219 71.199219c-.222656 2.125.414062 4.25 1.765625 5.902343 1.351563 1.652344 3.308594 2.695313 5.433594 2.898438h.800781c4.125.019531 7.585938-3.097656 8-7.199219l8-80s0 0 0-.402343c0-.398438 0 0 0 0v-120.398438c0-4.417969-3.582031-8-8-8zm-48 16h40v56h-40zm0 104v-32h40v32zm0 0"/><path d="m88 32c-22.089844 0-40 17.910156-40 40s17.910156 40 40 40 40-17.910156 40-40-17.910156-40-40-40zm0 64c-13.253906 0-24-10.746094-24-24s10.746094-24 24-24 24 10.746094 24 24-10.746094 24-24 24zm0 0"/><path d="m290.640625 128c-22.09375 0-40 17.910156-40 40s17.90625 40 40 40c22.089844 0 40-17.910156 40-40s-17.910156-40-40-40zm0 64c-13.253906 0-24-10.746094-24-24s10.746094-24 24-24 24 10.746094 24 24-10.746094 24-24 24zm0 0"/><path d="m189.359375 128c-22.089844 0-40 17.910156-40 40s17.910156 40 40 40c22.09375 0 40-17.910156 40-40s-17.90625-40-40-40zm0 64c-13.253906 0-24-10.746094-24-24s10.746094-24 24-24 24 10.746094 24 24-10.746094 24-24 24zm0 0"/></g></svg>