<?xml version="1.0" standalone="no"?>
<!DOCTYPE svg PUBLIC "-//W3C//DTD SVG 20010904//EN"
 "http://www.w3.org/TR/2001/REC-SVG-20010904/DTD/svg10.dtd">
<svg version="1.0" xmlns="http://www.w3.org/2000/svg"
 width="3389.000000pt" height="3389.000000pt" viewBox="0 0 3389.000000 3389.000000"
 preserveAspectRatio="xMidYMid meet">
<metadata>
Created by potrace 1.11, written by Peter Selinger 2001-2013
</metadata>
<g transform="translate(0.000000,3389.000000) scale(0.100000,-0.100000)"
fill="#000000" stroke="none">
<path d="M20185 31387 c-117 -39 -198 -110 -248 -215 l-32 -67 0 -225 c0 -223
0 -225 27 -283 15 -31 50 -81 77 -110 157 -166 410 -164 566 5 32 34 63 81 77
115 22 55 23 71 23 278 l0 220 -32 67 c-64 137 -189 219 -338 225 -48 2 -96
-2 -120 -10z"/>
<path d="M12913 29930 c-189 -45 -324 -245 -293 -435 18 -110 55 -167 207
-316 177 -173 213 -193 358 -194 91 0 106 3 165 31 198 94 282 327 189 522
-27 56 -260 298 -328 341 -84 53 -204 74 -298 51z"/>
<path d="M27483 29930 c-84 -20 -139 -59 -284 -207 -175 -177 -192 -210 -193
-358 -1 -81 2 -97 31 -157 39 -84 109 -155 188 -194 55 -26 69 -29 165 -29
154 0 186 17 367 198 181 181 198 213 198 367 0 119 -16 168 -81 247 -91 111
-252 166 -391 133z"/>
<path d="M20210 28786 c-118 -26 -219 -106 -273 -215 l-32 -66 0 -855 0 -855
32 -66 c136 -276 516 -299 682 -41 62 97 61 86 61 962 0 686 -2 804 -15 855
-38 145 -159 256 -310 284 -69 13 -74 13 -145 -3z"/>
<path d="M14750 28087 c-115 -33 -210 -113 -258 -214 -24 -52 -27 -70 -27
-163 0 -179 -36 -133 643 -811 677 -676 636 -644 807 -644 88 0 107 3 158 27
161 75 256 250 227 416 -22 130 -22 130 -658 764 -559 558 -590 587 -647 608
-73 27 -183 35 -245 17z"/>
<path d="M25618 28081 c-31 -10 -71 -28 -90 -39 -18 -12 -292 -281 -610 -599
-616 -618 -614 -615 -638 -740 -33 -165 60 -340 220 -417 59 -28 74 -31 165
-31 174 0 137 -29 811 647 673 675 639 632 639 808 0 96 -3 110 -29 165 -85
172 -293 264 -468 206z"/>
<path d="M3260 24223 c-394 -31 -820 -141 -1174 -305 -611 -281 -1124 -718
-1492 -1268 -263 -394 -449 -849 -533 -1305 -60 -321 -55 41 -59 -4330 -3
-4140 -3 -4133 38 -4406 156 -1029 775 -1955 1669 -2496 419 -254 870 -412
1386 -485 143 -20 194 -22 1130 -25 l980 -4 1750 -1748 c1420 -1419 1759
-1752 1798 -1770 107 -48 211 -52 322 -11 58 22 107 69 1815 1776 l1755 1754
8435 0 c5748 0 8480 3 8575 10 736 55 1420 328 1994 797 133 109 362 336 473
471 372 448 627 975 746 1542 44 208 61 348 72 575 13 266 13 7574 0 7840 -15
313 -55 562 -136 840 -301 1036 -1061 1882 -2062 2294 -276 113 -561 190 -892
238 -108 16 -956 17 -13330 18 -7268 1 -13235 0 -13260 -2z m26530 -800 c189
-33 310 -61 446 -104 956 -306 1671 -1103 1869 -2084 53 -261 50 -24 50 -4325
0 -3814 -1 -4021 -18 -4135 -137 -915 -661 -1661 -1463 -2082 -268 -141 -530
-225 -884 -286 l-125 -21 -13090 -4 c-9580 -2 -13129 0 -13235 8 -673 52
-1277 328 -1749 801 -425 426 -686 942 -784 1554 l-22 140 0 4030 0 4030 22
140 c54 337 139 597 289 885 341 654 951 1155 1661 1364 190 56 402 94 613
109 25 2 5951 3 13170 2 l13125 -1 125 -21z m-18250 -13826 c0 -1 -588 -590
-1308 -1310 l-1307 -1307 -1310 1310 -1310 1310 2618 0 c1439 0 2617 -1 2617
-3z"/>
<path d="M6830 21453 c-395 -38 -680 -115 -985 -264 -480 -236 -795 -551 -913
-914 -61 -185 -57 -2 -57 -2935 0 -2539 1 -2700 18 -2782 77 -379 286 -666
672 -923 337 -224 707 -339 1180 -365 224 -13 1763 -12 1979 0 210 12 400 42
538 86 14 4 17 -3 20 -43 l3 -48 1000 0 1000 0 3 1985 c3 2204 7 2067 -63
2186 -68 115 -200 213 -355 263 -149 49 -174 50 -1295 52 -1029 1 -1052 0
-1144 -20 -234 -52 -383 -184 -436 -387 -13 -49 -15 -153 -15 -631 l0 -573
600 0 601 0 -3 -477 c-3 -347 -7 -488 -16 -515 -48 -141 -215 -281 -417 -349
l-70 -24 -813 -3 c-564 -2 -825 1 -853 8 -75 21 -69 -203 -67 2562 l3 2483 28
47 c15 26 38 53 50 60 17 10 236 13 1042 13 956 0 1022 -1 1052 -18 70 -38 84
-111 92 -487 l6 -295 1028 -3 1028 -2 -4 497 -3 498 -27 97 c-91 330 -290 597
-620 831 -306 217 -676 349 -1082 387 -100 9 -2613 12 -2705 3z m2609 -573
c347 -31 622 -150 856 -372 193 -182 265 -365 265 -669 l0 -119 -320 0 -319 0
-5 33 c-3 17 -8 55 -11 82 -44 364 -304 608 -715 670 -78 12 -279 15 -1122 15
-674 0 -1053 -4 -1103 -11 -376 -52 -623 -250 -717 -576 l-23 -78 0 -2525 c0
-2763 -4 -2566 60 -2705 113 -245 351 -389 705 -425 126 -13 1523 -13 1669 0
368 33 686 172 933 408 139 134 231 285 281 460 21 76 21 92 25 865 l3 787
-606 0 -605 0 0 230 0 230 940 0 940 0 0 -1670 0 -1670 -285 0 -285 0 0 321
c0 291 -2 321 -16 315 -9 -3 -160 -106 -336 -227 -406 -281 -491 -325 -740
-382 -91 -21 -115 -21 -1103 -25 -1047 -3 -1139 -1 -1316 38 -257 56 -492 182
-669 360 -89 89 -135 157 -177 262 -55 134 -52 6 -53 2846 0 2933 -5 2713 70
2867 89 182 258 331 539 474 204 104 433 169 667 189 142 13 2432 14 2573 2z"/>
<path d="M23750 21453 c-318 -25 -668 -118 -945 -252 -577 -278 -911 -652
-980 -1097 -14 -88 -15 -406 -13 -2794 l3 -2695 27 -97 c61 -222 166 -397 342
-573 127 -127 216 -196 383 -297 306 -186 618 -297 992 -353 203 -30 490 -37
1428 -32 782 4 936 7 1038 21 318 44 599 137 850 281 442 254 713 608 780
1018 12 72 15 191 15 540 l0 447 -1030 0 -1030 0 0 -303 c0 -239 -3 -315 -15
-361 -20 -78 -47 -113 -95 -126 -25 -7 -291 -9 -788 -8 -848 3 -769 -5 -814
87 l-23 46 0 2450 0 2450 25 49 c14 28 38 59 53 70 28 21 38 21 775 21 840 0
802 3 841 -72 34 -68 41 -145 41 -475 l0 -318 1030 0 1030 0 0 484 c0 523 -4
571 -56 738 -96 305 -314 573 -648 795 -287 191 -660 319 -1026 352 -105 10
-2072 13 -2190 4z m2089 -573 c269 -24 479 -96 690 -238 211 -142 349 -320
403 -521 16 -59 21 -119 25 -268 l6 -193 -317 0 c-174 0 -316 3 -316 8 0 4 -5
50 -10 102 -23 219 -86 358 -224 495 -126 125 -248 187 -456 232 -78 17 -150
18 -915 18 -871 0 -861 0 -1010 -45 -276 -84 -468 -283 -538 -558 l-22 -87 0
-2470 0 -2470 22 -82 c60 -225 202 -407 393 -503 30 -15 91 -39 135 -53 166
-52 171 -52 1035 -52 804 0 805 0 909 23 308 68 512 222 612 461 29 71 59 198
59 255 0 70 -21 66 328 66 l315 0 -6 -167 c-7 -197 -25 -283 -87 -402 -139
-267 -448 -473 -845 -562 -100 -23 -104 -23 -1120 -27 -1060 -4 -1141 -1
-1338 39 -427 86 -835 346 -973 621 -75 149 -69 -106 -69 2858 0 2986 -8 2698
77 2870 34 71 58 102 142 186 267 267 671 436 1116 467 122 9 1878 6 1979 -3z"/>
<path d="M16419 21370 c-339 -33 -596 -144 -778 -335 -166 -175 -242 -398
-228 -670 14 -275 136 -510 344 -662 l65 -48 -116 -3 -116 -3 0 -3179 0 -3180
995 0 995 0 0 3180 0 3180 -101 0 -101 0 49 36 c119 90 209 199 267 326 85
185 107 438 56 655 -88 375 -380 614 -840 688 -116 18 -375 27 -491 15z m439
-598 c34 -11 78 -32 97 -47 74 -56 111 -182 102 -343 -10 -184 -67 -269 -209
-314 -64 -20 -94 -23 -238 -23 -226 0 -327 28 -400 111 -56 65 -73 116 -78
240 -9 238 62 341 273 390 93 21 371 13 453 -14z m12 -4297 l0 -2605 -285 0
-285 0 0 2605 0 2605 285 0 285 0 0 -2605z"/>
<path d="M15803 7636 c-23 -7 -62 -25 -85 -39 -24 -14 -304 -288 -624 -609
-668 -670 -629 -621 -629 -798 0 -92 3 -112 26 -160 41 -85 99 -144 187 -187
70 -35 83 -38 161 -38 95 0 157 18 226 66 22 15 295 283 607 596 497 498 570
575 593 626 92 201 6 433 -193 525 -69 31 -201 40 -269 18z"/>
<path d="M24559 7637 c-189 -54 -316 -252 -281 -439 23 -125 20 -121 639 -746
549 -552 582 -584 647 -614 334 -153 672 185 517 518 -30 65 -67 104 -609 646
-538 538 -582 579 -645 608 -79 37 -192 49 -268 27z"/>
<path d="M20227 7388 c-118 -15 -240 -109 -295 -226 l-27 -57 0 -855 0 -855
29 -63 c73 -159 257 -256 423 -222 157 32 280 153 313 308 7 30 10 338 8 862
l-3 815 -32 67 c-78 166 -232 249 -416 226z"/>
<path d="M13094 4911 c-79 -20 -132 -58 -267 -190 -150 -147 -187 -204 -207
-313 -30 -162 68 -341 227 -416 51 -24 70 -27 158 -27 147 0 182 19 356 192
149 147 188 204 209 306 33 165 -58 340 -217 419 -54 26 -78 32 -146 34 -45 2
-96 -1 -113 -5z"/>
<path d="M27297 4910 c-109 -28 -211 -113 -261 -220 -28 -58 -31 -75 -31 -160
0 -86 3 -101 32 -164 28 -57 55 -89 170 -202 180 -176 223 -199 368 -199 93 0
105 2 166 32 80 39 150 111 187 191 24 50 27 69 27 162 0 151 -18 185 -194
362 -164 165 -220 197 -349 204 -42 2 -94 -1 -115 -6z"/>
<path d="M20210 3529 c-113 -22 -220 -108 -274 -219 l-31 -65 -3 -202 c-4
-227 5 -279 60 -365 40 -63 89 -105 168 -142 58 -28 74 -31 160 -31 87 0 101
3 160 32 111 55 185 143 214 258 18 69 22 362 6 433 -35 150 -157 269 -308
301 -60 12 -88 13 -152 0z"/>
</g>
</svg>
