<svg width="479pt" height="479pt" version="1.1" viewBox="-47 0 479 479.3" xmlns="http://www.w3.org/2000/svg">
 <g fill="#f7be33">
  <path d="m264.15 399.61c0 39.766-32.238 72-72 72-39.766 0-72-32.234-72-72 0-39.762 32.234-72 72-72 39.762 0 72 32.238 72 72z"/>
  <path d="m104.15 343.61h176c8.8359 0 16 7.1641 16 16s-7.1641 16-16 16h-176c-8.8398 0-16-7.1641-16-16s7.1602-16 16-16z"/>
  <path d="m104.15 375.61h176c8.8359 0 16 7.1641 16 16s-7.1641 16-16 16h-176c-8.8398 0-16-7.1641-16-16s7.1602-16 16-16z"/>
  <path d="m268.15 295.61c-62.875 0.0625-121.23-32.688-153.92-86.395-32.699-53.703-35.004-120.58-6.0781-176.41-41.73 27.691-67.141 74.156-67.941 124.23-0.80078 50.07 23.117 97.324 63.941 126.33v28.238c0 17.676 14.324 32 32 32h112c17.672 0 32-14.324 32-32v-16h-12z"/>
 </g>
 <g fill="#1c1c1b">
  <path d="m64.152 215.61c0-4.418-3.582-8-8-8h-40v-56c0-4.418-3.582-8-8-8-4.418 0-8 3.582-8 8v64c0 4.418 3.582 8 8 8h48c4.418 0 8-3.582 8-8z"/>
  <path d="m136.15 159.61c4.418 0 8-3.582 8-8s-3.582-8-8-8h-48c-4.418 0-8 3.582-8 8v64c0 4.418 3.582 8 8 8h48c4.418 0 8-3.582 8-8s-3.582-8-8-8h-40v-16h40c4.418 0 8-3.582 8-8s-3.582-8-8-8h-40v-16z"/>
  <path d="m216.15 223.61c4.418 0 8-3.582 8-8v-64c0-4.418-3.582-8-8-8h-48c-4.418 0-8 3.582-8 8v64c0 4.418 3.582 8 8 8 4.418 0 8-3.582 8-8v-24h32v24c0 4.418 3.582 8 8 8zm-40-48v-16h32v16z"/>
  <path d="m304.15 183.61v-32c0-4.418-3.582-8-8-8h-48c-4.418 0-8 3.582-8 8v64c0 4.418 3.582 8 8 8 4.418 0 8-3.582 8-8v-24h4.7188l29.602 29.68c1.5 1.5156 3.5469 2.3672 5.6797 2.3672 2.1328 0 4.1758-0.85156 5.6797-2.3672 1.5117-1.5 2.3633-3.5469 2.3633-5.6797s-0.85156-4.1758-2.3633-5.6797l-18.402-18.32h12.723c4.418 0 8-3.582 8-8zm-16-8h-32v-16h32z"/>
  <path d="m376.15 143.61c-4.418 0-8 3.582-8 8v40l-33.602-44.801c-2.0664-2.7539-5.6641-3.875-8.9297-2.7891-3.2656 1.0898-5.4688 4.1484-5.4688 7.5898v64c0 4.418 3.582 8 8 8 4.418 0 8-3.582 8-8v-40l33.598 44.801c1.5117 2.0156 3.8828 3.1992 6.4023 3.1992 0.86719-0.015625 1.7266-0.14844 2.5586-0.39844 3.2578-1.1016 5.4492-4.1602 5.4414-7.6016v-64c0-4.418-3.582-8-8-8z"/>
  <path d="m232.15 119.61c0 4.418 3.582 8 8 8 4.418 0 8-3.582 8-8 0-13.254-10.746-24-24-24-5.9102 0.015625-11.609 2.207-16 6.1602-9.1133-8.1484-22.891-8.1484-32 0-4.3945-3.9531-10.09-6.1445-16-6.1602-13.258 0-24 10.746-24 24 0 4.418 3.582 8 8 8 4.418 0 8-3.582 8-8s3.582-8 8-8c4.418 0 8 3.582 8 8s3.582 8 8 8c4.418 0 8-3.582 8-8s3.582-8 8-8c4.418 0 8 3.582 8 8s3.582 8 8 8c4.418 0 8-3.582 8-8s3.582-8 8-8c4.418 0 8 3.582 8 8z"/>
  <path d="m41.91 135.61c2.082 0.45312 4.2539 0.054687 6.0391-1.1016 1.7891-1.1562 3.0391-2.9766 3.4805-5.0586 14.379-66.207 72.969-113.44 140.72-113.44 67.75 0 126.34 47.23 140.72 113.44 0.80469 3.7539 4.1641 6.4062 8 6.3203h1.6797c2.082-0.44141 3.9023-1.6914 5.0586-3.4805 1.1562-1.7852 1.5508-3.9609 1.1016-6.0391-15.895-73.664-81.039-126.25-156.4-126.25-75.363 0-140.5 52.586-156.4 126.25-0.84766 4.2266 1.8047 8.3672 6 9.3594z"/>
  <path d="m325.51 232.81c-1.8047-1.125-3.9805-1.4922-6.0508-1.0117-2.0742 0.48047-3.8672 1.7656-4.9883 3.5742-10.098 16.293-23.34 30.41-38.961 41.52-2.0977 1.4922-3.3477 3.9062-3.3594 6.4805v28.238c0 13.254-10.746 24-24 24h-8v-88c0-4.418-3.582-8-8-8-4.418 0-8 3.582-8 8v88h-64v-88c0-4.418-3.582-8-8-8-4.418 0-8 3.582-8 8v88h-8c-13.258 0-24-10.746-24-24v-28.238c-0.011719-2.5742-1.2656-4.9883-3.3633-6.4805-15.617-11.109-28.863-25.227-38.957-41.52-2.3438-3.7773-7.3047-4.9414-11.082-2.6016-3.7773 2.3438-4.9414 7.3047-2.5977 11.082 10.488 16.949 24.055 31.793 40 43.758v24c-0.046875 8.6641 2.7617 17.098 8 24-13.258 0-24 10.746-24 24 0.035156 5.9219 2.2578 11.621 6.2383 16-3.9805 4.3828-6.2031 10.082-6.2383 16 0 13.254 10.742 24 24 24h9.6797c7.7227 37.102 40.422 63.691 78.32 63.691 37.895 0 70.594-26.59 78.32-63.691h9.6797c13.254 0 24-10.746 24-24-0.035156-5.918-2.2578-11.617-6.2422-16 3.9844-4.3789 6.207-10.078 6.2422-16 0-13.254-10.746-24-24-24 5.2344-6.9023 8.0469-15.336 8-24v-24c15.926-11.918 29.492-26.707 40-43.598 1.1719-1.8281 1.5508-4.0508 1.0547-6.1602-0.49609-2.1133-1.832-3.9336-3.6953-5.043zm-133.36 230.8c-29.168-0.019531-54.629-19.758-61.922-48h123.84c-7.293 28.242-32.754 47.98-61.918 48zm88-64h-176c-4.418 0-8-3.582-8-8s3.582-8 8-8h176c4.418 0 8 3.582 8 8s-3.582 8-8 8zm8-40c0 4.418-3.582 8-8 8h-176c-4.418 0-8-3.582-8-8s3.582-8 8-8h176c4.418 0 8 3.582 8 8z"/>
 </g>
</svg>
