<svg enable-background="new 0 0 525.153 525.153" version="1.1" viewBox="0 0 525.15 525.15" xmlns="http://www.w3.org/2000/svg">
 <path d="m96.781 290.23c-15.229 0-27.658 12.407-27.658 27.658 0 15.12 12.407 27.658 27.658 27.658 15.12 0 27.658-12.516 27.658-27.658 0-15.251-12.538-27.658-27.658-27.658zm0 110.48c-15.229 0-27.658 12.516-27.658 27.658 0 15.229 12.407 27.658 27.658 27.658 15.12 0 27.658-12.407 27.658-27.658 0-15.12-12.538-27.658-27.658-27.658zm0-221.09c-15.229 0-27.658 12.516-27.658 27.658 0 15.229 12.407 27.658 27.658 27.658 15.12 0 27.658-12.407 27.658-27.658 0-15.142-12.538-27.658-27.658-27.658zm-82.952 13.829c-7.724 0-13.829 6.105-13.829 13.829s6.105 13.829 13.829 13.829 13.829-6.105 13.829-13.829-6.127-13.829-13.829-13.829zm82.952-124.33c-15.229 0-27.658 12.407-27.658 27.658 0 15.12 12.407 27.658 27.658 27.658 15.12 0 27.658-12.516 27.658-27.658 0-15.229-12.538-27.658-27.658-27.658zm414.54 151.97c7.724 0 13.829-6.105 13.829-13.829s-6.105-13.829-13.829-13.829-13.829 6.105-13.829 13.829 6.126 13.829 13.829 13.829zm-193.45-96.65c15.12 0 27.658-12.516 27.658-27.658 0-15.229-12.516-27.658-27.658-27.658-15.229 0-27.658 12.407-27.658 27.658 0.022 15.12 12.429 27.658 27.658 27.658zm0-96.781c7.724 0 13.829-6.105 13.829-13.829s-6.104-13.829-13.829-13.829c-7.724 0-13.829 6.105-13.829 13.829s6.127 13.829 13.829 13.829zm-304.04 276.4c-7.724 0-13.829 6.105-13.829 13.807s6.105 13.829 13.829 13.829 13.829-6.105 13.829-13.829-6.127-13.807-13.829-13.807zm193.45 193.43c-7.724 0-13.829 6.105-13.829 13.829s6.105 13.829 13.829 13.829 13.829-6.105 13.829-13.829c0-7.725-6.127-13.829-13.829-13.829zm0-469.84c7.724 0 13.829-6.105 13.829-13.829s-6.127-13.829-13.829-13.829-13.829 6.105-13.829 13.829 6.105 13.829 13.829 13.829zm0 96.781c15.229 0 27.658-12.516 27.658-27.658 0-15.229-12.407-27.658-27.658-27.658-15.12 0-27.658 12.407-27.658 27.658 0 15.12 12.516 27.658 27.658 27.658zm0 151.97c-22.975 0-41.487 18.512-41.487 41.487s18.512 41.487 41.487 41.487 41.487-18.512 41.487-41.487-18.533-41.487-41.487-41.487zm221.09 13.829c-15.12 0-27.658 12.407-27.658 27.658 0 15.12 12.516 27.658 27.658 27.658 15.229 0 27.658-12.516 27.658-27.658 0-15.251-12.428-27.658-27.658-27.658zm0 110.48c-15.12 0-27.658 12.516-27.658 27.658 0 15.229 12.516 27.658 27.658 27.658 15.229 0 27.658-12.407 27.658-27.658 0-15.12-12.428-27.658-27.658-27.658zm0-221.09c-15.12 0-27.658 12.516-27.658 27.658 0 15.229 12.516 27.658 27.658 27.658 15.229 0 27.658-12.407 27.658-27.658 0-15.142-12.428-27.658-27.658-27.658zm0-110.5c-15.12 0-27.658 12.407-27.658 27.658 0 15.12 12.516 27.658 27.658 27.658 15.229 0 27.658-12.516 27.658-27.658 0-15.229-12.428-27.658-27.658-27.658zm82.953 234.94c-7.724 0-13.829 6.105-13.829 13.829s6.105 13.829 13.829 13.829 13.829-6.127 13.829-13.851-6.105-13.807-13.829-13.807zm-193.45 96.65c-15.229 0-27.658 12.516-27.658 27.658 0 15.229 12.407 27.658 27.658 27.658 15.12 0 27.658-12.407 27.658-27.658 1e-3 -15.12-12.516-27.658-27.658-27.658zm0 96.782c-7.724 0-13.829 6.105-13.829 13.829s6.127 13.829 13.829 13.829 13.829-6.105 13.829-13.829c0-7.725-6.104-13.829-13.829-13.829zm-110.59-331.7c-22.975 0-41.487 18.512-41.487 41.487s18.512 41.487 41.487 41.487 41.487-18.512 41.487-41.487-18.533-41.487-41.487-41.487zm0 234.92c-15.12 0-27.658 12.516-27.658 27.658 0 15.229 12.516 27.658 27.658 27.658 15.229 0 27.658-12.407 27.658-27.658-0.022-15.12-12.429-27.658-27.658-27.658zm110.59-124.31c-22.975 0-41.487 18.512-41.487 41.487s18.512 41.487 41.487 41.487 41.487-18.512 41.487-41.487-18.511-41.487-41.487-41.487zm0-110.61c-22.975 0-41.487 18.512-41.487 41.487s18.512 41.487 41.487 41.487 41.487-18.512 41.487-41.487-18.511-41.487-41.487-41.487z" fill="#fff"/>
</svg>
